<?xml version="1.0" encoding="utf-8"?>
<!-- Generator: Adobe Illustrator 21.0.0, SVG Export Plug-In . SVG Version: 6.00 Build 0)  -->
<svg version="1.1" xmlns="http://www.w3.org/2000/svg" xmlns:xlink="http://www.w3.org/1999/xlink" x="0px" y="0px"
	 viewBox="0 0 309 342.3" style="enable-background:new 0 0 309 342.3;" xml:space="preserve">
<style type="text/css">
	.st0{display:none;}
	.st1{display:inline;fill:#FFFFFF;}
	.st2{fill:#CBCCB6;}
	.st3{display:none;clip-path:url(#SVGID_3_);}
	.st4{clip-path:url(#SVGID_5_);}
	.st5{fill:#B0B19E;}
	.st6{fill:#B3B4A2;}
	.st7{fill:#6F7071;}
	.st8{fill:#997A5B;}
	.st9{fill:#B29F7D;}
	.st10{fill:#089061;}
	.st11{fill:#9B865C;}
	.st12{fill:#068057;}
	.st13{fill:#007A4D;}
	.st14{fill:#DE3831;}
	.st15{fill:#204C8C;}
	.st16{fill:#F9BF15;}
	.st17{fill:none;stroke:#000000;stroke-width:0.25;stroke-miterlimit:10;}
	.st18{display:inline;fill:#9A9A9A;}
	.st19{fill:#FEFEFE;}
	.st20{fill:#261417;}
	.st21{fill:#FFC145;}
	.st22{fill:#282929;}
	.st23{fill:none;}
	.st24{font-family:'ShadowsIntoLight';}
	.st25{font-size:19.8066px;}
</style>
<g id="Layer_2" class="st0">
	<rect x="-44" y="-803.7" class="st1" width="329.6" height="165.5"/>
</g>
<g id="Layer_4">
	<polygon class="st2" points="185.5,279.5 161,332.5 136.1,271.8 	"/>
	<polygon class="st2" points="188,265.6 146.8,306.5 140.5,241 	"/>
</g>
<g id="Layer_1">
	<g id="Letters_1_">
		<g>
			<g>
				<defs>
					<path id="SVGID_1_" d="M175.9,341c-10.1,2.1-15.4,0.2-16.3-9.8c-0.2-4-3.4-7.7-5.7-11.2c-4.1-5.9-6.9-12.2-7.8-19.2
						c-1.6-10.1-4.6-19.2-10.3-27.6c-4.6-6.8-6-14.7-1.4-21.5c14-20.6,3.9-37.7-7.6-53.4c-6.2-8.4-9.6-15.5-6.4-26
						c1.6-5.2,1.4-8.7-0.2-11c-1.1-1.6-3-2.3-4.4-2.8c-2.5-0.9-4.1-0.7-6.9-0.9c0,0-6.7,1.4-9.6-2.8c-7.1-9.8-14.7-1.6-23.9-2.8
						c-20-2.8-37.4,1.2-56.3-11.2c-6.2-4.2-9-12.2-13.1-18.5c-5.7-8.7-8.5-17.6-2.5-27.9C6,89.8,7.4,84.2,5.8,78.8
						c-3-11.2,2.3-18.7,9.4-26.2c6.7-7,11.7-15.5,21.6-18.5c3.4-0.9,4.6-5.4,5.5-8.9c1.1-4.7,3.9-8.2,7.3-11.2
						c7.6-7,14.5-10.8,26.2-10.3c13.5,0.5,27.8-4,42.2-3.5c11.9,0.5,12.2,0.2,8.5,11.5c-1.6,4.9,1.1,6.6,3.9,7.3
						c9.2,1.6,17,7.3,25.5,10.8c4.8,2.1,9.9,3.3,11.7-4.9c1.1-5.2,5.1-5.4,9.2-3.3c3.2,1.6,6.4,2.8,9.6,3.7c3.4,0.9,6.2,1.2,9,1.2
						c5.7,0.2,6.9-0.9,13.8-1.2c6.9-0.5,10.3-0.5,12.6,1.4c2.8,2.6,3.4,7.3,2.5,14.3c-0.9,6.8,2.3,11.5,5.7,16.4
						c5.3,7.3,10.1,14.5,13.1,23.6c3.2,9.4,11,17.6,17.7,25.3c4.4,5.2,10.6,8.4,13.5,15.2c1.8,4.2,5.7,4.2,9.2,3.5
						c5.3-1.2,10.3-2.8,15.6-4.4c3-0.9,6.4-3.5,8.7-0.5c2.3,2.8,0.5,6.3-0.5,9.6c-4.4,14.7-11.9,27.2-23,37.5
						c-3.7,3.3-7.3,6.3-11,9.6c-18.6,16.9-21.6,27.9-14,52c5.5,17.3,1.6,28.1-13.8,37.2c-7.1,4.2-13.1,8.4-9.2,19.2
						c2.1,5.6,0.7,11.7-6.2,14.7c-2.1,0.9-3.4,3.7-5.1,5.6c-0.7,0.9-1.1,2.3-1.6,3.5C213.8,331.2,200,346.6,175.9,341z"/>
				</defs>
				<clipPath id="SVGID_3_">
					<use xlink:href="#SVGID_1_"  style="overflow:visible;"/>
				</clipPath>
				<g transform="matrix(1 0 0 1 0 0)" class="st3">
					
						<image style="display:inline;overflow:visible;" width="1200" height="799" xlink:href="../../../../Pictures/Flat art/holi-feast-3.jpeg"  transform="matrix(0.6795 0 0 0.6928 -423.5181 45.1127)">
					</image>
				</g>
			</g>
			<g>
				<defs>
					<path id="SVGID_4_" d="M175.9,341c-10.1,2.1-15.4,0.2-16.3-9.8c-0.2-4-3.4-7.7-5.7-11.2c-4.1-5.9-6.9-12.2-7.8-19.2
						c-1.6-10.1-4.6-19.2-10.3-27.6c-4.6-6.8-6-14.7-1.4-21.5c14-20.6,3.9-37.7-7.6-53.4c-6.2-8.4-9.6-15.5-6.4-26
						c1.6-5.2,1.4-8.7-0.2-11c-1.1-1.6-3-2.3-4.4-2.8c-2.5-0.9-4.1-0.7-6.9-0.9c0,0-6.7,1.4-9.6-2.8c-7.1-9.8-14.7-1.6-23.9-2.8
						c-20-2.8-37.4,1.2-56.3-11.2c-6.2-4.2-9-12.2-13.1-18.5c-5.7-8.7-8.5-17.6-2.5-27.9C6,89.8,7.4,84.2,5.8,78.8
						c-3-11.2,2.3-18.7,9.4-26.2c6.7-7,11.7-15.5,21.6-18.5c3.4-0.9,4.6-5.4,5.5-8.9c1.1-4.7,3.9-8.2,7.3-11.2
						c7.6-7,14.5-10.8,26.2-10.3c13.5,0.5,27.8-4,42.2-3.5c11.9,0.5,12.2,0.2,8.5,11.5c-1.6,4.9,1.1,6.6,3.9,7.3
						c9.2,1.6,17,7.3,25.5,10.8c4.8,2.1,9.9,3.3,11.7-4.9c1.1-5.2,5.1-5.4,9.2-3.3c3.2,1.6,6.4,2.8,9.6,3.7c3.4,0.9,6.2,1.2,9,1.2
						c5.7,0.2,6.9-0.9,13.8-1.2c6.9-0.5,10.3-0.5,12.6,1.4c2.8,2.6,3.4,7.3,2.5,14.3c-0.9,6.8,2.3,11.5,5.7,16.4
						c5.3,7.3,10.1,14.5,13.1,23.6c3.2,9.4,11,17.6,17.7,25.3c4.4,5.2,10.6,8.4,13.5,15.2c1.8,4.2,5.7,4.2,9.2,3.5
						c5.3-1.2,10.3-2.8,15.6-4.4c3-0.9,6.4-3.5,8.7-0.5c2.3,2.8,0.5,6.3-0.5,9.6c-4.4,14.7-11.9,27.2-23,37.5
						c-3.7,3.3-7.3,6.3-11,9.6c-18.6,16.9-21.6,27.9-14,52c5.5,17.3,1.6,28.1-13.8,37.2c-7.1,4.2-13.1,8.4-9.2,19.2
						c2.1,5.6,0.7,11.7-6.2,14.7c-2.1,0.9-3.4,3.7-5.1,5.6c-0.7,0.9-1.1,2.3-1.6,3.5C213.8,331.2,200,346.6,175.9,341z"/>
				</defs>
				<clipPath id="SVGID_5_">
					<use xlink:href="#SVGID_4_"  style="overflow:visible;"/>
				</clipPath>
				<g class="st4">
					<path class="st5" d="M291.6,153.5c9,0.2,18.1,0,27.1,0.5c2.1,0,4.4,1.4,6.9,2.3c-0.7,1.9-1.4,2.6-1.1,3c0.2,1.2,0.7,2.1,0.9,3
						c0.7-0.7,2.1-1.2,2.3-2.1c0.7-3.7,3.2-5.6,4.8-2.8c2.5,4.2,5.5,3.5,8.5,3.7c3.2,0,6.2-0.2,9.4,0.2c5.5,0.7,10.8,2.1,16.3,3
						c0.2,0,0.7,0.2,0.9,0.5c3.7,6.6,9,3.5,13.3,3.7c2.8,0.2,5.1-0.2,6.9,3.3c0.2,0.5,0.9,1.4,1.1,1.4c5.7-0.5,11,5.2,17,3.3
						c1.8-0.5,3.9,1.2,5.7,1.9c0.9,0.2,1.8,0.9,2.8,0.9c3,0,5.7,0,7.8,3.7c0.7,1.2,2.5,0.9,3.9,0.9c6.7,0.2,6.7,0.2,9.2,6.3
						c5.5,0.2,11.3-1.6,14.9,6.3c0.2,0.5,0.7,0.9,0.9,1.2c3.2,0.5,6.2,0.9,9.4,1.4c0.9,0.2,2.5,0.2,2.8,0.9c2.3,7.3,7.3,5.2,11,6.1
						c4.4,1.2,6.9,3.3,7.6,9.6c3.4-1.9,6.7-3,9.2,1.9c0.5,0.7,2.1,1.2,2.8,0.7c3.9-2.3,7.1-1.2,10.6,2.1c3.2,3,6.9,5.2,10.3,7.5
						c4.4,2.8,8.7,5.6,12.9,8.2c0,1.6-0.2,4.4-0.5,7c-0.2,1.4-1.1,2.3-1.6,3.7c-0.7,1.6-1.1,3.3-1.8,4.9c0.2,0.2,0.5,0.5,0.7,0.5
						c1.1-1.2,2.5-2.3,3.7-3.7c0.2-6.3,4.1-10.3,9-10.1c-0.5,0.7-0.7,1.4-1.1,2.1c-5.5,9.1-11,18-16.5,27.2c-3,0.2-6,0.5-9.4,0.7
						c0.7,3.7,1.1,6.8,1.6,10.1c-1.8,3.3-3.7,6.6-5.7,10.1c-1.8-1.6-3.7-3.3-5.3-4.9c-0.2,0-0.5,0.2-0.7,0.2l0,0
						c-0.7,1.4-1.4,2.8-1.8,4.2c-0.9,2.3-1.8,4.7-2.5,7c-2.5-7.7-5.3-15.5-7.6-23.4c-0.9-3.3-2.3-4.9-4.8-5.9
						c-3.7-1.6-7.1-3.7-10.8-5.6c-0.5-1.2-0.9-2.3-1.6-3.3c-5.7-9.8-11.7-19.7-17.4-29.7c1.1-0.9,2.5-2.1,4.1-3.3
						c-2.3-3.7-5.1-4.7-8.3-4.2c-0.9-1.4-2.1-2.8-3.2-4.2c-1.1-1.2-2.5-2.1-3.7-3H442v0.5c-0.2,0.2-0.2,0.7-0.5,0.9
						c-0.7,0.7-1.6,1.4-2.3,2.1c-0.7-1.2-1.4-2.3-2.1-3.7c-0.7,0.9-1.6,1.6-2.3,2.8c-0.9,2.1-1.4,4.2-2.1,5.9
						c-1.6,0.7-2.8,0.9-3.9,1.4c-1.6,0.7-3,0.7-3-2.6c0-1.6-0.7-4.9-1.1-4.9c-3-0.2-6-3.5-8.7,0.5c-0.9,1.2-3,2.8-3.7,2.3
						c-1.8-1.6-4.1-3.7-4.6-6.3c-0.7-3.7-1.6-4.4-3.9-4.2c-1.1,0-2.3,0-3.4-0.5c-2.1-0.7-3.9-0.7-5.3,2.3c-0.5,0.9-2.1,1.9-2.8,1.4
						c-2.3-1.9-5.1-3.7-6.7-6.8c-2.5-5.2-8-6.6-11.3-2.3c-0.9,1.2-3.7,1.9-3.9,0.9c-2.1-4-4.8-4-7.8-3.7c-1.8,0.2-2.8-0.7-3.2-3
						c-1.1-4.9-7.6-6.3-10.1-2.6c-2.1,3-7.8,4-9.9,1.4c-2.1-2.8-5.7-3.7-6.7-8.4c-0.2-0.7-1.1-1.4-1.8-1.2c-2.5,0-3.9-1.4-4.4-4.7
						c0-0.7-0.7-1.2-1.1-1.9c-1.8,6.3-1.8,6.3-3.7,6.8c1.6-8,1.6-8-1.8-7.7c0-0.7,0.2-1.2,0.2-1.9c0.2-0.9,0.7-1.6,0.9-2.6
						c-0.9-0.7-2.1-2.1-2.8-1.6c-1.1,0.7-3.4-2.1-3.4,2.3c-0.2,0-0.5,0-0.7,0c-0.9-0.7-2.1-1.4-3-1.9c-0.9,3.3-1.8,0.5-2.8,0.2
						c-0.2-0.5-0.5-1.2-0.7-1.6c-0.5,0.5-0.7,1.2-1.1,1.6c0,0.5,0,1.2,0,1.6c-0.9,0-1.8,0-2.5,0c-0.5-3-1.4-0.7-2.1-0.2
						c-1.1,0.7-2.5,1.4-3.7,2.1c-0.5,0.2-0.9,0.7-1.4,0.9c-1.6,1.4-2.8,1.9-2.8-2.3c-1.8,0.5-3.7,0.9-5.5,1.4
						c-0.5,1.4-0.9,3-1.6,4.4c-1.1-0.5-2.3-0.9-3.2-1.4c0,0.2-0.2,0.5-0.2,0.9c0.5,0.9,1.1,2.1,1.6,3c-0.2,0.5-0.7,0.7-0.9,1.2
						c-0.5-1.2-1.4-2.1-1.6-3.3c-1.6-4.7-2.3-4.9-5.3-2.3c-1.1,1.2-2.8,1.9-4.1,1.9c-4.1,0.2-8.3,0-12.2,0c-4.1,0-8.3,0.9-11.7-3
						c-0.7-0.9-2.3-0.7-3.4-0.7c-11.9-0.2-23.9-0.2-36-0.5c-11.9,0-23.9-0.2-36-0.2c-8.5,0-17.2-0.2-25.7-0.2
						c-1.4,0-2.8,0.5-4.1,0.9c-2.5,0.7-4.8,2.1-7.3,2.3c-3.4,0.5-7.1,0-10.6,0c-1.1,0-2.3,0-3-0.9c-3-3.7-6.7-3-10.1-2.8
						c-2.1,0.2-5.5,0.9-6,2.8c-1.4,4.7-3.7,4.4-6.2,4.4c-3.7,0-7.1,0.2-11,2.1c-4.8,2.6-10.6,5.4-15.2-1.2c-0.2-0.2-0.9-0.2-1.1-0.2
						c-2.3-0.5-4.8-0.5-6.9-1.2c-3-1.2-3,1.2-2.8,4.2c0,0.9,0.2,1.6,0.5,3.3c-1.6,0.2-3,0.2-4.4,0.5c-0.9,0-2.1,0-3,0.5
						c-2.5,0.9-4.8,2.8-7.3,3.3c-1.4,0.2-2.8-0.9-4.4-1.6c-1.1-0.5-2.1-1.6-3.2-1.6c-1.6-0.2-3.2,0-4.8-0.2
						c-4.8-0.7-4.8-0.7-4.1,6.3c-1.4,0.2-2.8,1.2-3.9,0.7c-2.3-0.9-3.9,0.2-5.5,2.6c-1.4,2.3-2.8,2.1-4.4,0
						c-0.9-1.2-2.3-1.9-3.7-2.1c-1.4-0.5-3-0.2-4.4-0.7c-1.8-0.7-2.5,0-2.8,2.8c0,2.8-6.4,9.1-8.3,8.7c-0.5-0.2-1.1-0.5-1.4-0.9
						c-2.5-5.9-6.9-1.2-10.1-3.3c0,0-0.9,1.6-0.9,2.3c0,2.8-0.5,4.7-2.8,4.9c-0.9,0.2-1.8,1.2-2.5,2.1c-1.8,2.8-3.2,2.3-5.3,0
						c-1.6-1.9-3.9-2.3-6-2.8c-0.5,0-1.1,3.5-1.6,5.2c-0.2,0.7-0.5,1.4-0.7,2.1c-0.9,1.9-1.4,4.7-2.8,5.4c-2.1,1.2-3.7-0.5-5.1-3
						c-0.9-1.6-3.2-2.3-4.8-2.6c-0.5,0-1.4,2.6-1.8,4c-1.4,4.2-1.6,9.4-6.2,9.6c-0.2,0-0.2,0.7-0.5,1.2c-1.1,0-2.1,0-3.2,0
						c0.5-0.9,1.1-1.9,1.6-3c-1.6-5.4-2.8-5.6-5.7-1.9c-0.7,0.9-1.6,1.6-2.5,2.1c-3.2,1.9-3.2,2.1-0.9,5.6c1.4,2.1,1.4,4-0.5,6.6
						c-0.7-6.1-3.7-3.5-5.7-4.4c-2.3-0.9-3.7,0.2-3.7,3.5c-0.2,3-1.4,4.2-3.4,4c-2.1-0.2-4.4,0-6.4,0c0,0.7,0,1.2,0,1.9
						c2.5,0,5.1,0,8.3,0c-3.7,4.4-5.3,4.7-9.6,1.4c-2.5,5.6-3,5.6-6.4,0.5c-2.8-4.2-7.8-3.3-9.6,2.3c-1.1,3.5-3,4-4.6,2.6
						c-2.1-1.9-3-0.7-4.1,1.6c-0.2,0.7-0.9,1.2-1.4,2.1c-1.6,3.5-6.2,4.7-4.4,11c0,0.2-0.5,0.7-0.5,0.9c-0.5,1.6-0.7,3.3-1.1,4.9
						c-0.7-0.5-1.4-0.9-2.3-1.4c0.2-0.5,0.5-0.9,0.7-1.4c-0.2-0.2-0.2-0.2-0.5-0.5c-0.2,0.5-0.5,1.2-0.7,1.6
						c-1.8-1.2-3.4-2.3-5.3-3.5c1.4,0,2.8,0,3.9-0.2c1.1-0.2,2.3-1.2,3.7-1.9c-3-2.3-5.3-3.7-7.1-5.9c-2.1-2.3-3-0.7-4.1,1.4
						c4.8,2.1,5.1,2.3,3.4,6.6c-1.8-1.2-3.9-2.3-5.7-3.5c0.2-0.5,0.5-0.9,0.7-1.4c-0.2-0.2-0.2-0.2-0.5-0.5
						c-0.2,0.5-0.5,1.2-0.7,1.6c-0.2,0-0.5-0.2-0.7-0.2c-0.2-0.2-0.5-0.5-0.9-0.7c-0.2-0.2-0.5-0.5-0.7-0.7c0.2-0.5,0.5-0.9,0.7-1.4
						c-0.2-0.2-0.2-0.2-0.5-0.5c-0.2,0.7-0.5,1.2-0.5,1.9c-2.3-1.4-4.8-2.8-7.1-4c-0.2-0.2-0.7-0.5-0.9-0.7c-2.3-1.6-4.6-3-6.9-4.7
						c0.2-0.7,0.5-1.4,0.9-1.9l0,0c1.6,0,3,0,3.9,0c0.7,1.9,1.1,4.2,1.8,4.2c1.4,0.2,2.8-0.5,4.1-1.4c-2.3-2.1-3.2-4-2.3-7.5
						c0.2-0.9-0.9-2.8-1.8-4.7c2.8-3.3,5.5-6.8,9.9-8c2.1-0.5,3.9-3.5,6-4.9c5.1-3.3,10.1-6.1,15.2-9.4c1.4-0.9,2.3-2.6,3.7-3.5
						c3.2-2.3,6.7-4.7,9.9-6.8c0.7-0.5,1.4-0.2,2.1,0.2c2.1,0.7,3.7,0.7,5.1-2.1c0.5-0.9,1.6-1.4,2.5-1.9c1.6-0.9,3.4-2.1,5.1-2.8
						c0.9-0.5,2.1-0.5,3-0.5c2.3,0.2,4.6,1.9,6.2-2.6c0.5-1.2,2.3-0.9,3.4-1.6c2.5-2.1,5.1-4.2,8.3-2.6c0.5,0.2,1.4-0.9,2.1-1.6
						c0.7-0.7,1.4-2.1,2.3-2.3c2.3-0.5,4.6-0.7,6.4-3.5c0.2-0.5,1.4-0.5,1.8-0.2c2.3,1.2,4.1,0.9,6-2.3c0.9-1.6,2.5-2.1,3.9,0.2
						c0.5,0.7,0.9,1.4,1.6,2.1c2.5-6.6,2.5-6.6,7.8-6.3c3,0,5.7,0.2,7.8-3.5c0.7-1.2,2.3-0.9,3.7-1.2c4.6-0.9,9.2-1.6,13.5-2.3
						c0.9-0.2,2.1-0.2,2.3-0.9c1.8-4.2,4.4-3.7,7.1-3.5c2.3,0,4.1,0,5.7-2.8c0.7-0.9,2.3-1.2,3.4-0.9c4.4,0.2,8.5,0.9,12.9,1.2
						c0.7,0,1.4-0.2,1.8-0.7c3.9-6.3,9.4-5.4,14.2-6.1c5.5-0.7,11.3,0.7,16.8,1.2c0.5,0,1.6-0.9,1.6-1.4c0-5.9,2.3-4,4.6-2.6
						c1.1-4.4,3.4-4.7,6.2-4.7c9.9,0.2,19.5,0.2,29.4,0.2c1.1,0,3,0,3.7-1.2c2.1-3.5,4.6-3.3,7.3-3.3c2.3,0,4.4-0.5,6.7-0.9
						c5.1-0.5,10.1-1.6,14.9-1.6c45.7,0.2,91.6,0.7,137.3,1.4c1.8,0,3.9,1.2,5.7,1.9c1.1,0.5,2.3,0.9,3.4,0.7 M471.6,267.6
						c0-0.3,0-0.5,0-0.8c-0.5-0.2-1.3-0.2-1.3-0.5c-0.3-3.3-1.5-1.8-2.8-1.2c-0.7,0.3-1.6,0.3-2.3,0c-1.3-0.5-2.5,0.5-2.6,2.3
						C465.5,267.6,468.6,267.6,471.6,267.6z M213.6,244.7c0.2,0.3,0.5,0.7,0.7,1c0.5-0.7,1.1-1.3,1.6-2c0,0-0.5-0.8-0.7-1.3
						C214.7,243.2,214,244.1,213.6,244.7z M123.5,271c0.2,0.3,0.5,0.5,0.7,0.8c0.5-0.8,1-1.8,1.6-2.7c-0.2-0.3-0.5-0.5-0.7-0.8
						C124.6,269.2,124.1,270,123.5,271z M112.5,276c0.3,0.3,0.5,0.7,0.8,1c0.5-1,1-1.8,1.5-2.8c-0.2-0.2-0.5-0.5-0.7-0.7
						C113.5,274.2,113,275.2,112.5,276z M167.6,253.6c-0.7,1.3-0.8,1.8-1,2.2c0.3,0.2,0.7,0.5,0.8,0.5c0.2,0,0.5-0.5,0.5-0.8
						C168.1,254.9,167.9,254.4,167.6,253.6z M137.1,265.5c0,0.3,0,0.5,0.2,0.8c0.5,0,0.8,0,1.3,0c-0.2-0.5-0.2-0.8-0.3-1.3
						C137.8,265.1,137.4,265.3,137.1,265.5z M70,303.4c0-0.3,0-0.5,0-0.8c-0.5,0.2-0.8,0.2-1.3,0.3c0,0.2,0,0.3,0,0.5
						C69.2,303.4,69.5,303.4,70,303.4z M66.9,283.7c0.2,0,0.3,0.2,0.3,0.2c0.2,0,0.2-0.3,0.2-0.5c-0.2,0-0.3-0.2-0.3-0.2
						S67.1,283.5,66.9,283.7z M63.5,306.6c-0.2,0-0.3,0.2-0.3,0.2c0,0.2,0,0.3,0.2,0.5c0.2,0,0.3-0.2,0.3-0.2
						C63.6,307,63.5,306.8,63.5,306.6z M59.8,289.1c0-0.2,0.2-0.3,0.2-0.5c0-0.2-0.2-0.2-0.3-0.2c0,0.2-0.2,0.3-0.2,0.5
						C59.5,288.9,59.8,288.9,59.8,289.1z M515.9,282.2c0,0.2-0.2,0.3-0.2,0.5c0,0.2,0.2,0.2,0.3,0.2c0-0.2,0.2-0.3,0.2-0.5
						C516,282.4,515.9,282.2,515.9,282.2z M523.6,287.7c-0.2,0-0.3-0.2-0.3-0.2c-0.2,0-0.2,0.3-0.2,0.5c0.2,0,0.3,0.2,0.3,0.2
						S523.4,287.9,523.6,287.7z M82.3,273c-0.2,0-0.3-0.2-0.3-0.2c-0.2,0-0.2,0.3-0.2,0.5c0.2,0,0.3,0.2,0.3,0.2
						C82.3,273.5,82.3,273.2,82.3,273z M74.8,278.7c0-0.2,0.2-0.3,0.2-0.5c0-0.2-0.2-0.2-0.3-0.2c0,0.2-0.2,0.3-0.2,0.5
						C74.4,278.5,74.6,278.7,74.8,278.7z"/>
					<path class="st6" d="M-113.9,268c-1.1-0.9-2.3-1.9-3.4-2.8c0.5-1.6,0.7-3.3,1.1-4.9c0-0.5,0.7-0.9,0.5-0.9
						c-1.8-6.3,2.8-7.5,4.4-11c0.2-0.7,0.9-1.2,1.4-2.1c0.9-2.3,1.8-3.5,4.1-1.6c1.6,1.4,3.4,0.9,4.6-2.6c1.8-5.6,6.9-6.3,9.6-2.3
						c3.4,5.2,4.1,5.2,6.4-0.5c4.4,3.3,6,3.3,9.6-1.4c-3.2,0-5.7,0-8.3,0c0-0.7,0-1.2,0-1.9c2.1,0,4.4,0,6.4,0
						c2.1,0.2,3.2-0.9,3.4-4c0.2-3.3,1.6-4.4,3.7-3.5c2.1,0.9,5.3-1.6,5.7,4.4c1.8-2.6,1.8-4.4,0.5-6.6c-2.3-3.5-2.3-3.7,0.9-5.6
						c0.9-0.5,1.6-1.2,2.5-2.1c3-3.7,4.1-3.5,5.7,1.9c-0.5,0.9-1.1,1.9-1.6,3c-1.1,0-2.5,0.2-3.9,0.2c1.1,3.7,1.1,4,6.7,3.5
						c0.9,0,2.1-1.2,3-1.9c-0.2-0.5-0.2-0.9-0.5-1.4c-0.7,0-1.4-0.2-2.1-0.2c0.2-0.5,0.2-1.2,0.5-1.2c4.4-0.2,4.8-5.4,6.2-9.6
						c0.5-1.6,1.4-4.2,1.8-4c1.6,0.2,3.9,0.9,4.8,2.6c1.4,2.6,3,4.4,5.1,3c1.1-0.7,1.8-3.5,2.8-5.4c0.2-0.7,0.5-1.4,0.7-2.1
						c0.5-1.9,1.4-5.4,1.6-5.2c2.1,0.5,4.4,1.2,6,2.8c2.1,2.3,3.4,2.6,5.3,0c0.7-0.9,1.6-1.9,2.5-2.1c2.3-0.2,2.8-2.1,2.8-4.9
						c0-0.9,0.9-2.3,0.9-2.3c3.2,2.1,7.6-2.6,10.1,3.3c0.2,0.5,0.9,0.9,1.4,0.9c1.8,0.7,8.3-5.9,8.3-8.7c0-2.8,0.9-3.3,2.8-2.8
						c1.4,0.5,3,0.2,4.4,0.7s2.8,0.9,3.7,2.1c1.6,1.9,3,2.3,4.4,0c1.4-2.3,3-3.5,5.5-2.6c1.1,0.5,2.5-0.5,3.9-0.7
						c-0.7-7-0.7-7,4.1-6.3c1.6,0.2,3.2-0.2,4.8,0.2c1.1,0.2,2.1,1.2,3.2,1.6c1.4,0.7,3,1.9,4.4,1.6c2.5-0.7,4.8-2.3,7.3-3.3
						c0.9-0.5,2.1-0.2,3-0.5c1.4-0.2,2.8-0.2,4.4-0.5c-0.2-1.6-0.2-2.3-0.5-3.3c-0.2-3-0.2-5.2,2.8-4.2c2.3,0.7,4.6,0.7,6.9,1.2
						c0.5,0,0.9,0,1.1,0.2c4.8,6.6,10.3,3.7,15.2,1.2c3.7-1.9,7.3-2.1,11-2.1c2.5,0,4.8,0.5,6.2-4.4c0.5-1.9,3.9-2.6,6-2.8
						c3.4-0.2,7.1-0.9,10.1,2.8c0.7,0.9,2.1,0.9,3,0.9c3.4,0.2,7.1,0.5,10.6,0c2.5-0.2,4.8-1.6,7.3-2.3c1.4-0.5,2.8-0.9,4.1-0.9
						c8.5,0,17.2,0.2,25.7,0.2c11.9,0,23.9,0.2,36,0.2c11.9,0,23.9,0.2,36,0.5c1.1,0,2.8-0.2,3.4,0.7c3.4,4,7.6,3,11.7,3
						c4.1,0,8.3,0.2,12.2,0c1.4,0,3-0.7,4.1-1.9c3-2.6,3.7-2.3,5.3,2.3c0.5,1.2,1.1,2.1,1.6,3.3c0.2-0.5,0.7-0.7,0.9-1.2
						c-0.5-0.9-1.1-2.1-1.6-3c0-0.2,0.2-0.5,0.2-0.9c1.1,0.5,2.3,0.9,3.2,1.4c0.7,2.3,0.9,5.2,2.1,7c1.8,3.3,4.4,6.1,6.4,9.1
						c-0.2,0.5-0.7,1.6-0.9,1.6c-2.5,0.5-5.1,0.9-7.6,1.4c-1.4,0.2-3.4,0-3.9,0.9c-1.8,4.4-4.8,3.5-7.3,3.3c-3.7-0.2-7.8,1.9-10.6-4
						c-0.2-0.7-1.4-0.7-2.1-0.7c-17.7-0.7-35.4-1.6-53-2.3c-6.7-0.2-13.3,0-20-0.2c-4.1-0.2-8-0.9-12.2-1.2c-1.6,0-3,0.5-4.6,0.9
						c-1.6,0.5-3,1.6-4.4,1.6c-10.8,0-21.6-0.2-32.1-0.2c-1.1,0-2.5-0.2-3,0.7c-3,3.7-6.4,3.7-9.9,3.7c-6.7,0-13.1-0.2-19.7,0
						c-2.5,0-4.8,1.2-7.3,1.4c-3.4,0.5-7.3-0.5-9.9,1.6c-6.2,4.9-13.1,4.4-19.7,6.3c-4.8,1.4-9.6,0.2-14.7,2.3
						c-5.3,2.1-11.5,0.7-17.2,0c-2.5-0.2-3.4,0.5-4.4,3.3c-0.7,1.9-2.1,4.7-3,4.7c-4.1,0.5-8.3,1.2-12.2,3.7c-2.5,1.6-5.5,1.4-8.5,3
						c-4.8,2.6-10.8,7-16.1-0.5c-1.1,2.1-2.5,3.5-3.2,5.6c-1.1,4-3,3-5.1,2.3c-0.7-0.2-1.1-0.7-2.3-1.6c1.4,7-1.8,5.6-4.1,5.6
						c-3.9,0-4.4,0.9-3.7,6.3c-2.8,0-5.5,0-8.5,0c-3.7-0.7-7.3-1.2-11.3-1.9c-1.1-0.5-2.5-0.9-3.7-1.2c-2.1-0.2-4.1-1.2-6-0.2
						c-11.3,6.6-22.5,13.8-34,20.6C-98.9,260.3-106.5,264-113.9,268z"/>
					<path class="st7" d="M294.4,188.4c-2.3-3-4.6-5.9-6.4-9.1c-1.1-1.9-1.4-4.7-2.1-7c0.5-1.4,0.9-3,1.6-4.4
						c1.4,1.2,3.4,1.9,4.4,3.7c2.8,4.7,3.2,4.9,6.4,0.7c1.6-2.1,3-4,4.6-6.1c0.9,0,1.8,0,2.5,0c2.1,0.2,3.2,1.9,3.2,4.9
						c-0.2,8.7-7.1,17.8-13.1,17.8C295.1,188.6,294.8,188.4,294.4,188.4z"/>
					<path class="st6" d="M302.9,165.9c-1.6,2.1-3,4.2-4.6,6.1c-3.2,4.2-3.7,3.7-6.4-0.7c-1.1-1.6-3-2.6-4.4-3.7
						c1.8-0.5,3.7-0.9,5.5-1.4c0,4.2,1.1,3.7,2.8,2.3c0.5-0.2,0.9-0.7,1.4-0.9c1.1-0.7,2.5-1.2,3.7-2.1
						C301.5,165,302.2,162.9,302.9,165.9z"/>
					<path class="st8" d="M213.7,222.6c-0.7,0.2-1.2-1.3-1.9-1 M207.5,223.3c-2.8-0.2-5.3-0.9-8-0.9c-12.6-0.2-25-0.5-37.7-0.2
						c-3.4,0-6.9,2.1-10.3,2.8c-1.4,0.2-3.9,0.7-4.4-0.5c-1.4-2.8-3.2-2.6-5.1-2.6c-3.7,0-7.6,0-11.3-0.2c-2.1,0-3.4,0.7-3.7,4
						c-0.2,3.5-1.8,3.7-3.7,3.7c-0.9,0-1.6-0.2-2.5-0.5c-5.5-2.1-11.9,1.6-16.8-4.4c-0.2-0.5-1.1-0.2-1.6-0.2
						c-2.5,0.2-4.8,0.7-7.3,0.7c-3.4-0.2-4.6,2.3-4.4,6.8c0.2,3.5-0.9,4.4-3.2,4.4c-3.7,0-7.6,0.5-11.3,0.7c-0.7,0-1.1,0.9-1.6,1.6
						c-0.9,0-1.6,0-2.5-0.2c-1.6-0.2-3-0.5-4.6-0.7c-1.6,0-3.2,0-4.8-0.2c-11.7-0.9-23.2-1.9-34.9-2.8c-1.6,0.5-2.8,0.7-4.1,0.9l0,0
						c-1.4,0.5-3,0.7-4.4,1.2c-0.7,0.5-1.4,0.9-2.1,1.4c-0.5,0-0.9,0.2-1.4,0.2c-1.8,0.5-3.7,0.7-5.5,1.2c-3.7,1.2-7.6,2.6-11.3,4
						c-0.9-0.7-1.6-1.2-5.3-3.5c-1.4,3,1.6,3,5.1-1.6c-2.5,0-5.1,0-5.1,1.6c3.7,2.3,4.6,3,5.3,3.5c-0.9,1.4-1.8,2.8-2.5,4.2
						c-1.8,0.9-4.1,1.2-5.5,2.6c-2.5,2.3-4.8,1.6-7.3,0.2c-1.4-4.9-4.6-3.5-7.3-3.5c-0.2,0-0.2,0-0.5,0c-2.1-4.2-5.3-3.7-8.3-3.7
						l0,0c-0.5-0.7-0.9-1.2-1.4-1.9c-0.9-1.2-2.1-2.6-3-3.7c2.8,0,5.5,0,8.5,0c-0.7-5.4-0.2-6.3,3.7-6.3c2.3,0,5.5,1.4,4.1-5.6
						c1.1,0.7,1.6,1.4,2.3,1.6c2.1,0.7,3.9,1.6,5.1-2.3c0.5-2.1,2.1-3.5,3.2-5.6c5.3,7.5,11,3,16.1,0.5c3-1.6,6-1.4,8.5-3
						c4.1-2.6,8-3.3,12.2-3.7c1.1-0.2,2.5-2.8,3-4.7c0.9-3,1.8-3.7,4.4-3.3c5.7,0.7,11.7,2.1,17.2,0c5.1-1.9,9.9-0.9,14.7-2.3
						c6.7-1.9,13.5-1.2,19.7-6.3c2.8-2.1,6.7-1.2,9.9-1.6c2.5-0.5,4.8-1.4,7.3-1.4c6.7-0.2,13.1,0.2,19.7,0c3.4,0,7.1,0.2,9.9-3.7
						c0.7-0.9,2.1-0.7,3-0.7c10.8,0,21.6,0.2,32.1,0.2c1.4,0,3-1.2,4.4-1.6c1.6-0.5,3-1.2,4.6-0.9c4.1,0.2,8,0.9,12.2,1.2
						c6.7,0.2,13.3,0,20,0.2c17.7,0.7,35.4,1.6,53,2.3c0.7,0,1.8,0,2.1,0.7c2.8,5.9,6.9,3.7,10.6,4c2.8,0.2,5.5,0.9,7.3-3.3
						c0.5-1.2,2.5-0.7,3.9-0.9c2.5-0.5,5.1-0.7,7.6-1.4c0.5,0,0.7-1.2,0.9-1.6c0.5,0,0.7,0.2,1.1,0.2c0.2,1.6,0.5,3.3,0.7,4.7
						c-2.1,0-4.1-0.2-6,0c-3,0.5-5.3,3.5-4.8,7c0.5,4.2,2.8,4.4,5.1,4.7c2.8,0.2,5.7,0.7,8.5,0.9c3.9,0.2,5.5-1.4,6.4-7.3
						c0.9-0.7,2.1-1.6,3.2-2.3c0.5,0.7,1.1,1.4,2.5,3c0.7-1.9,1.6-3.7,1.6-5.2c-0.5-3,0-5.2,1.6-7c0.2,1.9,0.5,3.5,0.7,5.4
						c0,0.5,0,0.7,0,1.2c-0.2,1.6-1.1,4.4-0.7,4.7c1.1,0.9,2.8,1.2,4.1,1.6c0.5-2.3,0.7-4,0.9-5.6c0.7,2.1,2.1,4,2.3,6.1
						c0.2,2.8,0.5,4.4,2.8,3.3c0.5-0.2,1.4-0.2,1.8,0.2c2.8,3.5,6.2,2.1,9.2,2.3c3,0.2,6-0.5,8,3.7c0.5,0.7,1.6,0.9,2.3,0.9
						c6.7,0.9,13.3,0.7,19.5,3.5c4.4,1.9,8.5,3.5,12.9,4.9c2.3,0.7,4.6,1.9,7.1,2.1c0.7,0,1.6,0,1.8,0.5c2.3,4.4,6,4,9.2,5.4
						c3,1.4,6.2,1.6,9.2,4.7c1.6,1.9,4.6,1.9,7.1,1.6c1.1,0,2.1-2.6,3.2-4c0.5,2.1,0.7,4,1.1,6.1c-0.7,0.7-1.1,1.4-1.8,2.1
						c-0.5-0.5-0.9-0.9-1.6-1.6c0,1.9,0,2.8,0,4c-0.9,1.2-1.6,2.1-2.5,3.3c-1.6-0.5-3.4-0.7-4.6-0.9c-1.6,0.9-3,1.6-4.4,2.6
						c1.4,0.9,2.5,0.9,3.7,0.9c0.9,0.2,2.1,0.7,3,0.9c-1.6,2.1-3.2,4.2-4.8,6.3c-3.7-0.7-7.1-1.4-10.8-1.9c-1.6-1.6-3.4-4.2-4.6,0.7
						c-0.5-0.2-0.7-0.7-1.1-0.9c0,3-0.2,5.9,0,8.7c0.2,4.4,0.7,8.9,1.1,13.3c-0.9,1.2-1.8,2.1-2.5,3.3c-4.4-5.6-8.5-11.5-12.9-17.1
						c0.5-0.5,1.4-0.9,1.4-1.6c0.2-4.4,1.8-2.8,3.4-1.6c0.5-0.9,0.7-1.9,0.9-2.8c0.5-1.6,1.4-4,1.1-4.4c-1.1-1.6-3.2-4.2-3.9-3.7
						c-3.2,2.8-5.1,0-7.1-2.6c-0.9-0.9-2.3-0.9-3.2-1.6c-0.9-0.5-1.8-0.7-2.5-1.2c-1.6-0.7-3-2.1-4.6-2.3c-2.3-0.5-4.8,0.7-7.1-0.2
						c-3.7-1.6-7.1-4.2-10.6-6.3c-0.9-0.5-1.8-0.9-2.8-1.2c-4.1-0.7-9.2,3.5-11.9-4.7c-1.8,1.2-3.7,2.6-5.1,3.5
						c-0.2-3.7-0.2-7.3-0.5-11c-0.7-1.9-1.6-3.5-2.3-5.4c0.2-3.5,0.2-7.5,0.5-11.9c-2.5,0.7-4.6,1.2-6.4,1.6c0,0.5,0,0.7,0,1.2
						c0.7,0.7,1.6,1.4,2.3,1.9c0,2.8,0,5.2,0,7.7c0.2,1.9-4.6-0.2-1.6,4.2c0,9.4-0.5,10.1-5.3,11.9c-2.1-1.6-4.8-2.6-6-5.2
						c-1.4-2.8,2.1-4,2.8-6.3c0.5-2.1,0.9-5.2,0.2-6.6c-0.7-1.4-3-2.3-4.4-1.9c-6,1.9-11.3,5.9-14.5,14c-2.3,0-1.6,2.1-1.6,4.2
						c0,1.2-0.5,2.1-0.9,3.5c-0.9-2.6-1.6-5.2-2.1-5.2c-1.6,0-3.2,0.9-4.8,1.6c-1.1,0.5-2.3,2.3-3.2,2.1c-2.5-0.7-5.5-1.4-7.3-3.7
						c-4.1-4.9-8.7-1.6-12.6-2.6c0.2,2.1,0.5,4,0.9,5.6c-1.1,0-2.3,0.5-3.2-0.2c-3.4-1.9-6.9-4-6.2-10.3c-3.2-2.8-7.3-2.1-9.2-7.3
						c-0.2-0.5-2.1,0.7-2.8,0.7c-0.7,0.7-0.5,0.5-1.1,1.2c-0.7,0.2-0.8,1.6-1.5,2.1c-8.3,5.6-10.3,5.9-14.6,8.5 M136.6,289.8
						c0,0.5,0.2,1,0.2,1.5c1-0.3,2.1-0.7,3.1-1c-0.2-0.5-0.2-1.5-0.3-1.3C138.6,289.1,137.6,289.4,136.6,289.8z M446.1,289.8
						c0.2,0,0.3,0,0.5,0.2c0-0.7,0-1.3,0-2c-0.2,0-0.2,0-0.3,0C446.1,288.6,446.1,289.3,446.1,289.8z"/>
					<path class="st7" d="M305.2,198.9c-0.9,5.9-2.3,7.5-6.4,7.3c-2.8-0.2-5.7-0.7-8.5-0.9c-2.3-0.2-4.6-0.5-5.1-4.7
						c-0.2-3.3,1.8-6.6,4.8-7c2.1-0.2,4.1,0,6,0C299.2,195.2,302.2,197.1,305.2,198.9z"/>
					<path class="st9" d="M216.6,220.4c4.6-2.6,9.2-5.2,13.5-7.5c0.7-0.2,1.4-0.5,2.1-0.7c0,0.2,0,0.5,0,0.7
						c-8.7,13.8-17.4,27.6-25.9,41.4c-6.4,10.5-12.9,21.1-19.3,31.6c-0.7,1.4-0.5,0.9-0.7,1.4c-2.6,1.9-0.5-0.2-6.9-0.7
						c-13.8-4.9-27.8-9.6-41.6-14.3c-12.9-4.4-25.7-8.9-38.8-13.1c-11.7-4-23.4-8-35.1-11.9c-3.9-1.2-7.8-1.9-11.9-2.8
						c-1.1-0.5-2.3-1.2-3.4-1.6c-5.7-1.9-11.5-3.7-17.4-5.4c-0.9-0.9-1.8-1.9-3-2.8c11.7,0.9,23.2,1.9,34.9,2.8
						c1.6,0.2,3.2,0,4.8,0.2c1.6,0.2,3,0.5,4.6,0.7c0.9,0,1.6,0,2.5,0.2c14.5,1.4,28.9,2.8,43.6,4.2c10.1,0.9,20.2,1.4,30.5,2.3
						c4.4,0.5,9,1.4,13.3,1.6c6.9,0.2,13.8,1.6,20.4-3.5c5.1-4,10.8-6.8,16.1-10.3c4.4-2.8,8.5-6.1,12.9-9.1
						c0.7-0.2,1.4-0.7,2.1-0.9C214.8,222.1,215.7,221.4,216.6,220.4z"/>
					<path class="st10" d="M232.6,211.1c0.7,0,6.4-2.8,6.7-2.6c7.6,17.8-5.7-5.4,4.6,9.8c-2.5,1.2-2.8-7.5,6.2,10.3
						c0.9,0.5,2.3,0,3.2,0.2c-0.2-1.6-0.5-3.3-0.9-5.6c3.9,0.9,8.3-2.3,12.6,2.6c1.8,2.3,4.8,2.8,7.3,3.7c0.9,0.2,2.1-1.4,3.2-2.1
						c1.6-0.7,3.2-1.6,4.8-1.6c0.5,0,1.1,2.6,2.1,5.2c0.5-1.4,0.9-2.3,0.9-3.5c0-2.1-0.7-4.2,1.6-4.2c0.5,1.6,0.7,4.2,1.6,5.2
						c6.2,6.6,13.1,11,20.9,10.8c0.9,0,2.3-0.7,2.3-1.6c0.2-1.4,0-3.3-0.5-4.4c-0.5-1.4-1.6-2.6-2.3-4c5.1-1.9,5.3-2.6,5.3-11.9
						c2.5,0.2,5.1,0.5,7.6,0.9c0.2,3.7,0.2,7.3,0.5,11c1.6-1.2,3.2-2.3,5.1-3.5c3,8,8,3.7,11.9,4.7c0.9,0.2,1.8,0.7,2.8,1.2
						c3.4,2.1,6.9,4.9,10.6,6.3c2.1,0.9,4.8,0,7.1,0.2c1.6,0.2,3,1.6,4.6,2.3c0.9,0.5,1.6,0.9,2.5,1.2c1.1,0.5,2.5,0.7,3.2,1.6
						c2.1,2.3,3.9,5.2,7.1,2.6c0.7-0.5,3,2.1,3.9,3.7c0.5,0.7-0.7,3-1.1,4.4c-0.2,0.9-0.7,1.9-0.9,2.8c-1.6-1.2-3.2-2.8-3.4,1.6
						c0,0.5-0.9,1.2-1.4,1.6c-0.5,0-0.7,0-1.1,0c-0.5-0.2-0.7-0.2-1.1-0.5c-0.5,0-1.1-0.5-1.6-0.2c-5.5,1.6-11.3,3.5-16.8,5.4
						c-16.5,3-32.8,6.3-49.4,9.4v0.2c-10.1-2.8-20.2-5.4-30.3-8.2c-1.8-0.5-3.7-1.2-5.5-1.6c-0.5-0.9-0.7-1.9-1.1-2.6
						C254.9,244.8,243.9,228,232.6,211.1z M378.4,279.7c0,0.3,0,0.8,0,1.2c-0.2,0-0.5,0-0.7,0c-0.5,0.5-1.1,1-1.6,1.5
						c0.7,0.3,1.1,0.5,1.8,0.8c0.7,0.2,1.1,0.3,1.8,0.5c-0.3,1-0.7,1.2-0.8,1.2c-1.8-0.2-1.5,2-1.6,3.3c0,0.2,1.1,1,1.8,1.2
						c1.3,0.3,1.6-0.8,1.6-2.5c0-2,0-3.8,0-5.9c0-0.7,0-1.3,0-2c0-1.3,0.5-3.2-1.1-3.3c-0.7,0-1.1,0.3-1.8,0.5
						C378.1,277.3,378.2,278.5,378.4,279.7z"/>
					<path class="st11" d="M218.3,222.3c-4.4,3-8.5,6.3-12.9,9.1c-5.3,3.5-11,6.1-16.1,10.3c-6.1,4.8-8.8,7.3-14.6,7.3
						c-0.9,0-1.7,0.4-2.5,0.8c-3.2,1.8-10.6-0.6-15-1.5c-0.9-0.2-1.9,0-2.7,0.3c-9.7,3.4-19.6-6.5-29.5-7.4
						c-14.5-1.2-28.9-2.8-43.6-4.2c0.5-0.5,1.1-1.4,1.6-1.6c3.7-0.5,7.6-0.9,11.3-0.7c2.3,0,3.4-0.9,3.2-4.4c-0.5-4.4,0.7-7,4.4-6.8
						c2.5,0,4.8-0.5,7.3-0.7c0.5,0,1.1-0.2,1.6,0.2c5.1,6.1,11.3,2.3,16.8,4.4c0.9,0.2,1.6,0.7,2.5,0.5c1.6-0.2,3.4-0.5,3.7-3.7
						c0.2-3,1.6-4,3.7-4c3.7,0,7.6,0,11.3,0.2c1.8,0,3.7-0.2,5.1,2.6c0.7,1.2,3,0.7,4.4,0.5c3.4-0.7,6.9-2.8,10.3-2.8
						c12.6-0.2,25,0,37.7,0.2c2,0,3.9,0.4,5.8,0.7c1.7,0.3,3.4-0.2,4.6-1.4c0.6-0.7,0.8-1.6-0.3-2.5"/>
					<path class="st12" d="M232.6,211.1c11,16.9,22,33.7,33.1,50.6c0.5,0.7,0.9,1.6,1.1,2.6c-0.9,0-1.6,0-2.5-0.2
						c-5.5-1.4-11-3-16.5-4.4c-1.6-0.7-3.2-1.4-4.8-1.9c-1.4-0.5-2.8-1.2-4.1-1.6c2.8,0,5.5,0,7.8,0c-2.8-8.4-5.7-15.9-7.8-24.1
						c-1.6-6.3-4.4-11.2-6.2-16.9c-0.2-0.7-1.1-0.9-1.8-1.2c0-0.2,0-0.5,0-0.7C231.5,212.3,232.1,211.8,232.6,211.1z"/>
					<path class="st7" d="M307.2,229.1c0.9,1.4,1.8,2.6,2.3,4c0.5,1.4,0.7,3,0.5,4.4c-0.2,0.7-1.6,1.6-2.3,1.6
						c-8,0.2-14.7-4.2-20.9-10.8c-0.9-0.9-1.1-3.3-1.6-5.2c3-8.2,8.3-12.2,14.5-14c1.4-0.5,3.7,0.5,4.4,1.9s0.2,4.4-0.2,6.6
						c-0.7,2.3-4.1,3.3-2.8,6.3C302.4,226.6,305.2,227.5,307.2,229.1z"/>
					<path class="st13" d="M230.9,213c0.7,0.5,1.6,0.5,1.8,1.2c2.1,5.6,4.8,10.8,6.2,16.9c2.1,8.2,8.5,16.2,11.3,24.6
						c-2.3,0-6.3,3.4-11.4,0.5c-1.4-0.8-2.8-1-4.4-1.4c-3.2-0.9-6.4-2.3-9.6-3c-1.4-0.2-3.9,0.2-4.1,1.2c-1.8,7-3,14-4.4,21.1
						c-1.4,6.6-3,13.1-4.4,19.9c-0.2,0.7,0,2.1,0.5,2.6c1.6,2.3,3.2,4.4,5.1,6.8c3.2,5.2,6.7,10.5,9.9,15.5
						c17.9,26.9,35.8,53.8,53.7,80.8c0.7,1.2,2.1,1.6,3.2,2.3c1.8,4.2,3.7,8.4,5.5,12.6c-0.2,0.2-0.5,0.5-0.5,0.7
						c-1.1-0.9-2.3-1.9-3.4-3c-9.4-9.1-18.8-18-28-27.2c-18.6-18-37.2-35.8-55.6-53.8c-0.2-0.2-0.5-0.5-0.7-0.7l0,0
						c-0.2-0.2-0.5-0.5-0.7-0.9l0,0c-0.2-1.6-0.2-3.3-0.5-4.7c0-0.2,0-0.7,0-0.9c0.2-1.2,0.5-2.6,0.9-3.7c3-7.3,6-14.3,8.7-21.3
						c0.5-0.9,0-2.6,0-4c-0.9,0.2-2.1,0.2-2.8,0.5c-0.5-0.7-0.9-1.9-1.4-2.1c-3.4-0.9-6.9-1.4-10.3-2.1c-1.8-0.5-3.4-1.2-5.3-1.9
						c0,0-0.2,0.7-0.5,1.4c-1.6-0.2-3.2-0.5-4.8-0.9c0-0.9,0-2.3,0-3.7c6.4-10.5,12.9-21.1,19.3-31.6
						C213.5,240.6,222.2,226.8,230.9,213z"/>
					<path class="st12" d="M201.5,328.4c-0.5-0.5-0.7-0.9-1.1-1.4c-3.7-9.1-7.1-18.3-10.8-27.4c-1.1-3.3-2.8-6.1-3.9-9.4
						c-0.5-1.2,0-2.6,0-4c0.2-0.5,0.5-0.9,0.7-1.4c0,1.4,0,2.8,0,3.7c1.6,0.2,3.4-0.9,5.3-0.5c0.2-0.5,0,0,0,0
						c1.8,0.7,3.4,1.4,5.3,1.9c3.4,0.7,6.9,1.4,10.3,2.1c0.5,0.2,0.9,1.4,1.4,2.1c0.7-0.2,1.8-0.2,2.8-0.5c0,1.4,0.2,3,0,4
						c-2.8,7.3-6,14.3-8.7,21.3c-0.5,1.2-0.7,2.6-0.9,3.7l0,0c-0.2,0.2-0.5,0.2-0.7,0.5c0.2,0.2,0.5,0.2,0.7,0.5l0,0
						c0.2,1.6,0.2,3.3,0.5,4.7C202,328.7,201.8,328.7,201.5,328.4z"/>
					<path class="st14" d="M149.5,361.1c-18.4-17.9-17-6.4-37.2-27c-6.7-6.8-13.4-13.6-20.1-20.7c-0.4-0.4-0.7-1.1-0.7-1.7
						c0-2.6,1.1-5.5-0.5-7.2c-0.6-0.7-0.8-1.7-0.4-2.6c0,0,0,0,0,0c0.6-1.2,0-2.7-1.3-3.2c-0.3-0.1-0.6-0.2-0.9-0.2
						c-0.9-0.2-1.8,0-3,0c-2.3,0.2-4.5,0.2-4.2-3.1c0-0.6-0.2-1.2-0.6-1.7c-1.3-1.4-2.2-2.5-3.2-3.9c-1.2-1.9-2-2.7-2.7-2.2
						c-1.1,0.8-2.5,0.4-3.1-0.8c-1.1-2.2-2.6-3.6-5.2-3.3c-0.5,0-1.1-0.9-1.6-1.6c-0.9-1.2-1.8-2.6-2.8-4c-0.5-0.7-0.9-1.4-0.9-2.1
						c-0.2-2.6,0.5-5.4-2.5-5.4c-1.6,0-3.4-0.5-5.1-1.2c-0.9-0.5-2.5-1.4-2.5-2.3c-0.2-3.7-0.2-7.7,0-11.5c0-1.2,0.9-2.3,1.8-3
						c1.4-1.1,4.6,0.4,6.8,2.7c1,1,2.7,1,3.5-0.2c0.8-1.1,1.8-1.4,3-0.3c0.7,0.6,1.3,1.9,1.9,3.2c0.5,1.1,0,2.4-1.1,3
						c0,0-0.1,0-0.1,0c-1.1,0.5-1.5,1.9-1.1,3c0.2,0.5,0.4,0.8,0.6,0.8c2.5-0.2,5.5,2.3,7.8-1.4l0,0c0.9,1.1,2.7,1.1,2.6,2.9
						c-0.1,1.4,1,2.7,2.4,2.5c2-0.2,3.7-0.9,5.3-2.4c0.7-0.7,1.7-0.9,2.5-0.5c1.6,0.7,3.1,1.5,4.5,2.4c23.8,14.5,49.4,34,73.5,41.7
						c0.1,0,0.3,0.1,0.4,0.2c3.5,2,4.1,1.1,5.3,2"/>
					<path class="st15" d="M214.6,294.9c-0.4-3.6-0.3-1.6,0.2-5.6c0-0.3,0.3-2.1,0.4-2.4l0.7-4.9c0.1-0.2,0.1-0.4,0.1-0.7
						c0.5-3.2,1.5-8.2,2.3-11.5c1.4-7,1.5-7.7,3.1-14.4c0.2-0.9,2.8-1.4,4.1-1.2c3.2,0.7,6.4,2.1,9.6,3c1,0.3,2.2,0.3,3.4,0.4
						c0.7,0,1.4,0.2,2.1,0.4c0.8,0.3,1.7,0.7,2.5,1.1c0.4,0.1,0.7,0.3,1.1,0.5c0.7,0.4,1.8,0.9,3,1.4c0.4,0.2,0.8,0.2,1.3,0.3
						c7.7,1.1,3.6,21.5,6.1,31.6c0.1,1.8,0.3,3.6,0.4,5.4c-0.4,2.5-1.5,3.7-4,3.2c-5.1-0.9-10.3-1.6-15.4-1.9
						c-4.6-0.2-9.6,12.1-13.6,6.6"/>
					<path class="st10" d="M63.5,353.3c6.1-13.2,12.2-26.4,18.3-39.6c0.6-1.5,0.8-2.9,1.2-4.3l-0.2,0.1c0.3-0.4,0.5-0.5,0.7-0.8
						c5.7-5.5,11.2-11,17-16.3c5.7-5.5,11.9-10.6,17.9-15.9c1.1-1,2.4-1.5,3.8-2.3c-0.3,1.1-0.3,2.4-0.8,3.6
						c-13.4,30.7-12.8,42.3-26.3,73.3"/>
					<path class="st16" d="M240.8,344.4c-0.3,0.2-0.8,0.3-1,0.3c-9.7-0.6-35.6,1.7-45.3,1.1c-18.7-6.5-32.5-5.6-33.3-9.4
						c4.2-3.6,5-4.6,9.4-7.9c2.7-2.2,5.7-4.3,8.4-6.5c8.3,3.1,16.6,6.1,24.7,9.2c10.3,3.7,20.6,7.2,30.9,10.9
						C236.9,342.9,238.8,343.8,240.8,344.4z"/>
				</g>
			</g>
			<g>
				<path id="SVGID_2_" class="st17" d="M175.9,341c-9.9-2.7-15.4,0.2-16.3-9.8c-0.2-4-3.4-7.7-5.7-11.2c-4.1-5.9-6.9-12.2-7.8-19.2
					c-1.6-10.1-4.6-19.2-10.3-27.6c-4.6-6.8-6-14.7-1.4-21.5c14-20.6,3.9-37.7-7.6-53.4c-6.2-8.4-9.6-15.5-6.4-26
					c1.6-5.2,1.4-8.7-0.2-11c-1.1-1.6-3-2.3-4.4-2.8c-2.5-0.9-4.1-0.7-6.9-0.9c0,0-6.7,1.4-9.6-2.8c-7.1-9.8-14.7-1.6-23.9-2.8
					c-20-2.8-37.4,1.2-56.3-11.2c-6.2-4.2-9-12.2-13.1-18.5c-5.7-8.7-8.5-17.6-2.5-27.9C6,89.8,7.4,84.2,5.8,78.8
					c-3-11.2,2.3-18.7,9.4-26.2c6.7-7,11.7-15.5,21.6-18.5c3.4-0.9,4.6-5.4,5.5-8.9c1.1-4.7,3.9-8.2,7.3-11.2
					c7.6-7,14.5-10.8,26.2-10.3c13.5,0.5,27.8-4,42.2-3.5c11.9,0.5,12.2,0.2,8.5,11.5c-1.6,4.9,1.1,6.6,3.9,7.3
					c9.2,1.6,17,7.3,25.5,10.8c4.8,2.1,9.9,3.3,11.7-4.9c1.1-5.2,5.1-5.4,9.2-3.3c3.2,1.6,6.4,2.8,9.6,3.7c3.4,0.9,6.2,1.2,9,1.2
					c5.7,0.2,6.9-0.9,13.8-1.2c6.9-0.5,10.3-0.5,12.6,1.4c2.8,2.6,3.4,7.3,2.5,14.3c-0.9,6.8,2.3,11.5,5.7,16.4
					c5.3,7.3,10.1,14.5,13.1,23.6c3.2,9.4,11,17.6,17.7,25.3c4.4,5.2,10.6,8.4,13.5,15.2c1.8,4.2,5.7,4.2,9.2,3.5
					c5.3-1.2,10.3-2.8,15.6-4.4c3-0.9,6.4-3.5,8.7-0.5c2.3,2.8,0.5,6.3-0.5,9.6c-4.4,14.7-11.9,27.2-23,37.5
					c-3.7,3.3-7.3,6.3-11,9.6c-18.6,16.9-21.6,27.9-14,52c5.5,17.3,1.6,28.1-13.8,37.2c-7.1,4.2-13.1,8.4-9.2,19.2
					c2.1,5.6,0.7,11.7-6.2,14.7c-2.1,0.9-3.4,3.7-5.1,5.6c-0.7,0.9-1.1,2.3-1.6,3.5C213.8,331.2,200,346.6,175.9,341z"/>
			</g>
		</g>
		<g class="st0">
			<path class="st18" d="M179.1,224.6c0-0.5,0.2-0.8,0.2-1.3c0-1.3,0-2.8,0-4.2c0-0.3,0.2-0.8,0.2-1c1.6-0.2,1.5-1.3,1.6-2.3
				c0.7,0,1.3,0,1.5,0c0.5,0.8,0.8,1.5,1.1,2c0.3,0.5,0.8,0.8,1,1.3c0.2,0.5,0.2,1,0,1.5c-0.2,1.3,0.2,2,2.1,2c2,0,1.8-1,1.8-2
				c0-1.2,0-2.2,0-3.3c0-0.3,0.5-0.5,0.7-0.8c0.3,0.2,0.7,0.5,0.8,0.8c0.2,0.5,0.2,1.2,0.2,1.5c0.8-0.5,1.6-0.8,2.5-1.3
				c0.3-0.2,0.5-0.7,0.5-1.2c0-1.2,0-2.5,0-3.8c1,0,1.6,0,2.3,0c2.5,0,2.5,0,2.5,2.2c0,1.2,0,2.5,0,3.7c0,0.7-0.3,1.8,1.3,1.8
				c1.5,0,1.1-1,1.1-1.7c0-2.3,0-4.7,0-7.2c0-0.5,0-1,0.2-1.7c1.5,0,2.6,0,3.9,0c0.3,0,1,0.2,1.1,0.5c0.2,1,1.1,1,1.6,0.7
				c0.3-0.2,0.7-0.8,0.7-1.3c0-1.3-0.2-2.7-0.3-4.2c0,0-0.3-0.2-0.8-0.3c1.8-1.3,2.1-2.7,1.3-4.5c0.2,0,0.5,0,0.7,0
				c-0.2,1.7-0.3,3.3,1.3,4.5c-0.5,0.2-0.7,0.5-1,0.7c0.2,0,0.3,0,0.5,0c0,0.8,0,1.7,0,2.5c0,0.7-0.2,1.3-0.2,2
				c0,0.3,0.5,0.8,0.7,0.7c1.6-0.2,1.8,0.7,1.6,1.8c-0.2,1.3,0.5,1.7,2,1.7c1.3,0,2.6,0,3.9,0c-0.2,1.5,0.3,2.3,2,2.5
				c0.7-0.3,1.1-0.7,1.8-0.7c1.6,0,3.3,0,4.9,0c1,0,1.3-0.3,1.3-1.2c0-1.3,0-2.8,0-4.2c0-0.5,0.5-1,0.8-1.3c1-1.3,2.5-0.8,3.9-0.7
				c0.2,0.5,0.2,1.2,0.3,1.3c2,0.8,1,2.3,1.3,3.5c0.2,0.7,0.2,1.5,0.2,1.8c2.5-0.3,4.6-0.5,6.7-0.8c0-0.5,0.2-1.2,0.2-1.8
				c0-3,0-5.9,0-8.9c0-1,0.3-1.3,1.6-1.3c2,0,3.9,0,5.9,0c2.1,0,3.4,1.2,3.4,2.8c0,3.8,0,7.7,0,11.5c0,1,0.5,1.3,1.5,1.3
				c1-0.2,2.5,0.5,2.5-1.2c0-1.2,0-2.2,0.2-3.3c0.2-0.7,0.3-1.7,1-2c0.5-0.2,1.5,0.3,2.3,0.7c0.2,0,0.2,0,0.7,0c0-1,0-2,0-3
				c0-0.3,0-1,0.2-1c1.6-0.2,1.3-1.3,1.6-2.2c2.1-0.2,4.1,1.3,4.1,3s0.2,3.2,0,4.9c-0.2,1.3,0.5,1.8,2.1,1.7c1.5-0.2,3,0,4.3,0
				c0.2,0.8,0.3,1.5,0.7,2.7c0.5-0.7,0.7-0.8,0.7-1.2c0.2-1.8,0.5-3.7,0.5-5.5c0-3.3,0-3.3,3.9-3.3c1.1,0,1.6,0.2,1.6,1.3
				c-0.2,1.2-0.2,2.2,0,3.3c0.2,1.7-1,3.7,1.8,4.7c0.5,0.2,0.8,0.3,1.1,0.5c0.2-0.3,0.5-0.7,0.7-1c0-1.7,0-3.3,0.2-5
				c0-0.3,0.5-1,0.7-1c2.3-0.2,4.4,0,6.9,0c0,1.8,0,3.3,0,4.9c0,0.3,0,1,0.2,1c1.8,0.7,1.1,1.8,1.1,2.8c0,1.2,0.3,1.8,2,1.7
				c1.5,0,1.8-0.7,1.6-1.7c0-0.7,0-1.3,0-1.8c-0.2-1.2,0.3-1.7,1.6-1.5c0.7,0,1.3-0.3,2.1-0.5c0.8,0.8,2.3,0.5,3.4,0.3
				c0.2,0,0.5-0.8,0.3-1c-1.5-1.3,0.5-2.3,0.7-3.5c0.3,1,0.8,1.8,0.8,2.8c0,0.8-0.3,1.7-0.2,2.5c0,1.3,1,1.2,2,0.7
				c0.7,1.3,2.5,1.7,3.6,0.7c1-0.8,2.1-0.7,2.5,0.2c0.5,1,1.3,1,2.1,1c1,0,1.8-0.3,2-1.3s0.5-2,0.7-3.2c1,0,2,0,3.3,0
				c0,2.3,0,4.7,0,6.9c0,1.2,0.5,1.5,1.8,1.5c1.3,0,1.8-0.3,1.8-1.5c0-2.5,0-5,0-7.5c0-0.3,0.5-1,0.8-1.2c1.3-0.2,2.6,0,3.9,0
				c0,0.8,0,1.5,0,2.2c0.2,2.3-0.7,4.7,0.8,6.9c0.2,0.3,0.8,0.7,1.1,1c0.3-0.3,0.8-0.7,1-1.2c0.2-0.5,0.2-1.2,0.2-1.8
				c1,0,1.6,0,2.6,0c0,1.8,0,3.5,0,5c0,0.8,0.3,1.3,1.5,1.2c1.5,0,3,0,4.4,0c0,0.5,0,1.2,0,1.7c-49.5,0-99.1,0-148.6,0
				c-0.5,0-1.1-0.2-1.6-0.2"/>
			<path class="st18" d="M177,223c1.6,0,1.3,0.8,1.3,1.7"/>
		</g>
	</g>
	<g id="zULU_1_">
		<g>
			<path class="st19" d="M200.9,122.8c0.2-0.2,0.5-0.2,0.7-0.5c-0.2-0.2-0.5-0.5-0.7-0.5c-0.5-0.2-0.9-0.5-1.4-0.7
				c0.9-0.5,2.1-0.9,3-1.6c0.2-0.2,0.2-0.7,0-0.9c-0.9-1.2-1.8-2.1-3.7-1.6c-0.7,0.2-1.6,0-2.5,0c0-0.9,0.2-1.4,0.2-1.9
				c1.1-0.2,2.1-0.2,3.4-0.5c-2.3-1.4-5.3-1.2-7.3,0.2c-0.7-0.5-1.4-0.9-1.8-1.4c-0.5,0.7-1.1,1.2-1.6,1.9c-0.2,0.2-0.2,0.5-0.2,0.9
				c0,2.6,0,4.9,0.2,7.3c0.2,1.4,0.7,2.8,1.6,3.7c1.4,1.6,3.2,2.8,2.1,5.2c2.5-0.7,4.8-1.4,7.1-1.9c0,0.2,0,0.2,0.2,0.5
				c-0.9,0.2-1.6,0.5-2.5,0.7c-3.4,0.7-6.4,2.1-8.5,4.9c-0.5,0.5-1.1,0.9-1.8,1.2c-1.8,0.7-3.9,1.4-5.7,2.1c-0.2,0-0.7,0.2-0.7,0.5
				c-0.2,0.9-0.7,1.9-0.9,3c0.7,0.2,1.8,0.9,2.8,0.9c0.9,0,1.4,0.5,1.6,0.9c0.2,0.5,0,1.2,0,1.6c-0.5-0.2-0.9-0.5-1.4-0.5
				c-0.7,0-1.6-0.2-1.8,0c-0.7,0.9-1.1,1.9-1.6,2.8c0.2,0,0.5-0.2,0.7-0.2c-0.5-0.2-1.1-0.7-1.6-0.7s-0.7,0.7-0.9,0.9
				c-0.5,0.7-0.5,1.2-0.9,1.9c-0.5-0.9-0.2-2.1-0.5-3c-0.2-0.9-0.9-1.9-1.4-3c1.1-0.2,2.8-0.5,5.1-0.9c-1.6-0.7-2.8-1.4-3.9-1.9
				c1.6-1.4,2.8-2.6,1.1-4.4c0.5,0,0.9,0.2,1.1,0.2c0.2-1.9,0.5-4,0.5-5.9c0-0.5-1.1-1.2-1.8-1.4c-0.5-0.2-1.1-0.2-1.8-0.5
				c-2.3-0.7-5.5-0.2-6.4,1.2c-1.8,1.9-3.7,3.7-5.7,5.9c-0.7-2.3-1.1-4.2-1.8-6.1c-0.5-1.6-0.9-3.3-2.1-4.7c-0.7-0.9-1.1-2.1-1.4-3
				c-0.2-0.5,0.2-1.2,0.5-1.9c0.5-0.7,1.4-5.2,0.7-6.1c0-0.2-0.2-0.2-0.5-0.5c-2.5-1.2-5.1-2.3-7.8-3.7c0.2-0.7,0.5-1.9,0.7-3
				c-0.7,0.2-0.9,0.2-1.1,0.2c-2.1,1.4-4.4,2.1-6.9,0.5c-1.1-0.7-2.8-0.2-3.2,0.9c-0.7,2.1-1.1,4.4-1.8,6.3
				c-0.7,0.2-1.6,0.5-2.5,0.7c-0.2-0.7-0.2-1.4-0.5-1.9c0-0.2,0.2-0.2,0.2-0.5c-0.2,0-0.5,0-0.7,0c-0.9,0.7-1.6,1.4-2.5,1.9
				c-1.4,0.7-2.1,1.6-1.8,3c0.2,1.4-0.5,2.6-2.1,3.5c-2.1,1.4-1.8,3.5,0.7,4.2c-1.4,1.2,0.5,3.5-2.3,4.4c-0.9-1.4-1.8-2.8-3-4.2
				c-0.9-1.2-0.7-2.6-2.3-3.5c-1.4-0.9-2.8-1.6-4.4-1.9c0,0.5,0,0.9-0.2,1.4c-0.5-0.2-0.5-0.2-1.6,0.5c-1.4,0.7-5.5,0.5-6.7-0.5
				c-0.2-0.2-0.5-0.9-0.5-1.2c0.2-0.5,0.7-0.9,1.1-0.9c1.4,0,2.8,0,3.9,0.2c0.5,0,0.7,1.2,1.1,1.6c0,0.2,0.2,0.2,0.9,0.5
				c0-1.2,0.7-2.3,0.2-2.8c-0.9-0.7-2.3-0.9-3.4-1.2c-0.5,0-0.7,0.2-1.1,0.2c-1.6,0.2-2.8-0.5-2.8-1.9c0-0.7,0-1.4,0-1.9
				c0.7-2.8,1.1-5.6,2.1-8.2c0.7-2.3,2.1-4.2,5.1-4.9c0.5,0,0.9-0.7,1.1-0.9c0.2-0.7,0-1.6,0-1.9c1.6-0.7,2.8-1.4,3.7-1.9
				c0-0.2,0-0.2,0-0.5c-1.6,0.5-1.1-2.6-3.4-1.4c-0.5-0.9-0.9-2.1-1.6-3.3c-3.2-0.2-5.5,1.2-6.4,3.7c-0.7,1.9-1.4,3.7-2.3,5.4
				c-1.4,2.3-3.4,4.4-4.6,6.8c-2.1,3.7-3.7,8-5.7,11.7c-1.1,2.1-0.2,3.7,1.4,5.2c1.4,1.2,2.1,2.3,1.8,4c1.4,0.7,2.5,1.2,3.9,1.9
				c-1.4,0.2-2.3,1.6-3.7,0.7c-0.2-0.2-1.4,0.5-1.4,0.7c-0.2,1.4-0.5,2.6-0.2,4c0.2,2.1,2.3,2.8,4.4,3.5c1.6,0.5,2.3,1.4,2.3,2.8
				c0.2,2.3,0.7,4.7,0.9,6.8c4.1,0.5,5.7-0.7,6.7-3.7c0.2-0.7,0.7-1.2,1.1-1.9c0.5-0.9,1.4-1.6,2.5-0.9c0.7,0.5,1.6,1.4,1.8,2.1
				c0.2,0.9-0.2,1.9-0.5,3c-0.7,2.3-1.4,4.9-0.7,7.3c0.2,0.7,0,1.6-0.2,3c0.2,0,0.9,0.2,1.6,0.5c2.5,0.7,5.1,1.2,7.3,2.1
				c3,1.2,3.9,4,6,5.9c0.2,0,0.2,0.2,0.2,0.5c0,2.3,0,4.7,0.2,7c0.2,2.1-1.1,4.4,0.9,6.3c0.2,0.2,0,0.5,0,0.9c-0.2,4-0.2,8-0.5,11.9
				c0,1.9,0.2,3.7-2.1,5.4c-0.7-1.9-1.1-3.5-1.6-5.4c-0.7,0-1.8-0.2-3-0.5c0.2-0.5,0.5-1.2,0.9-1.4c1.6-1.4,1.4-2.8,0.2-4.2
				c-0.7-0.9-0.9-1.9-1.4-3.3c-0.9,0-2.1,0.2-3.7,0.5c0.2-2.3,0.5-4.4,0.7-6.8c-0.7,0.5-0.9,1.2-1.1,1.6c-0.5,0.5-0.9,1.2-1.4,1.2
				c-1.8,0.2-2.5-0.7-1.6-2.3c2.3-3.7,1.4-7.7,1.8-11.7c-0.9,0.5-1.4,1.2-1.8,1.6c-0.7,0.9-1.1,1.4-2.1,0.2c-0.7-1.2-1.8-0.9-3-0.5
				c-0.5,0.2-1.1,0.5-1.6,0.7c0.2-0.2,0.5-0.7,0.9-0.9c-1.4-0.9-2.8-1.6-4.1-2.6c0.2-0.5,1.1-1.6,0.9-1.6c-0.7-0.5-1.8-1.2-2.5-0.9
				c-2.1,0.2-4.1,0-6,1.2c-0.9,0.5-2.1,0.7-3.2,1.2c-0.2,0.2-0.7,0.9-1.4,1.6c-1.6,1.9-3.4,3.7-5.1,5.6c-0.2,0.5,0,1.4,0.5,1.9
				c0.9,1.6,2.1,3.5,3,5.2c0.2,0.2,0,0.7,0,1.2c-0.5,2.3-0.5,2.3,2.5,3c1.1,0.2,2.3,0.7,2.5,1.9c0.5,1.6,0.9,3.3,1.4,4.9
				c1.1,3.7,2.3,7.3,3.4,11c1.1,3.5,0.7,8-5.3,8c-1.1,0-2.3,0.5-3.7,0.7c0.5,0.5,0.7,0.7,0.9,0.7c1.8-0.7,3.2,0,4.8,0.5
				c0.9,0.2,2.3-0.2,3.2-0.5c0,0.2-0.2,0.5-0.2,0.7c0.2,0,0.5,0.2,0.9,0.2l0.2-0.2c-0.2-0.2-0.5-0.5-0.7-0.7
				c-0.5-0.5-1.1-0.9-1.6-1.6c1.8-0.2,3,0,3.9,1.2c0.9,1.2,1.1,2.6,0.9,4c0,0.5,0.2,1.4,0.7,1.6c0.5,0.2,1.8,0.2,2.1-0.2
				c0.5-0.5,0.5-1.4,0.2-2.1c-0.2-1.2-0.7-2.1-1.1-3.3c3.4-0.5,2.5,2.8,4.1,3c-0.9,0.9-1.8,1.6-2.8,2.6c0,0.2,0,0.2-0.2,0.5
				c0.2,0,0.5,0,0.7-0.2c1.8-0.9,3.7-1.9,5.3-3c0.2,0.7,0.5,1.2,0.7,1.9c2.3-1.9,4.6-3,7.8-2.6c4.4,0.7,6.7,7,5.5,9.8
				c-0.2,0.5-0.5,1.2-0.5,1.6c-0.5,2.8-0.9,5.9-1.6,8.7c-0.5,2.1-1.4,4.2-2.1,6.6c-0.9,2.8-1.4,5.9-2.5,8.7
				c-0.9,2.6-0.7,4.9,1.4,6.8c0.2,0.2,0.7,0.7,0.9,0.9c0.9,0.7,1.6,1.2,2.5,1.9c0.5-0.9,0.7-1.6,1.1-2.6c0.7-0.9,1.4-2.3,2.1-2.3
				c2.5-0.2,4.8,0.2,7.6,0.5c-0.2-0.5-0.5-0.9-0.9-1.2c-0.9-0.7-1.8-1.4-2.8-2.1c-2.8-2.1-3-4.9-1.1-7.3c2.1-2.8,3.9-5.9,5.7-8.7
				c1.4-2.1,2.5-4.4,3.7-6.8c0.5-0.9,1.6-1.6,2.8-1.2c1.8,0.9,3.7,1.9,5.3,3.3c1.8,1.6,3.4,3.3,4.6,5.2c0.9,1.6,2.3,2.8,3.9,3.7
				c1.6,0.7,3.2,1.4,5.1,2.1c2.1,0.9,3.9,0.9,6-0.7c-1.1-2.6-2.3-5.2-3.2-7.7c-0.7-1.9-0.7-4-3-5.2c-0.2,0-0.2-0.5-0.5-0.7
				c-1.4-2.8-2.8-5.6-4.1-8.4c-0.2-0.2-0.2-0.7-0.2-0.9c0-2.1,0.2-4.2,0-6.3c-0.2-5.4,0.7-11-1.8-16.4c-0.5-0.9-0.7-2.3-0.2-3.3
				c0.5-1.9,1.6-3.7,2.3-5.6c0.5-1.6,0.7-3.5,0.9-5.4c-0.5,1.6-0.5,3.3,0,4.9c0.2,0.7,1.4,1.4,2.3,1.9c0.7,0.5,1.8,0.2,2.8,0.5
				c0.7-1.4,1.8-2.8,2.5-4.4c0.7-1.4-0.7-3-2.3-3.3h-0.2c0,0,0,0,0,0.2c0,0,0,0,0.2,0.2c0-0.7-0.2-1.2-0.2-1.9
				c1.6,0,2.3-0.9,2.3-2.8c0-3,0.5-6.1,0.2-9.1c0-2.1-0.7-4.4-0.9-6.6c-0.2,0-0.5,0-0.7,0c0,0.9,0.2,1.9,0.2,2.8
				c0.2-0.2,0.5-0.7,0.2-0.9c-1.4-2.6-2.8-5.2-2.8-8c0-0.2-0.9-0.7-1.6-0.9c-1.8-2.1-0.7-4.7,0-7c3.2,0.2,4.1,0.9,5.3,3
				c1.6,2.8,3.2,5.4,5.1,8c0.5,0.5,1.8,1.2,2.3,0.9c1.6-1.2,3.7-2.1,3.9-4.2c0.2-1.9,1.1-3.7,1.8-6.1c0.7,0.9,0.9,1.6,1.4,1.9
				c2.1,0.9,2.8,1.9,2.3,4.2c-0.5,2.8-0.9,5.9-1.4,8.7c-0.2,0.7-0.2,1.4-0.7,2.1c-1.8,3-2.8,6.3-3.7,9.6c-0.2,1.2-0.7,2.3-0.7,3.5
				c0.2,7.3,0.5,14.5,0.7,21.8c0,1.2,0.2,2.6,2.3,2.6c0.5,0,1.1,0.9,1.4,1.4c0.7,2.1,1.1,4.2,1.4,6.3c0.7,4.7,0.5,9.4-0.2,14.3
				c-0.9,4.7-0.2,9.1,2.3,13.6c0.9,1.6,2.5,1.9,4.4,0.9c0.7-0.5,1.1-0.9,1.8-1.2c0.7-0.5,1.8-1.2,2.1-0.9c0.9,0.5,1.8,1.4,1.8,2.1
				c0.2,2.3,0.7,4.9-2.8,6.3c-0.2,0-0.2,0.2-0.5,0.7c1.1,0,1.8,0,2.8,0c2.3,0,4.1,1.6,3.4,3.5c-0.5,1.4-0.2,2.3,1.1,3
				c-0.7,0.2-1.6,0.5-2.3,0.5c0,0.2,0,0.5,0.2,0.5c0.9-0.2,1.8-0.2,2.8-0.5c0.9-0.2,2.1-0.5,3-0.7v-0.2c-0.7,0-1.6,0-3,0
				c3.2-1.4,3.7-3.7,3.7-6.1c-0.2-4.7-0.7-9.6-0.9-14.3c0-2.3-0.2-4.7,0.5-6.8c0.7-2.3,0.5-4.4,0-6.6c-0.2-1.4-0.5-2.8-0.5-4.2
				c0-0.7,0.2-1.9,0.5-1.9c1.1-0.2,2.3-0.2,3.2,0.2c1.4,0.5,2.5,1.4,3.7,2.3c2.3,1.4,3.4,3.7,3.7,5.6c0.2,2.3,0.2,4.4,1.1,6.8
				c0.7,1.6,0.5,3.3,0.9,5.2c0.2-0.5,0.2-0.7,0.2-0.9c0-5.6,0.2-11.2,0-16.9c-0.2-3-1.4-6.3-0.9-9.4c0.5-3.5,0.7-7,1.1-10.5
				c0.2-2.1,0.7-4.2,1.1-6.1c0-0.2,0.2-0.5,0.5-0.5c2.8-0.5,1.8-2.6,2.1-4c0.5-1.9,0.5-3.7,0.7-5.6c0.7,0.5,1.4,1.2,2.8,2.1
				c0.5-1.9,0.9-3,1.1-4.2c0-0.2-0.5-0.7-0.7-0.7c-0.5,0-0.9,0.2-1.1,0.7c-0.2,0.2-0.2,0.7-0.2,0.7c0-0.7-0.5-1.9-0.5-2.8
				c0.2-2.3-3-4.4-0.9-7c0-0.2-0.2-0.5-0.2-0.7c-0.5-1.4-0.9-3-1.4-4.4c0-0.2,0-0.2,0-0.5c0.5,0.5,0.7,0.9,0.9,1.2
				c1.4-0.2,2.8-0.2,4.6-0.5c-1.8-0.9-2.5-2.6-4.8-2.1c0,0,0,0,0.2-0.5c-0.5-0.2-1.1-0.7-1.8-0.9c0-0.5-0.2-0.9-0.2-1.2
				c-0.2,0-0.5,0-0.9,0.2c0.2,0.5,0.2,0.9,0.5,1.6c0,0.5,0,0.9,0,1.9c-0.7,0-2.3,0.2-2.5,0c-1.4-1.9-4.6-2.3-5.1-4.7
				c0-0.2-0.5-0.2-0.7-0.2c1.8-1.4,0.2-2.8,0-4.2c-0.7-3.7-1.6-7.3,0.2-11c1.4-3,2.5-6.1,1.4-9.6c-0.9-2.6-2.1-4.7-4.4-6.8
				c-2.3,1.9-4.4,3.5-6.4,5.2c0.9-0.9,2.1-1.9,0.2-2.6c0.5-0.9,0.7-1.6,0.9-2.1c-1.8-0.7-3.2-1.2-4.4-1.6c0.2,0,0.2-0.2,0.5-0.2
				C200.5,122.6,200.7,122.8,200.9,122.8z M267,254.2c-0.5,0-0.7,0-1.4,0.2c0.7-0.5,1.1-0.9,1.6-1.2c-1.4-4.2-3.2-4.9-8.7-3.3
				c2.8,0.9,5.1,1.9,2.8,4.9c1.4-0.2,2.3-0.5,3.2-0.7c0.2,0.2,0.5,0.7,0.7,1.2c0.7-0.2,1.1-0.5,1.8-0.7c0.5,0,0.9,0,1.1-0.2v-0.2
				C268,253.9,267.5,253.9,267,254.2z M240.2,115.8c0.9,0.2,1.6,0.2,2.8,0.5c0-0.7,0.2-1.2,0.2-1.9c0,0.9,0,1.9,0,3.3
				c1.4,0,3,0.2,4.4,0.2c2.1,0,2.8,0.7,2.3,2.3c0,0.5,0,0.7-0.2,1.2c-3.4,0.7-6.2,3-5.3,6.3c0.2,0.9-0.9,2.1-1.6,3
				c-0.9,0.9-2.3,1.6-3,2.6c-0.7,0.9-1.1,2.1-0.9,3c0.9,3.7,2.3,7.7,3.2,11.5c0.5,1.6,0.5,3.3,0.5,4.9c0,3.3-0.2,6.3-0.5,9.6
				c0,0.7,0,1.4,0.5,1.9c1.8,1.4,1.1,2.8,0.2,4.2c-0.9,1.2-0.9,2.1,0.9,2.3c0.5-0.5,0.9-0.9,1.1-1.6c0.2,0,0.5,0.2,0.7,0.2
				c-0.2,0.5-0.2,1.2-0.5,1.6c-0.5,0.7-0.9,1.4-1.4,2.1c-0.5,0.9-0.9,1.9-1.6,2.6c-0.9,0.9-1.8,1.9-1.8,3.3c0,2.3-0.2,4.7-0.5,7
				c-0.2,2.8-0.9,5.6-0.2,8.4c0.7,2.6,1.1,5.4,0.2,8.2c-0.7,2.1-0.7,4.7,0,6.8c0.9,2.6,2.5,5.2,4.1,7.7c1.1,1.9,2.5,3.7,3.7,5.9
				c2.8,5.2,3.2,10.5,3.7,15.9c0.2,2.8,1.8,4.7,2.5,7.3c2.1-0.9,1.1-2.1,0.5-3c-0.9-1.6-1.1-3.7-0.2-4.9s0.9-2.3,0.9-3.5
				c0.2-1.9,0.2-3.7,0.7-5.6c0.2-0.7,1.4-1.6,1.6-1.6c0.9,0.2,2.1,0.9,2.3,1.6c1.6,3.7,3,7.3,4.4,11c0.9,2.1,1.6,4.2,0.5,6.6
				c3.4,1.4,4.1,2.3,3.4,6.3c0.7-0.2,1.4-0.2,2.1-0.5c0.7,0,1.6,0.2,2.3,0c2.3-0.2,3.2-1.6,3.4-3.5c0-2.6-0.5-3.3-2.5-3.5
				c0-1.2,0-2.6-0.2-4c-0.7-3.7-1.6-7.3-2.1-10.8c-0.5-2.1-0.5-4.4-0.5-6.6c0-1.6,0.9-2.3,2.8-2.1c0.7,0,2.3-0.7,2.3-0.9
				c-0.2-2.1,2.1-4.4-0.5-6.1c0.5,0.5,0.9,0.7,1.4,1.2c0.7-0.9,1.6-1.9,2.1-2.6c0.5,0.5,0.9,1.4,1.4,1.9c0.5,0.5,1.1,0.5,1.8,0.7
				c0-0.7,0.2-1.4,0.2-2.1c0.5-0.2,1.1-0.7,1.6-1.2c0.2-0.2-0.5-0.7-0.7-1.2c0.2,0,0.2,0,0.5,0.2c0.2-1.2,0.5-2.3,0.5-3.5
				c1.6,2.6,1.8-0.9,3-0.5c0.2-0.7,0.2-1.2,0.5-1.9c-0.2,0-0.2,0-0.5,0c0.5,1.2,0.9,2.1,1.4,3c-0.7,0-1.6-0.2-2.5-0.2
				c0,0.7,0,1.4,0,2.1c0.5,2.1,0.9,4.2,1.1,6.3c0.2,4,0.2,8,0.5,11.9c0,0.5,0.2,1.2,0.5,1.6c0.9,1.2,2.1,2.1,3.4,3.5
				c0-1.9,0.2-3.5,0-4.9c-0.2-3.7-0.9-7.5-1.1-11c0-1.6-0.2-3.3-0.9-4.9c-0.2-0.7-0.5-1.2-0.9-1.9c0.2,0.2,0.5,0.5,0.7,0.7
				c1.4,3,1.8,6.6,5.1,8.7l0.2,0.2c0.2,1.6,0.2,3.5,0.7,5.2c0.5,1.9-0.5,4,1.1,4.9c0,1.2,0.2,1.9,0.2,2.1c0,0-0.7-0.2-0.9,0
				c-0.2,0.2-0.7,0.9-0.5,1.2c0.5,1.2,1.1,2.1,1.8,3.3c-1.6,0.9-2.1,1.9-0.9,2.1c1.6,0.5,3.2,0.9,4.8,0.7c1.6,0,2.3-1.2,2.1-2.6
				c-0.2-0.9-0.7-1.6-0.9-2.6c-0.7-1.9-1.8-3.7-2.3-5.6c-0.7-3.3-2.3-6.3-1.8-9.6v-0.2c-0.9-3.5-1.8-7-2.5-10.3
				c-0.5-2.1-0.7-4.2-1.4-6.1c-1.1-3.5-3-6.8-3.9-10.3c-0.7-2.1-2.1-4.4,0.5-7c-1.1-0.2-1.8-0.2-2.3-0.5c-0.5-2.6-0.7-5.2-1.1-8
				c1.1,3.7,1.1,3.7,3.2,3.3c-0.5-2.6-0.9-5.2-1.6-7.7c0.2,0,0.5,0,0.7-0.2c0.5,0.9,0.9,1.6,1.4,2.6c0.7-0.2,1.4-0.2,2.3-0.5
				c-0.9-1.9-1.8-3.7-2.5-5.4c-0.5-1.2-1.1-1.2-2.3-0.7c-0.7,0.2-1.6,0.5-2.8,0.9c1.4-2.6,0-4.7-2.5-5.4c-0.5,2.1-0.9,4.2-1.4,6.3
				c0,0.5,0,0.9,0,1.4c0.2,0,0.2-0.2,0.5-0.2c-0.5-0.7-1.1-1.4-1.8-2.1c0.9-2.6,0.9-2.8-1.8-4.2c-0.5-0.2-0.9-0.5-1.1-0.7
				c-1.6-1.6-4.1-1.6-6.2-2.3c-1.4-0.5-3.4,0.5-4.6,0.7c-0.5,1.2-0.9,2.3-1.4,3c-0.2-0.2-0.2-0.5-0.5-0.7c-1.6-1.2-1.8-2.6-0.7-4
				c0.2-0.5,0.7-0.7,1.1-1.2c-0.7-0.2-1.4-0.5-1.8-0.7c-0.5-0.7-0.9-1.2-1.4-1.9c0.7,0.2,1.1,0.2,2.1,0.5c0-1.6,0.5-3.5-0.2-4.9
				c-0.5-1.4-2.1-2.3-3-3.3c0.9-0.5,2.1-0.9,2.3-1.4c0.2-0.7-0.7-1.4-1.1-2.1c-0.2,0-0.5,0-0.7,0c1.1-2.3,2.3-4.9,3.7-7.3
				c0.2-0.2,0.9-0.5,1.4-0.5c0.7,0.2,1.1,0.7,1.8,0.9c1.8,0.7,3.7,1.4,4.6,3.3c0.5,0.7,1.8,1.2,3,1.9c0.2-0.7,0.5-0.9,0.5-1.2
				c0.9-2.8,0.7-2.8-2.1-4.4c-1.8-1.2-4.4-1.9-4.4-4.7c0-0.9-1.4-1.4-2.8-0.9c-0.5,0.2-0.9,0.5-1.4,0.9c-1.4-2.1-2.8-4-4.1-6.1
				c-1.1,0.2-2.5,0.5-3.9,0.7c1.8-1.2,3.9-1.9,5.5-2.8c1.6-0.9,2.1-2.1,1.4-3.7c-0.7-1.4-0.9-3-3.7-2.8c0.7-0.7,1.1-0.9,1.4-1.4
				c0.7-0.7-0.2-2.3-1.4-2.6c-1.4-0.5-3-0.7-3.2-2.6c0.9,0,1.8-0.2,2.8,0.2c1.1,0.5,2.1,1.2,3,1.6c0.5,0.2,1.1,0.5,1.8,0.7
				c0-0.5,0-1.2-0.2-1.4c-1.1-0.9-2.3-1.6-3.7-2.1c-3.2-1.4-8.7-0.5-11.3,1.4c-0.9,0.7-2.5,0.9-3.9,1.2c-1.4,0.2-1.6-0.5-2.1-1.2
				c-0.2-0.2-0.7-0.2-1.1-0.5c-1.4-1.4-2.3-1.4-3.9,0.7c0-0.5-0.2-0.9,0-0.9c2.3-1.2,0.7-2.6,0.2-3.7c-0.5-1.6-0.9-3.3-1.4-4.7
				c-0.5-0.9-0.9-1.9-1.4-2.8c-0.5-1.2-1.4-2.1-1.4-3.3c-0.2-3-0.2-6.1-0.5-9.1c0-1.2-0.5-2.3-0.9-3.5c0,0,0.5-0.2,0.9-0.5
				c-3-3.5-3-3.5-2.8-4.4c0.7,0.2,1.1,0.7,1.8,0.9c0.2-2.6-0.2-2.8-3.7-2.8c-0.2,0.5-0.7,0.9-0.9,1.4c-1.4,1.9-1.8,3.7-0.9,5.9
				c0.5,0.9,0.5,2.1,0.2,3c-0.5,1.9-1.1,4-1.8,5.9c-0.9,2.3-2.3,4.7-3,7c-1.4,4.4-4.1,8.4-7.3,12.2c-2.5,3-3,5.2-0.5,8.2
				c0,0-0.2,0.2-0.5,0.5c-0.5-1.4-0.9-2.6-1.4-3.7c-2.1,0.7-3,2.8-2.1,4.4c0.9,1.9,1.6,3.7,2.5,5.9c0.5,0.9,0.9,1.6,2.3,0.7
				c0,0,0,0,0-0.2l0,0c0.5,0.5,0.9,0.7,1.6,1.2c1.1-2.1,2.3-4,3-5.9c1.4-3.3,2.3-6.3,3.7-9.6c1.6-3.7,3.2-7.5,5.1-11.2
				c0.2-0.5,0.7-0.7,1.1-0.9c0.2,0.2,0.7,0.7,0.7,0.9c0.5,3.3,2.5,6.3,1.8,9.6c0,0.2,0.2,0.2,0.2,0.5c0.5,0.7,0.9,1.4,1.1,2.1
				c0.7,2.3,1.4,4.9,2.1,7.3c0.2,1.2,0.7,2.3,0.9,3.5c0.2,0.5,0.5,0.9,0.9,1.4c1.8-2.3,3-4.7,5.1-6.1c2.1-1.6,3-3,1.4-5.2
				c-1.4-0.2-2.8-0.2-3.7-0.5C241.1,117.4,240.6,116.7,240.2,115.8L240.2,115.8z M305.8,88.9c0.2,0,0.5,0,0.7,0
				c-0.5-1.4-0.7-2.6-1.1-3.7c-0.5-0.9-0.9-1.6,0.9-1.9c0.5,0,0.9-0.9,1.4-1.4c0,0-0.5-0.7-0.7-0.7c-1.4-0.5-3-0.7-4.4-1.2
				c-1.6-0.5-3.2,0.2-3.2,1.6c0,0.9,0.5,2.1,0.7,3c0.2,0.7,0.5,1.6,0.2,2.3c-1.4,4.2-3.4,8-6.4,11.5c-2.5,3-5.3,5.9-6.7,9.6
				c-0.2,0.9-1.4,1.6-2.3,2.6c-0.9,0.9-2.1,1.6-2.8,2.8c-1.8,2.6-3.7,5.2-6.9,6.8c-1.8,1.2-2.1,2.3-1.8,4.2c0.5,2.1,0.7,4.2-1.4,5.9
				c-0.2,0.2-0.5,0.5-0.2,0.9c0.7,2.3,0.9,4.7,3.4,6.6c0.9,0.5,1.6,1.2,2.5,1.9c0.2-0.5,0.5-1.2,0.7-1.9c0.2-0.9,0-1.9,0.5-2.8
				c1.1-1.9,2.3-4,3.7-5.9c1.6-2.1,1.8-5.2,6-4.9c-0.2-0.7-0.5-1.4-0.7-2.1c2.3,1.6,3.9,1.2,5.7,0c-0.2-0.5-0.5-0.9-0.9-1.6
				c-0.7,0-1.4,0-2.1,0c0-0.5,0-0.7,0-0.9c0.5,0,0.9,0.2,1.4,0.2c0,0,0.5-0.5,0.2-0.7c-0.7-1.2-1.6-2.1-2.3-3
				c1.6,0.5,1.6,0.7,2.5-0.9c0.9-1.6,1.8-3.3,3-4.9c0.5-0.7,1.4-1.2,1.8-1.9c0.9-1.9,1.8-3.7,2.8-5.6c1.8-3.7,3.4-7.5,5.3-11.5
				c0.2-0.5-0.2-0.9-0.5-1.6c-0.5,0.2-0.9,0.5-0.9,0.7C304.5,89.6,305.2,89.4,305.8,88.9z M93.9,212.5c0-0.2,0-0.5-0.2-0.7
				c-0.9,0-1.8,0-2.5,0.2c-0.5,0.2-0.7,0.9-0.7,1.4c0,0.9-0.2,1.6,0.2,2.6c0.2,0.7,1.1,1.6,1.8,1.9c4.1,1.2,8.3,2.1,12.6,2.8
				c3,0.5,5.7,1.9,9,1.4c0.5,0,0.9-0.5,1.1-0.7c0-0.2-0.2-0.7-0.5-0.9c-1.4-0.7-2.8-1.4-4.1-1.9c-4.1-1.6-8.3-3.3-12.4-4.7
				c-1.8-0.5-4.1-0.2-6.2-0.5c0,0.2,0,0.2,0,0.5C92.6,213.4,93.2,213,93.9,212.5z M191,248.8c2.8,0,3.2,0.7,3.7,4.7
				c1.6-0.7,3.7-0.9,3.9-1.9c0.5-1.2-0.5-2.6-0.9-4c-0.2-0.5-1.1-0.9-1.8-1.4c-1.1-0.9-2.3-0.7-3.2,0.2c-0.7,0.5-1.4,1.4-2.1,1.4
				c-3.7,0.5-4.8,2.3-4.4,5.4c0.2,1.4,0.7,1.9,2.1,1.9c1.8,0,3.4-0.2,5.3-0.2c0-0.2,0-0.2,0-0.5c-1.8-0.2-3.7-0.2-5.5-0.5
				c0.5-0.5,0.9-0.5,1.4-0.5s0.9,0,1.4-0.2c0-0.2,0.2-0.2,0.2-0.5c-0.7-0.2-1.4-0.5-2.1-0.7c0.2-0.2,0.5-0.5,0.7-0.7
				c0.5,0.5,1.1,1.2,1.6,1.6c0.2,0.2,0.9,0.5,1.1,0.5c0.5-0.2,0.9-0.5,0.9-0.9C194.3,250.9,193.3,249.7,191,248.8z M274.2,157.5
				c1.1,0.5,1.8,0.9,3,1.2c0.5,0,1.4-0.2,1.4-0.5c0-1.2-0.2-2.6-2.1-2.6c-3.4,0-6.7,0-10.1,0.2c-1.6,0.2-1.8,0.9-0.9,2.1
				c1.4,1.4,7.1,1.4,8.5,0C273.9,157.9,273.9,157.7,274.2,157.5z M138.9,254.6c-2.5-0.9-6.4-0.2-8.3,1.4c-0.5,0.5-0.5,1.2-0.5,1.9
				c0,0.2,0.9,0.5,1.6,0.5c1.6-0.2,3.4-0.5,5.1-0.9C138.2,257,139.2,256,138.9,254.6z M261.5,253c-0.9-0.9-1.4-1.9-2.1-2.1
				c-0.5-0.2-1.8-0.2-2.1,0.2c-0.7,0.7-1.4,1.9-1.4,2.8c0,1.4,0.9,1.6,2.3,0.7c0.2-0.2,0.7-0.2,0.9-0.2
				C259.9,253.9,260.6,253.7,261.5,253z M280.4,163.6c0.2-0.2,0.2-0.2,0.5-0.5c-0.5-0.5-1.1-0.7-1.6-1.2c-0.7-0.5-2.1-0.5-2.5-1.2
				c-0.9-1.2-1.6-0.7-2.8-0.2c-0.9,0.5-1.8,1.4-3,0.2c-0.2-0.2-1.1,0.2-1.6,0.2c0.2,0.5,0.5,1.4,0.9,1.4c0.7,0.2,1.8-0.2,2.5-0.2
				c1.8,0,3.7,0,5.5,0.2C279.2,162.9,279.9,163.3,280.4,163.6z M113.4,218.6c0.9,0.5,1.4,0.9,2.3,1.6c0.5-1.2,0.7-2.3,1.1-3.7
				C115.5,217.2,114.6,217.9,113.4,218.6z M265.4,121.2c0.2,0,0.2,0,0.5,0c0.5-0.7,0.9-1.2,1.1-1.9c0-0.2-0.2-0.9-0.7-1.2
				c-0.2-0.2-0.9-0.2-1.1-0.2c-0.2,0.2-0.5,0.7-0.5,1.2C265,119.8,265.2,120.5,265.4,121.2z M292.8,117c0,0.2,0.2,0.5,0.2,0.9
				c0.9,0,1.8,0.2,2.5,0c0.5-0.2,0.5-1.2,0.7-1.6c-0.2-0.2-0.5-0.2-0.7-0.5C294.6,116,293.7,116.5,292.8,117z M272.1,162.2
				c0.9-0.7,1.8-1.2,2.1-1.6c0-0.5-0.9-0.9-1.4-1.4c-0.7,0.5-1.4,0.9-1.8,1.6C270.7,160.8,271.6,161.2,272.1,162.2z M199.1,253.5
				c0-0.2,0-0.2-0.2-0.5c-0.5,0-0.7,0.2-1.1,0.2v0.2C198.4,253.7,198.9,253.5,199.1,253.5z M307.9,81.2c0,0-0.2,0-0.2,0.2
				c0,0,0,0.2,0.2,0C307.7,81.4,307.9,81.4,307.9,81.2C307.9,81.4,307.9,81.2,307.9,81.2z"/>
			<path class="st20" d="M221.1,158.4c0.7,0.5,1.4,0.7,1.8,0.9c-0.2,0.5-0.2,0.5-0.2,0.5c2.3-0.5,3,1.2,4.8,2.1
				c-1.8,0.2-3,0.2-4.6,0.5c-0.2-0.2-0.5-0.7-0.9-1.2c0,0.2,0,0.5,0,0.5c0.5,1.4,0.9,3,1.4,4.4c0,0.2,0.2,0.5,0.2,0.7
				c-1.8,2.6,1.1,4.7,0.9,7c0,0.9,0.2,2.1,0.5,2.8c0,0,0-0.5,0.2-0.7c0.2-0.2,0.7-0.5,1.1-0.7c0.2,0,0.7,0.5,0.7,0.7
				c-0.2,1.2-0.7,2.6-1.1,4.2c-1.4-0.9-2.1-1.6-2.8-2.1c-0.2,1.6-0.2,3.7-0.7,5.6c-0.2,1.4,0.5,3.5-2.1,4c-0.2,0-0.5,0.2-0.5,0.5
				c-0.5,2.1-0.9,4.2-1.1,6.1c-0.5,3.5-0.7,7-1.1,10.5c-0.5,3.3,0.7,6.3,0.9,9.4c0.2,5.6,0,11.2,0,16.9c0,0.2-0.2,0.5-0.2,0.9
				c-0.2-1.9-0.2-3.7-0.9-5.2c-0.9-2.3-0.9-4.4-1.1-6.8c-0.2-2.1-1.4-4.2-3.7-5.6c-1.1-0.7-2.3-1.6-3.7-2.3
				c-0.9-0.5-2.3-0.2-3.2-0.2c-0.2,0-0.7,1.2-0.5,1.9c0,1.4,0.2,2.8,0.5,4.2c0.5,2.1,0.7,4.2,0,6.6c-0.7,2.1-0.7,4.4-0.5,6.8
				c0.2,4.7,0.5,9.6,0.9,14.3c0.2,2.6-0.5,4.7-3.7,6.1c1.4,0,2.1,0,3,0v0.2c-0.9,0.2-2.1,0.5-3,0.7c-0.2-0.2-0.5-0.5-0.5-0.5
				c-1.4-0.7-1.6-1.6-1.1-3c0.7-1.9-0.9-3.5-3.4-3.5c-0.9,0-1.6,0-2.8,0c0.2-0.5,0.5-0.7,0.5-0.7c3.4-1.2,3-3.7,2.8-6.3
				c0-0.7-0.9-1.6-1.8-2.1c-0.2-0.2-1.4,0.7-2.1,0.9c-0.7,0.5-1.1,0.9-1.8,1.2c-1.6,0.9-3.4,0.7-4.4-0.9c-2.5-4.2-3.2-8.9-2.3-13.6
				s0.9-9.4,0.2-14.3c-0.2-2.1-0.9-4.2-1.4-6.3c-0.2-0.5-0.9-1.4-1.4-1.4c-2.3,0-2.3-1.4-2.3-2.6c-0.2-7.3-0.5-14.5-0.7-21.8
				c0-1.2,0.2-2.3,0.7-3.5c0.9-3.3,1.6-6.6,3.7-9.6c0.5-0.7,0.5-1.4,0.7-2.1c0.5-2.8,0.9-5.9,1.4-8.7c0.5-2.1-0.2-3-2.3-4.2
				c-0.5-0.2-0.7-0.9-1.4-1.9c-0.7,2.1-1.6,4-1.8,6.1c-0.2,2.3-2.3,3-3.9,4.2c-0.2,0.2-1.8-0.5-2.3-0.9c-1.8-2.6-3.7-5.4-5.1-8
				c-1.4-2.3-2.1-3-5.3-3c-0.7,2.3-1.8,4.7,0,7c0.7,0.5,1.6,0.7,1.6,0.9c0.2,2.8,1.4,5.4,2.8,8c0.2,0.2,0,0.7-0.2,0.9
				c0-0.9-0.2-1.9-0.2-2.8c0.2,0,0.5,0,0.7,0c0.5,2.1,0.9,4.4,0.9,6.6c0,3-0.2,6.1-0.2,9.1c0,1.6-0.7,2.6-2.3,2.8
				c0,0.5,0.2,0.9,0.2,1.9c-0.2-0.2-0.2-0.2-0.2-0.2V180c0,0,0,0,0.2,0c1.6,0.2,3,1.9,2.3,3.3c-0.7,1.6-1.8,3-2.5,4.4
				c-0.9-0.2-2.1,0-2.8-0.5c-0.9-0.5-2.1-1.2-2.3-1.9c-0.5-1.6-0.2-3.3,0-4.9c-0.2,1.9-0.5,3.7-0.9,5.4c-0.7,1.9-1.8,3.7-2.3,5.6
				c-0.2,0.9-0.2,2.3,0.2,3.3c2.8,5.4,1.8,10.8,1.8,16.4c0,2.1,0,4.2,0,6.3c0,0.2,0,0.7,0.2,0.9c1.4,2.8,2.8,5.6,4.1,8.4
				c0,0.2,0.2,0.5,0.5,0.7c2.3,1.2,2.3,3.3,3,5.2c0.9,2.6,2.1,5.2,3.2,7.7c-2.1,1.6-3.9,1.6-6,0.7c-1.6-0.7-3.4-1.4-5.1-2.1
				c-1.6-0.9-3-2.1-3.9-3.7c-1.1-1.9-2.8-3.7-4.6-5.2c-1.4-1.4-3.4-2.3-5.3-3.3c-1.1-0.7-2.3,0.2-2.8,1.2c-1.4,2.1-2.3,4.4-3.7,6.8
				c-1.8,3-3.7,5.9-5.7,8.7c-1.8,2.6-1.6,5.2,1.1,7.3c0.9,0.7,1.8,1.4,2.8,2.1c0.5,0.2,0.7,0.7,0.9,1.2c-2.5-0.2-5.1-0.5-7.6-0.5
				c-0.7,0-1.6,1.4-2.1,2.3c-0.5,0.7-0.7,1.6-1.1,2.6c-0.9-0.7-1.6-1.2-2.5-1.9c-0.5-0.2-0.7-0.7-0.9-0.9c-2.1-1.9-2.3-4.4-1.4-6.8
				c1.1-2.8,1.6-5.6,2.5-8.7c0.7-2.1,1.6-4.2,2.1-6.6c0.7-2.8,1.1-5.9,1.6-8.7c0-0.5,0.2-1.2,0.5-1.6c1.1-2.8-1.1-8.9-5.5-9.8
				c-3.2-0.5-5.5,0.5-7.8,2.6c-0.2-0.7-0.5-1.2-0.7-1.9c-1.8,0.9-3.7,1.9-5.3,3c-0.2,0-0.2-0.2-0.5-0.2c0.9-0.9,1.8-1.6,2.8-2.6
				c-1.6-0.5-0.7-3.7-4.1-3c0.5,1.2,0.9,2.1,1.1,3.3c0.2,0.7,0.2,1.6-0.2,2.1c-0.2,0.5-1.6,0.5-2.1,0.2c-0.5-0.2-0.7-1.2-0.7-1.6
				c0.2-1.4,0-2.8-0.9-4c-0.9-1.2-2.1-1.4-3.9-1.2c0.7,0.7,1.1,1.2,1.6,1.6l0,0c-1.1,0.2-2.3,0.7-3.2,0.5c-1.6-0.5-3.2-1.2-4.8-0.5
				c0,0-0.5-0.2-0.9-0.7c1.4-0.2,2.5-0.9,3.7-0.7c6,0.2,6.4-4.4,5.3-8c-1.1-3.7-2.3-7.3-3.4-11c-0.5-1.6-0.9-3.3-1.4-4.9
				c-0.2-1.2-1.4-1.6-2.5-1.9c-3-0.5-3-0.7-2.5-3c0-0.2,0.2-0.7,0-1.2c-0.9-1.6-2.1-3.5-3-5.2c-0.2-0.7-0.7-1.6-0.5-1.9
				c1.6-1.9,3.2-3.7,5.1-5.6c0.5-0.7,1.1-1.2,1.4-1.6c1.4-0.5,2.5-0.7,3.2-1.2c1.8-1.2,3.9-0.9,6-1.2c0.9,0,1.8,0.5,2.5,0.9
				c0.2,0.2-0.7,1.2-0.9,1.6c1.4,0.9,2.8,1.6,4.1,2.6c-0.2,0.2-0.5,0.7-0.9,0.9c0.5-0.2,1.1-0.5,1.6-0.7c1.1-0.5,2.3-0.5,3,0.5
				c0.9,1.2,1.4,0.7,2.1-0.2c0.5-0.7,0.9-1.2,1.8-1.6c-0.5,4,0.5,8-1.8,11.7c-0.9,1.4-0.2,2.3,1.6,2.3c0.5,0,1.1-0.7,1.4-1.2
				c0.5-0.5,0.5-1.2,1.1-1.6c-0.2,2.1-0.5,4.4-0.7,6.8c1.6-0.2,3-0.5,3.7-0.5c0.5,1.4,0.7,2.6,1.4,3.3c1.4,1.6,1.4,2.8-0.2,4.2
				c-0.5,0.5-0.5,0.9-0.9,1.4c1.1,0.2,2.3,0.2,3,0.5c0.5,1.6,1.1,3.5,1.6,5.4c2.3-1.6,1.8-3.5,2.1-5.4c0.2-4,0.2-8,0.5-11.9
				c0-0.2,0.2-0.7,0-0.9c-2.1-1.9-0.7-4.2-0.9-6.3c-0.2-2.3-0.2-4.7-0.2-7c0-0.2,0-0.5-0.2-0.5c-2.1-1.9-3.2-4.7-6-5.9
				c-2.3-0.9-4.8-1.4-7.3-2.1c-0.7-0.2-1.4-0.2-1.6-0.5c0-1.2,0.5-2.1,0.2-3c-0.7-2.6,0-4.9,0.7-7.3c0.2-0.9,0.7-2.1,0.5-3
				c-0.2-0.7-0.9-1.6-1.8-2.1c-1.1-0.5-1.8,0-2.5,0.9c-0.5,0.7-0.9,1.2-1.1,1.9c-0.9,3-2.8,4.2-6.7,3.7c-0.2-2.3-0.7-4.4-0.9-6.8
				c-0.2-1.4-0.7-2.3-2.3-2.8c-1.8-0.7-4.1-1.2-4.4-3.5c-0.2-1.4,0-2.6,0.2-4c0-0.2,1.4-0.7,1.4-0.7c1.6,1.2,2.3-0.5,3.7-0.7
				c-1.6-0.7-2.8-1.2-3.9-1.9c0.5-1.6-0.5-2.8-1.8-4c-1.6-1.4-2.3-3-1.4-5.2c2.1-4,3.7-8,5.7-11.7c1.1-2.3,3.2-4.4,4.6-6.8
				c0.9-1.6,1.6-3.7,2.3-5.4c0.9-2.6,3.2-4,6.4-3.7c0.5,1.2,1.1,2.3,1.6,3.3c2.3-1.2,1.8,1.6,3.4,1.4c0,0.2,0,0.2,0,0.5
				c-1.1,0.5-2.3,1.2-3.7,1.9c0,0.2,0.2,1.2,0,1.9c0,0.5-0.7,0.9-1.1,0.9c-3,0.7-4.4,2.6-5.1,4.9c-0.7,2.8-1.4,5.6-2.1,8.2
				c-0.2,0.7,0,1.4,0,1.9c0,1.4,1.1,2.1,2.8,1.9c0.5,0,0.9-0.2,1.1-0.2c1.1,0.2,2.5,0.5,3.4,1.2c0.5,0.5,0,1.6-0.2,2.8
				c-0.5-0.2-0.7-0.5-0.9-0.5c-0.5-0.7-0.7-1.6-1.1-1.6c-1.4-0.2-2.8-0.2-3.9-0.2c-0.5,0-0.9,0.5-1.1,0.9s0,0.9,0.5,1.2
				c1.1,0.9,5.5,1.2,6.7,0.5c1.1-0.7,1.1-0.7,1.6-0.5c0-0.5,0-0.9,0.2-1.4c1.8,0.2,3,0.7,4.4,1.9c1.6,1.2,1.4,2.6,2.3,3.5
				c1.1,1.4,2.1,2.8,3,4.2c2.8-0.9,0.9-3.3,2.3-4.4c-2.5-0.7-3-2.8-0.7-4.2c1.4-0.9,2.1-1.9,2.1-3.5c0-1.4,0.5-2.3,1.8-3
				c0.9-0.5,1.8-1.2,2.5-1.9c0.2,0,0.2,0.2,0.5,0.2c0.2,0.7,0.2,1.4,0.5,1.9c1.1-0.2,1.8-0.5,2.5-0.7c0.5-2.1,0.9-4.2,1.8-6.3
				c0.5-1.2,2.1-1.6,3.2-0.9c2.5,1.6,4.6,0.9,6.9-0.5c0.2,0,0.5,0,1.1-0.2c-0.2,1.2-0.5,2.3-0.7,3c2.5,1.2,5.3,2.6,7.8,3.7
				c0.2,0,0.2,0.2,0.5,0.5c0.5,0.7-0.2,5.2-0.7,6.1c-0.5,0.5-0.7,1.2-0.5,1.9c0.2,1.2,0.7,2.1,1.4,3c0.9,1.4,1.4,3,2.1,4.7
				c0.7,1.9,1.1,3.7,1.8,6.1c2.1-2.1,3.9-4,5.7-5.9c1.1-1.2,4.1-1.9,6.4-1.2c0.5,0.2,1.1,0.2,1.8,0.5c0.7,0.5,1.8,0.9,1.8,1.4
				c0,1.9-0.2,4-0.5,5.9c-0.5,0-0.9-0.2-1.1-0.2c1.6,1.9,0.5,3-1.1,4.4c1.1,0.5,2.3,1.2,3.9,1.9c-2.3,0.5-3.9,0.7-5.1,0.9
				c0.7,1.2,1.1,2.1,1.4,3c0.2,0.9,0,2.1,0.5,3c0.2-0.7,0.5-1.4,0.9-1.9c0.2-0.5,0.7-0.9,0.9-0.9c0.5,0,0.9,0.5,1.6,0.7
				c-0.2,0-0.5,0.2-0.7,0.2c0.5-0.9,0.9-1.9,1.6-2.8c0.2-0.2,1.1,0,1.8,0c0.5,0,0.9,0.5,1.4,0.5c0-0.5,0-1.2,0-1.6
				c-0.2-0.5-0.5-0.9-1.6-0.9c-0.9,0-2.1-0.7-2.8-0.9c0.5-1.2,0.7-2.1,0.9-3c0-0.2,0.5-0.5,0.7-0.5c1.8-0.7,3.9-1.4,5.7-2.1
				c0.7-0.2,1.4-0.7,1.8-1.2c1.8-2.8,4.8-4.2,8.5-4.9c0.9-0.2,1.6-0.5,2.5-0.7c0-0.2,0-0.2-0.2-0.5c-2.3,0.7-4.6,1.2-7.1,1.9
				c1.1-2.3-0.7-3.5-2.1-5.2c-0.9-0.9-1.6-2.6-1.6-3.7c-0.2-2.3-0.2-4.9-0.2-7.3c0-0.2,0-0.7,0.2-0.9c0.5-0.7,1.1-1.2,1.6-1.9
				c0.7,0.5,1.4,0.9,1.8,1.4c2.1-1.4,5.1-1.6,7.3-0.2c-1.4,0.2-2.3,0.2-3.4,0.5c0,0.5,0,1.2-0.2,1.9c0.9,0,1.8,0.2,2.5,0
				c2.1-0.5,2.8,0.5,3.7,1.6c0.2,0.2,0.2,0.9,0,0.9c-0.9,0.7-2.1,1.2-3,1.6c0.5,0.2,0.9,0.5,1.4,0.7c-0.2,0.2-0.5,0.2-0.7,0.5
				c-0.2,0-0.5,0.2-0.5,0.2c1.1,0.5,2.5,0.9,4.4,1.6c-0.2,0.5-0.5,1.2-0.9,2.1c1.6,0.7,0.7,1.6-0.2,2.6c2.1-1.6,4.1-3.3,6.4-5.2
				c2.1,2.3,3.4,4.4,4.4,6.8c1.1,3.5,0,6.6-1.4,9.6c-1.8,3.7-0.9,7.5-0.2,11c0.2,1.4,1.8,2.8,0,4.2c0.2,0,0.7,0.2,0.7,0.2
				c0.7,2.3,3.9,2.8,5.1,4.7c0.2,0.2,1.8,0,2.5,0C221.1,159.3,221.1,158.9,221.1,158.4C220.7,158.6,220.9,158.4,221.1,158.4z
				 M134.3,184.6L134.3,184.6L134.3,184.6c0.2,0.2,0.2,0.2,0.5,0.5h-0.2C134.3,185.1,134.3,184.9,134.3,184.6z M175.9,132.7
				C175.7,132.7,175.7,132.7,175.9,132.7c-0.2-0.2,0-0.2,0-0.2V132.7c0.2,0,0.5,0.2,0.9,0.5l0,0
				C176.4,132.9,176.1,132.9,175.9,132.7z M152.5,117.2L152.5,117.2L152.5,117.2c0.5,0.5,0.9,1.2,1.6,1.6c1.1,0.9,2.3,0.7,2.8-0.5
				C155.5,117.9,153.9,117.7,152.5,117.2z M134.3,212c2.5-0.9,5.1-2.1,7.8-3c1.4-0.5,2.3-1.2,1.1-2.6c-0.2-0.2,0-1.2,0-1.6
				s0.5-1.2,0.5-1.6c0.5-2.8,0.9-5.6,1.6-8.4c0.5-2.3,1.1-4.7,1.6-7c0.5-1.9,0.7-4,0.7-6.1c0-0.5,0-1.2-0.2-1.4
				c-1.6-1.6-0.9-3.3-0.2-5.2c-2.3-1.4-3.9-2.1-6.7-2.1c-0.7,0-1.6,0.7-2.1,1.2c-0.7,1.2-1.1,2.6-1.8,3.7c-0.2,0-0.5,0-0.5,0
				c-0.2-0.7-0.5-1.2-0.5-1.9c0,1.9-0.2,3.7-0.7,5.9c0,0.2-0.2,0.7,0,0.7c1.6,2.1,1.8,4.7,1.8,7c0,2.8,0,5.4-0.2,8.2
				c-0.2,2.8-1.1,5.4-1.6,8.2c-0.2,1.4-1.4,3,0,4.7C134.6,211.1,134.3,211.6,134.3,212z M153.6,151.4c0,0,0.5,0,0.9,0
				c0.5,0,0.9-0.2,1.4-0.5c0.2,0.5,0.2,0.9,0.5,1.4c0.2,0.5,0.2,1.2,0.2,1.6c0.5,1.2,0.9,2.1,1.4,3.3c-0.2,0-0.5,0-0.7,0.2
				c0-0.9,0-1.9,0-3c0-1.2,0.2-2.1,2.1-1.9c0.7,0,1.4-0.5,2.3-0.7c-1.6-1.2-3.2-2.1-4.4-3.3c-0.5-0.5-0.2-1.6,0.2-2.1
				c1.1-0.9,2.8-1.6,4.6-2.8c-0.5-0.5-0.9-1.6-1.4-1.6c-2.3-0.2-2.1-1.6-2.1-3.3c0-0.9-0.2-1.9-0.2-2.6c-0.2-1.2-0.5-2.3-0.7-3.5
				c0-0.7,0-1.4,0.2-2.3c-0.2,0-0.5,0-0.7,0c-0.9,0.9-2.1,1.9-3,2.6c-0.5,0.2-1.1,0.5-1.6,0.5c-1.1-0.2-2.1-0.5-3-0.7
				c0.7,1.2,1.4,2.3,2.1,3.7c0.2,0.2,0.5,0.2,0.5,0.5c2.3,1.4,2.3,1.6,0.5,3.3c1.8,0.5,2.8,0.9,1.8,3c-0.5,1.2-0.7,3,1.4,4.2
				c1.1,0.5,0.7,1.2-0.5,1.6c-0.2,0-0.2,0.2-0.2,0.2C155,150,154.3,150.7,153.6,151.4z M196.1,205.2c2.1-1.6,5.3-0.7,9,2.8
				c-0.7-2.1-1.4-4-2.5-5.9c-0.2-0.5-1.6-0.9-2.3-0.9c-2.8,0-3.4,2.1-4.6,3.5c0.2,0.5,0.9,0.7,0.7,0.9c-0.5,0.5-0.9,0.9-1.6,1.4
				c2.1,1.4,4.4,2.8,6.7,4.4c0.2,0,0.7-0.2,1.1-0.5c0.5-0.2,0.9-0.5,1.1-0.9C202.5,208,202.5,208,196.1,205.2z M160.7,166.1
				c-0.2,0.2-0.5,0.5-0.7,0.7c-0.5,1.9-1.1,3.7-3.4,4.7c-0.7,0.2-0.7,1.4-1.1,1.9c0.2,0,0.2,0.2,0.5,0.2c0.7-0.5,1.1-0.7,1.8-1.2
				c0.2-0.2,0.5-0.7,0.5-0.9c0.5,0.2,0.9,0.5,1.1,0.7c0.9,2.1,1.6,4,2.5,6.1C164.4,176,163.7,168.7,160.7,166.1z M139.4,159.1
				c-0.9,1.6-1.6,3-2.5,4.4c1.6-0.5,2.5-1.2,3.2,0.2c0.7-0.2,1.4-0.7,2.3-0.9C143.3,161,140.5,160.8,139.4,159.1z M135.7,147.6
				c0.2-1.9-1.4-2.1-2.3-2.3c-2.8-0.7-6.7,0.9-7.3,2.8c1.1,0,2.5,0,4.1,0C131.6,147.2,133.2,145.5,135.7,147.6z M141.7,150
				c-1.4,1.2-2.5,1.9-3.4,2.6c2.1-0.5,5.1-2.6,5.3,1.6c0.5-0.5,1.1-0.7,1.6-1.2c-0.9-0.7-1.6-1.2-2.1-1.6
				C142.4,150.9,141.9,150.2,141.7,150z M135,251.4c-3.2-2.8-4.1-2.6-6.4-1.4c0,0.5,0,0.9,0,1.4C130.9,251.4,133,251.4,135,251.4z
				 M150.9,197c0-1.4,0.2-3,0.5-4.9c-0.5,0.7-0.7,1.4-1.1,2.1c-0.5,0.7-0.9,1.4-1.4,1.9C149.7,196.6,150.4,197,150.9,197z
				 M200.7,153.5c-0.5,0-0.7,0.2-1.1,0.2c0,0.7,0,1.6,0.5,2.1c0.5,0.5,1.6,0.5,2.3,0.5C201.8,155.4,201.1,154.4,200.7,153.5z
				 M193.8,189.8c1.4-1.2,1.6-2.8,0.2-4.4C194.7,186.7,192,188.1,193.8,189.8z M172.9,137.6c1.4,0.9,0.2,3,3,2.6
				C176.1,138.5,176.1,138.5,172.9,137.6z M164.6,142.7c1.1-0.2,2.5-0.5,4.1-0.7c-0.9-0.5-1.6-0.9-1.8-1.2c-0.9,0.5-1.6,0.7-2.3,0.9
				C164.6,142.3,164.6,142.7,164.6,142.7z M139.4,122.1c0-0.9-0.2-2.3-0.2-3.5C136.2,120.3,140.1,121.2,139.4,122.1z M154.1,161.2
				c0.2-0.5,0.5-0.9,0.5-1.4c-0.2-1.6-0.7-3.3-1.1-4.9c0.2,0,0.5,0,0.7,0c-0.5,1.4-0.9,2.8-1.4,4.2c0.2,0.2,0.7,0.5,1.1,0.9
				c-0.2,0.2-0.5,0.2-0.5,0.2C153.4,160.5,153.6,160.8,154.1,161.2z M124.7,132.4c-1.1-0.5-1.6-0.9-2.5-1.2c0,0.5,0.2,0.9,0.2,1.4
				C123.1,132.7,123.5,132.7,124.7,132.4z M113.9,135.9c0.5-1.9,0.2-1.9-1.4-1.4C113,135,113.2,135.5,113.9,135.9z M201.1,200.1
				c0.2,0.2,0.5,0.2,0.5,0.5c0.2-0.2,0.5-0.5,0.7-0.7c-0.2,0-0.2-0.2-0.5-0.2C201.6,199.6,201.4,199.8,201.1,200.1z M142.6,211.3
				h-0.2c0.2-0.2,0.2-0.5,0.5-0.7C142.6,210.6,142.6,210.9,142.6,211.3z M205.1,209.4h0.2c0,0.2,0,0.5-0.2,0.7h-0.2
				C205.1,209.9,205.1,209.7,205.1,209.4z M168.5,164.7L168.5,164.7c0.2,0.2,0.2,0.5,0.2,0.7c0,0,0,0-0.2,0
				C168.5,165.2,168.5,165,168.5,164.7z"/>
			<path class="st20" d="M243.4,114.2c0.5,0.2,0.9,0.2,1.1,0.5c0.5,0.7,0.9,1.6,2.1,1.2c1.4-0.5,3-0.5,3.9-1.2
				c2.5-2.1,8.3-3,11.3-1.4c1.4,0.7,2.5,1.4,3.7,2.1c0.2,0.2,0.2,0.9,0.2,1.4c-0.7-0.2-1.1-0.2-1.8-0.7c-1.1-0.5-1.8-1.4-3-1.6
				c-0.7-0.2-1.8,0-2.8-0.2c0.2,1.9,1.8,2.3,3.2,2.6c1.1,0.2,2.1,1.9,1.4,2.6c-0.5,0.5-0.7,0.7-1.4,1.4c2.8-0.2,3.2,1.4,3.7,2.8
				c0.7,1.6,0.2,2.8-1.4,3.7c-1.8,0.9-3.7,1.9-5.5,2.8c1.4-0.2,2.8-0.5,3.9-0.7c1.4,2.1,2.8,4,4.1,6.1c0.5-0.5,0.9-0.7,1.4-0.9
				c1.4-0.7,2.8,0,2.8,0.9c0,2.8,2.5,3.5,4.4,4.7c2.8,1.9,2.8,1.6,2.1,4.4c0,0.2-0.2,0.5-0.5,1.2c-1.1-0.7-2.5-1.2-3-1.9
				c-1.1-1.6-2.8-2.6-4.6-3.3c-0.7-0.2-1.1-0.7-1.8-0.9c-0.5,0-1.4,0-1.4,0.5c-1.4,2.3-2.5,4.9-3.7,7.3c0.2,0,0.5,0,0.7,0
				c0.5,0.7,1.1,1.6,1.1,2.1s-1.4,0.9-2.3,1.4c0.9,0.9,2.3,1.9,3,3.3c0.5,1.4,0.2,3.3,0.2,4.9c-0.9-0.2-1.4-0.2-2.1-0.5
				c0.5,0.7,0.9,1.2,1.4,1.9c0.5,0.2,1.1,0.5,1.8,0.7c-0.5,0.5-0.7,0.7-1.1,1.2c-1.1,1.2-0.9,2.8,0.7,4c0.2,0.2,0.5,0.5,0.5,0.7
				c0.5-0.9,0.9-1.9,1.4-3c1.4-0.2,3.2-0.9,4.6-0.7c2.1,0.7,4.6,0.5,6.2,2.3c0.2,0.2,0.7,0.5,1.1,0.7c2.8,1.4,2.8,1.6,1.8,4.2
				c0.7,0.7,1.1,1.4,1.8,2.1c-0.2,0-0.2,0.2-0.5,0.2c0-0.5-0.2-0.9,0-1.4c0.5-2.1,0.9-4.2,1.4-6.3c2.5,0.7,3.9,2.8,2.5,5.4
				c1.1-0.2,2.1-0.5,2.8-0.9c1.1-0.5,1.8-0.5,2.3,0.7c0.7,1.9,1.6,3.5,2.5,5.4c-0.9,0.2-1.6,0.2-2.3,0.5c-0.5-0.9-0.9-1.9-1.4-2.6
				c-0.2,0-0.5,0-0.7,0.2c0.5,2.6,0.9,5.2,1.6,7.7c-2.1,0.5-2.1,0.5-3.2-3.3c0.5,2.6,0.7,5.4,1.1,8c0.5,0,1.1,0.2,2.3,0.5
				c-2.5,2.6-0.9,4.9-0.5,7c0.9,3.5,2.8,6.8,3.9,10.3c0.7,2.1,0.9,4.2,1.4,6.1c0.9,3.5,1.6,7,2.5,10.3c0,0,0.2,0.2,0,0.2
				c-0.7,3.3,0.9,6.6,1.8,9.6c0.5,1.9,1.4,3.7,2.3,5.6c0.2,0.9,0.7,1.6,0.9,2.6c0.2,1.4-0.7,2.6-2.1,2.6c-1.6,0-3.4-0.2-4.8-0.7
				c-1.1-0.5-0.9-1.2,0.9-2.1c-0.7-1.2-1.4-2.1-1.8-3.3c-0.2-0.2,0.2-0.9,0.5-1.2s0.9,0,0.9,0c0-0.5,0-1.2-0.2-2.1
				c-1.6-0.9-0.7-3.3-1.1-4.9c-0.5-1.6-0.5-3.3-0.7-5.2c0,0,0-0.2-0.2-0.2c-3.4-2.1-3.7-5.6-5.1-8.7c-0.2-0.2-0.5-0.5-0.7-0.7
				c0.2,0.7,0.7,1.4,0.9,1.9c0.5,1.6,0.7,3.3,0.9,4.9c0.2,3.7,0.7,7.5,1.1,11c0.2,1.6,0,3,0,4.9c-1.4-1.4-2.5-2.3-3.4-3.5
				c-0.5-0.5-0.5-1.2-0.5-1.6c-0.2-4-0.2-8-0.5-11.9c-0.2-2.1-0.7-4.2-1.1-6.3c-0.2-0.7,0-1.4,0-2.1c0.9,0,1.6,0.2,2.5,0.2
				c-0.5-0.9-0.9-2.1-1.4-3c0.2,0,0.2,0,0.5,0c-0.2,0.7-0.2,1.2-0.5,1.9c-1.1-0.2-1.4,3-3,0.5c-0.2,1.2-0.5,2.3-0.5,3.5
				c-0.2,0-0.2,0-0.5-0.2c0.2,0.5,0.7,1.2,0.7,1.2c-0.5,0.5-1.4,0.9-1.6,1.2c-0.2,0.7-0.2,1.4-0.2,2.1c-0.7-0.2-1.4-0.5-1.8-0.7
				c-0.7-0.7-1.1-1.4-1.4-1.9c-0.7,0.7-1.4,1.6-2.1,2.6c-0.5-0.5-0.9-0.7-1.4-1.2c2.8,1.9,0.5,4,0.5,6.1c0,0.2-1.4,0.9-2.3,0.9
				c-1.8-0.2-3,0.5-2.8,2.1c0,2.1,0.2,4.4,0.5,6.6c0.7,3.7,1.6,7.3,2.1,10.8c0.2,1.2,0.2,2.6,0.2,4c2.3,0.2,2.8,0.9,2.5,3.5
				c0,1.9-0.9,3.3-3.4,3.5c-0.7,0-1.6-0.2-2.3,0c-0.7,0-1.1,0.2-2.1,0.5c0.7-4.2,0-5.2-3.4-6.3c0.9-2.3,0.2-4.4-0.5-6.6
				c-1.4-3.7-2.8-7.5-4.4-11c-0.2-0.7-1.4-1.4-2.3-1.6c-0.5,0-1.6,0.9-1.6,1.6c-0.5,1.9-0.5,3.7-0.7,5.6c-0.2,1.2,0,2.3-0.9,3.5
				c-0.9,1.2-0.7,3.3,0.2,4.9c0.5,0.9,1.6,2.1-0.5,3c-0.7-2.3-2.3-4.4-2.5-7.3c-0.5-5.4-0.9-11-3.7-15.9c-1.1-1.9-2.5-3.7-3.7-5.9
				c-1.4-2.6-3.2-4.9-4.1-7.7c-0.7-2.1-0.7-4.7,0-6.8c0.7-2.8,0.2-5.6-0.2-8.2c-0.7-2.8-0.2-5.6,0.2-8.4c0.2-2.3,0.5-4.7,0.5-7
				c0-1.4,0.7-2.3,1.8-3.3c0.7-0.7,1.1-1.6,1.6-2.6c0.5-0.7,0.9-1.4,1.4-2.1c0.2-0.5,0.2-1.2,0.5-1.6c-0.2,0-0.5-0.2-0.7-0.2
				c-0.5,0.5-0.7,0.9-1.1,1.6c-1.8-0.5-1.8-1.2-0.9-2.3c0.9-1.4,1.6-2.8-0.2-4.2c-0.5-0.5-0.7-1.2-0.5-1.9c0-3.3,0.2-6.3,0.5-9.6
				c0-1.6,0-3.3-0.5-4.9c-0.9-3.7-2.3-7.7-3.2-11.5c-0.2-0.9,0.5-2.1,0.9-3c0.7-0.9,2.3-1.6,3-2.6c0.7-0.9,1.8-2.1,1.6-3
				c-0.9-3.3,1.8-5.6,5.3-6.3c0-0.5,0-0.7,0.2-1.2c0.5-1.6-0.2-2.3-2.3-2.3c-1.4,0-2.8,0-4.4-0.2c0-1.2,0-2.3,0-3.3
				C243.2,114.4,243.4,114.2,243.4,114.2z M266.1,222.3c1.1-0.5,2.1-0.7,3-0.9c-0.2-1.2-0.5-1.9-0.7-2.8c-0.2-1.9-0.9-3.5-3-4.7
				c-0.2,0-0.2-0.7-0.2-0.7c0.5-0.2,0.9-0.2,1.4-0.5c0-0.7,0-1.4,0-1.9c-1.1,0.5-2.3,0.7-3,0.9c0.5,0.2,0.9,0.7,1.4,0.9
				c-0.2,0.2-0.7,0.7-0.9,0.7c-2.5-0.9-3,1.4-4.1,1.9c0.5,0.7,1.6,1.4,1.4,1.6c-0.7,1.2-1.6,2.1-2.3,3c-0.2-0.2-0.5-0.2-0.7-0.5
				c0,0,0,0,0-0.2l0,0c0.7,3,6.2,6.1,9.4,5.6c-1.8-0.9-3.9-1.9-6-2.8c-0.7-0.5-1.6-1.4-1.4-1.9c0.5-0.7,1.4-1.2,2.3-1.9
				c0.2,0.2,0.5,0.2,0.5,0.5c-0.2,0.5-0.5,0.9-0.7,1.4c0.9,0,1.6,0.2,2.3,0c0.5,0,0.9-0.5,1.4-0.7c0,0.5,0.2,1.2,0.2,1.6
				C266.1,221.9,266.1,222.1,266.1,222.3z M257.4,180.4c1.8-0.7,2.5-1.9,2.1-3.7c-0.2-0.5-0.2-1.2,0-1.6c0.7-1.9,1.6-3.5,2.3-5.4
				c-0.2,0-0.5-0.2-0.7-0.2c-0.2,0.2-0.7,0.5-0.7,0.7c-0.7,1.9-1.4,3.7-2.1,5.6c-0.9,2.1-1.6,2.3-3.4,1.2c-0.5,0.5-1.1,0.7-1.4,1.2
				C256.2,177.6,257.2,178.3,257.4,180.4z M294.4,208.7c-3.2-0.7-2.1-2.8-2.5-4.4c-0.7,1.4-1.1,2.3-1.6,3.3
				C291.4,208,291.8,209.9,294.4,208.7z M286.1,204.3c-0.5-1.2-0.9-2.1-1.4-2.8c-0.2,0.5-0.7,1.2-0.9,1.9c0,0.7,0.2,1.4,0.2,2.3
				C284.9,205,285.6,204.5,286.1,204.3z M254,171.3c-0.2-2.1-0.5-2.1-2.1-1.4C252.3,170.4,253,170.8,254,171.3z M255.3,125.9
				C255.3,125.9,255.3,126.1,255.3,125.9c1.4,0,2.8-0.2,4.4-0.5C258.1,125.6,256.7,125.9,255.3,125.9z M251.9,194.5h-0.2
				c-0.5,0.7-0.9,1.6-1.4,2.3h0.2C251,196.1,251.4,195.4,251.9,194.5z M257.4,124.5c0,0,0.2,0,0.2,0.2
				C257.6,124.7,257.6,124.7,257.4,124.5C257.4,124.7,257.4,124.7,257.4,124.5L257.4,124.5z"/>
			<path class="st20" d="M243.2,114.4c0,0.7-0.2,1.2-0.2,1.9c-0.9-0.2-1.8-0.2-2.8-0.5l0,0l0,0c0.5,0.7,1.1,1.6,1.6,2.6
				c1.1,0.2,2.3,0.2,3.7,0.5c1.6,2.1,0.7,3.5-1.4,5.2c-2.1,1.6-3.2,4-5.1,6.1c-0.2-0.5-0.7-0.9-0.9-1.4c-0.5-1.2-0.7-2.3-0.9-3.5
				c-0.7-2.3-1.4-4.9-2.1-7.3c-0.2-0.7-0.7-1.4-1.1-2.1c0-0.2-0.2-0.2-0.2-0.5c0.9-3.5-1.1-6.3-1.8-9.6c0-0.5-0.5-0.7-0.7-0.9
				c-0.5,0.2-0.9,0.7-1.1,0.9c-1.6,3.7-3.4,7.5-5.1,11.2c-1.4,3.3-2.3,6.3-3.7,9.6c-0.9,1.9-1.8,3.7-3,5.9c-0.7-0.5-1.1-0.7-1.6-1.2
				c0.2,0,0.2,0,0,0v0.2c-1.1,0.9-1.8,0.5-2.3-0.7c-0.9-1.9-1.6-4-2.5-5.9c-0.9-1.9,0-3.7,2.1-4.4c0.5,1.2,0.9,2.3,1.4,3.7
				c0.5-0.5,0.5-0.5,0.5-0.5c-2.5-3-2.1-5.2,0.5-8.2c3.2-3.7,6-7.7,7.3-12.2c0.7-2.3,2.1-4.7,3-7c0.7-1.9,1.4-3.7,1.8-5.9
				c0.2-0.9,0.2-2.3-0.2-3c-1.1-2.1-0.7-4,0.9-5.9c0.2-0.5,0.7-0.9,0.9-1.4c3.2-0.2,3.9,0.2,3.7,2.8c-0.7-0.5-1.4-0.7-1.8-0.9
				c-0.2,0.9-0.2,0.9,2.8,4.4c-0.5,0.2-0.9,0.2-0.9,0.5c0.2,1.2,0.7,2.3,0.9,3.5c0.2,3,0.2,6.1,0.5,9.1c0,1.2,0.9,2.1,1.4,3.3
				c0.5,0.9,1.1,1.9,1.4,2.8c0.5,1.6,0.9,3.3,1.4,4.7s2.1,2.6-0.2,3.7c0,0,0,0.5,0,0.9c1.4-1.9,2.3-2.1,3.9-0.7
				C243.4,114.2,243.2,114.4,243.2,114.4z"/>
			<path class="st20" d="M305.8,88.9c-0.7,0.5-1.4,0.7-1.8,0.9c0,0,0.5-0.2,0.9-0.7c0.2,0.5,0.7,1.2,0.5,1.6
				c-1.6,3.7-3.4,7.7-5.3,11.5c-0.9,1.9-1.6,3.7-2.8,5.6c-0.5,0.7-1.4,1.2-1.8,1.9c-1.1,1.6-2.1,3.3-3,4.9c-0.9,1.6-0.9,1.6-2.5,0.9
				c0.7,0.9,1.6,2.1,2.3,3c0,0.2-0.2,0.7-0.2,0.7c-0.5,0-0.9-0.2-1.4-0.2c0,0.2,0,0.5,0,0.9c0.7,0,1.4,0,2.1,0
				c0.2,0.5,0.7,0.9,0.9,1.6c-1.6,1.4-3.4,1.9-5.7,0c0.2,0.9,0.5,1.4,0.7,2.1c-4.4-0.2-4.6,2.8-6,4.9c-1.4,1.9-2.5,3.7-3.7,5.9
				c-0.5,0.7-0.2,1.9-0.5,2.8c-0.2,0.7-0.5,1.2-0.7,1.9c-0.9-0.7-1.6-1.2-2.5-1.9c-2.3-1.6-2.5-4.2-3.4-6.6c0-0.2,0-0.7,0.2-0.9
				c2.1-1.6,1.8-3.7,1.4-5.9c-0.2-1.6-0.2-3,1.8-4.2c3-1.6,5.1-4.2,6.9-6.8c0.7-0.9,1.8-1.9,2.8-2.8c0.9-0.7,2.1-1.6,2.3-2.6
				c1.4-3.7,4.1-6.6,6.7-9.6c3-3.5,5.1-7.3,6.4-11.5c0.2-0.7-0.2-1.6-0.2-2.3c-0.2-0.9-0.7-2.1-0.7-3c0-1.4,1.6-2.1,3.2-1.6
				c1.4,0.5,3,0.7,4.4,1.2c0.2,0,0.7,0.7,0.7,0.7c-0.5,0.5-0.7,1.4-1.4,1.4c-1.8,0.2-1.4,0.7-0.9,1.9c0.7,1.2,0.7,2.6,1.1,3.7
				C306.3,88.9,306.1,88.9,305.8,88.9z"/>
			<path class="st20" d="M93.9,212.5c-0.7,0.5-1.1,0.9-1.8,1.4c0-0.2,0-0.2,0-0.5c2.1,0.2,4.4,0,6.2,0.5c4.4,1.4,8.3,3,12.4,4.7
				c1.4,0.5,2.8,1.2,4.1,1.9c0.2,0.2,0.7,0.7,0.5,0.9c-0.2,0.2-0.7,0.7-1.1,0.7c-3.2,0.5-6-0.7-9-1.4c-4.1-0.7-8.5-1.9-12.6-2.8
				c-0.7-0.2-1.4-1.2-1.8-1.9c-0.2-0.7-0.2-1.6-0.2-2.6c0-0.5,0.2-1.2,0.7-1.4c0.7-0.2,1.6-0.2,2.5-0.2
				C93.7,212,93.7,212.3,93.9,212.5z"/>
			<path class="st20" d="M191,248.8c2.3,0.9,3.2,2.1,2.8,4c0,0.5-0.7,0.7-0.9,0.9c-0.2,0-0.9-0.2-1.1-0.5c-0.7-0.5-1.1-0.9-1.6-1.6
				c-0.2,0.2-0.5,0.5-0.7,0.7c0.7,0.2,1.4,0.5,2.1,0.7c0,0.2-0.2,0.2-0.2,0.5c-0.5,0-0.9,0-1.4,0.2c-0.5,0-0.9,0-1.4,0.5
				c1.8,0.2,3.7,0.2,5.5,0.5c0,0.2,0,0.2,0,0.5c-1.8,0-3.4,0.2-5.3,0.2c-1.4,0-1.8-0.5-2.1-1.9c-0.5-3,0.7-4.9,4.4-5.4
				c0.7,0,1.4-0.9,2.1-1.4c1.1-0.9,2.1-1.2,3.2-0.2c0.7,0.5,1.6,0.9,1.8,1.4c0.5,1.2,1.4,2.8,0.9,4c-0.5,0.9-2.5,1.2-3.9,1.9
				C194.3,249.5,193.8,249,191,248.8z"/>
			<path class="st20" d="M274.2,157.5c0,0.2,0,0.5-0.2,0.7c-1.4,1.4-7.3,1.4-8.5,0c-0.9-1.2-0.7-1.9,0.9-2.1
				c3.4-0.2,6.7-0.2,10.1-0.2c1.8,0,2.1,1.4,2.1,2.6c0,0.2-0.9,0.7-1.4,0.5C276,158.6,275.1,157.9,274.2,157.5z"/>
			<path class="st20" d="M138.9,254.6c0.2,1.4-0.7,2.3-2.1,2.8c-1.6,0.5-3.4,0.7-5.1,0.9c-0.5,0-1.6-0.2-1.6-0.5
				c0-0.7,0-1.4,0.5-1.9C132.3,254.4,136.4,253.7,138.9,254.6z"/>
			<path class="st20" d="M267.3,254.4c-0.7,0.2-1.1,0.5-1.8,0.7c-0.2-0.5-0.5-0.7-0.7-1.2c-0.9,0.2-1.8,0.2-3.2,0.7
				c2.1-3-0.2-4-2.8-4.9c5.5-1.4,7.1-0.7,8.7,3.3c-0.5,0.5-0.9,0.7-1.6,1.2c0.7,0,0.9,0,1.4-0.2C267,254.2,267.3,254.4,267.3,254.4z
				"/>
			<path class="st20" d="M261.5,253c-0.9,0.7-1.6,0.9-2.3,1.4c-0.2,0.2-0.7,0.2-0.9,0.2c-1.4,0.9-2.3,0.7-2.3-0.7
				c0-0.9,0.7-1.9,1.4-2.8c0.2-0.5,1.6-0.5,2.1-0.2C260.2,251.1,260.6,252.1,261.5,253z"/>
			<path class="st20" d="M280.4,163.6c-0.7-0.2-1.1-0.7-1.8-0.9c-1.8-0.2-3.7-0.2-5.5-0.2c-0.9,0-1.8,0.2-2.5,0.2
				c-0.5,0-0.7-0.9-0.9-1.4c0.5,0,1.4-0.5,1.6-0.2c1.1,1.2,2.1,0,3-0.2c1.1-0.5,1.8-0.9,2.8,0.2c0.5,0.5,1.6,0.7,2.5,1.2
				c0.7,0.2,1.1,0.7,1.6,1.2C280.6,163.3,280.6,163.3,280.4,163.6z"/>
			<path class="st20" d="M113.4,218.6c1.1-0.7,2.1-1.4,3.4-2.1c-0.5,1.4-0.7,2.6-1.1,3.7C115.1,219.5,114.4,219,113.4,218.6z"/>
			<path class="st20" d="M265.4,121.2c-0.2-0.7-0.5-1.4-0.5-2.1c0-0.5,0.2-0.7,0.5-1.2c0.2-0.2,0.9,0,1.1,0.2
				c0.2,0.2,0.7,0.9,0.7,1.2c-0.2,0.7-0.7,1.2-1.1,1.9C265.7,121.2,265.7,121.2,265.4,121.2z"/>
			<path class="st20" d="M292.8,117c0.9-0.5,1.8-0.9,2.8-1.2c0.2,0.2,0.5,0.2,0.7,0.5c-0.2,0.5-0.2,1.4-0.7,1.6
				c-0.7,0.2-1.6,0-2.5,0C293,117.4,292.8,117.2,292.8,117z"/>
			<path class="st20" d="M272.1,162.2c-0.7-0.7-1.4-1.4-1.1-1.6c0.5-0.7,1.1-0.9,1.8-1.6c0.5,0.5,1.4,1.2,1.4,1.4
				C273.9,161,273,161.5,272.1,162.2z"/>
			<path class="st20" d="M202.3,252.8c-0.9,0.2-1.8,0.2-2.8,0.5c0-0.2,0-0.5-0.2-0.5c0.7-0.2,1.6-0.5,2.3-0.5
				C201.8,252.5,202.1,252.8,202.3,252.8z"/>
			<path class="st20" d="M220.4,158.9c-0.2-0.5-0.2-0.9-0.5-1.6c0.2,0,0.5,0,0.9-0.2c0,0.5,0.2,0.9,0.2,1.2
				C220.9,158.4,220.7,158.6,220.4,158.9z"/>
			<path class="st20" d="M104,210.9c0.2,0.2,0.5,0.5,0.7,0.7l-0.2,0.2c-0.2,0-0.5-0.2-0.9-0.2C103.8,211.3,103.8,211.1,104,210.9
				L104,210.9z"/>
			<path class="st20" d="M199.1,253.5c-0.5,0-0.7,0-1.1,0v-0.2c0.5,0,0.7-0.2,1.1-0.2C199.1,253.2,199.1,253.5,199.1,253.5z"/>
			<path class="st20" d="M267,254.2c0.5,0,0.9-0.2,1.4-0.2v0.2c-0.5,0-0.9,0-1.1,0.2L267,254.2z"/>
			<path class="st20" d="M200.9,122.8c-0.2-0.2-0.5-0.2-0.7-0.5c0.2-0.2,0.5-0.2,0.7-0.5c0.2,0.2,0.5,0.5,0.7,0.5
				C201.4,122.6,201.1,122.8,200.9,122.8z"/>
			<path class="st20" d="M135.5,114.6c0.2,0,0.5,0,0.7,0c0,0.2-0.2,0.2-0.2,0.5C135.7,114.9,135.5,114.6,135.5,114.6z"/>
			<path class="st20" d="M110.7,216.7c-0.2,0-0.5,0-0.7,0.2c0-0.2,0-0.2,0.2-0.5C110.5,216.5,110.5,216.5,110.7,216.7z"/>
			<path class="st20" d="M307.9,81.2C307.9,81.2,307.9,81.4,307.9,81.2c0,0.2,0,0.2-0.2,0.2c0,0,0,0-0.2,0
				C307.7,81.4,307.7,81.2,307.9,81.2z"/>
			<path class="st20" d="M201.8,122.6c-0.2,0.2-0.5,0.2-0.9,0.5C201.1,122.8,201.4,122.6,201.8,122.6z"/>
			<path class="st19" d="M134.3,212c0-0.5,0.5-0.9,0.2-0.9c-1.4-1.6-0.2-3,0-4.7c0.5-2.8,1.4-5.4,1.6-8.2c0.2-2.8,0.5-5.4,0.2-8.2
				c0-2.3-0.2-4.9-1.8-7c-0.2-0.2,0-0.5,0-0.7c0.2-1.9,0.7-3.7,0.7-5.9c0.2,0.7,0.5,1.2,0.5,1.9c0.2,0,0.5,0,0.5,0
				c0.5-1.2,0.9-2.6,1.8-3.7c0.5-0.7,1.4-1.2,2.1-1.2c2.8,0,4.4,0.5,6.7,2.1c-0.7,1.6-1.4,3.5,0.2,5.2c0.2,0.2,0.2,0.9,0.2,1.4
				c-0.2,2.1-0.5,4-0.7,6.1c-0.5,2.3-1.1,4.7-1.6,7c-0.5,2.8-0.9,5.6-1.6,8.4c0,0.5-0.5,1.2-0.5,1.6s-0.2,1.2,0,1.6
				c1.4,1.4,0.5,1.9-1.1,2.6C139.4,209.9,136.9,210.9,134.3,212z"/>
			<path class="st19" d="M153.6,151.4c0.7-0.7,1.1-1.4,1.8-2.3l0.2-0.2c1.4-0.5,1.6-0.9,0.5-1.6c-2.1-1.2-1.8-3-1.4-4.2
				c0.9-2.1-0.2-2.6-1.8-3c1.8-1.6,1.8-1.9-0.5-3.3c-0.2-0.2-0.5-0.2-0.5-0.5c-0.7-1.2-1.6-2.6-2.1-3.7c0.9,0.2,1.8,0.5,3,0.7
				c0.5,0,1.1,0,1.6-0.5c1.1-0.7,2.1-1.6,3-2.6c0.2,0,0.5,0,0.7,0c0,0.7-0.2,1.4-0.2,2.3c0.2,1.2,0.5,2.3,0.7,3.5
				c0.2,0.9,0.2,1.9,0.2,2.6c0,1.4-0.2,2.8,2.1,3.3c0.7,0,0.9,0.9,1.4,1.6c-1.8,0.9-3.2,1.6-4.6,2.8c-0.5,0.2-0.5,1.6-0.2,2.1
				c1.1,1.2,2.5,1.9,4.4,3.3c-1.1,0.2-1.8,0.7-2.3,0.7c-1.8-0.2-2.1,0.9-2.1,1.9c0,0.9,0,1.9,0,3c0.2,0,0.5,0,0.7-0.2
				c-0.5-1.2-1.1-2.1-1.4-3.3c-0.2-0.5-0.2-1.2-0.2-1.6s-0.2-0.9-0.5-1.4c-0.5,0.2-0.9,0.2-1.4,0.5
				C154.3,151.4,153.9,151.4,153.6,151.4z M160.1,138.3c-1.4-0.9-2.5-1.6-3.4-2.1c0,0-1.1,0.7-1.1,1.2c-0.2,0.9,1.6,2.1,2.8,2.1
				C158.7,139.2,159.1,139,160.1,138.3z"/>
			<path class="st19" d="M196.1,205.2c6.4,2.8,6.4,2.8,7.6,5.2c-0.5,0.2-0.7,0.7-1.1,0.9c-0.5,0.2-0.9,0.5-1.1,0.5
				c-2.3-1.4-4.6-3-6.7-4.4c0.5-0.5,1.1-0.9,1.6-1.4c0,0-0.5-0.5-0.7-0.9c1.1-1.4,1.8-3.5,4.6-3.5c0.9,0,2.1,0.2,2.3,0.9
				c1.1,1.9,1.8,3.7,2.5,5.9C201.4,204.5,198.2,203.6,196.1,205.2z"/>
			<path class="st19" d="M160.7,166.1c3,2.6,3.7,9.8,1.1,12.4c-0.7-2.1-1.6-4-2.5-6.1c-0.2-0.2-0.7-0.5-1.1-0.7
				c-0.2,0.2-0.2,0.7-0.5,0.9c-0.5,0.5-1.1,0.7-1.8,1.2c-0.2,0-0.2-0.2-0.5-0.2c0.5-0.7,0.5-1.6,1.1-1.9c2.1-1.2,3-2.8,3.4-4.7
				C160.3,166.6,160.5,166.4,160.7,166.1z"/>
			<path class="st19" d="M139.4,159.1c1.1,1.6,3.9,1.9,3,3.7c-0.9,0.5-1.6,0.7-2.3,0.9c-0.7-1.4-1.6-0.5-3.2-0.2
				C137.8,162.2,138.5,160.8,139.4,159.1z"/>
			<path class="st19" d="M135.7,147.6c-2.5-2.3-4.1-0.5-5.5,0.5c-1.6,0-3,0-4.1,0c0.7-1.9,4.6-3.5,7.3-2.8
				C134.3,145.5,136.2,145.8,135.7,147.6z"/>
			<path class="st19" d="M141.7,150c0.2,0.5,0.7,0.9,1.4,1.6c0.5,0.5,1.1,0.9,2.1,1.6c-0.5,0.2-0.9,0.7-1.6,1.2
				c-0.5-4.4-3.2-2.1-5.3-1.6C139.2,151.9,140.3,150.9,141.7,150z"/>
			<path class="st19" d="M135,251.4c-2.1,0-4.1,0-6.2,0c0-0.5,0-0.9,0-1.4C130.9,248.8,131.8,248.3,135,251.4z"/>
			<path class="st19" d="M150.9,197c-0.5-0.2-1.1-0.5-2.3-0.9c0.5-0.7,0.9-1.2,1.4-1.9c0.5-0.7,0.9-1.4,1.1-2.1
				C151.1,194,150.9,195.6,150.9,197z"/>
			<path class="st19" d="M200.7,153.5c0.5,0.9,0.9,1.9,1.6,2.8c-0.9-0.2-1.8-0.2-2.3-0.5c-0.5-0.5-0.2-1.4-0.5-2.1
				C200,153.7,200.2,153.7,200.7,153.5z"/>
			<path class="st19" d="M193.8,189.8c-1.8-1.6,0.9-2.8,0.2-4.4C195.4,187,195.2,188.6,193.8,189.8z"/>
			<path class="st19" d="M152.5,117.2c1.4,0.5,3,0.9,4.4,1.2c-0.5,0.9-1.6,1.4-2.8,0.5C153.4,118.4,153.2,117.7,152.5,117.2
				L152.5,117.2z"/>
			<path class="st19" d="M172.9,137.6c3.2,1.2,3.2,1.2,3,2.6C173.1,140.6,174.3,138.5,172.9,137.6z"/>
			<path class="st19" d="M164.6,142.7c0,0,0-0.5-0.2-0.7c0.7-0.2,1.4-0.5,2.3-0.9c0.2,0.2,0.9,0.5,1.8,1.2
				C167.2,142.5,165.8,142.7,164.6,142.7z"/>
			<path class="st19" d="M139.4,122.1c0.5-1.2-3.2-1.9-0.2-3.5C139.4,120,139.4,121.2,139.4,122.1z"/>
			<path class="st19" d="M154.1,161.2c-0.2-0.5-0.7-0.7-0.7-0.9c0,0,0.2-0.2,0.5-0.2c-0.5-0.5-1.1-0.7-1.1-0.9
				c0.5-1.2,0.9-2.8,1.4-4.2c-0.2,0-0.5,0-0.7,0c0.5,1.6,0.9,3.3,1.1,4.9C154.5,160.3,154.1,160.8,154.1,161.2z"/>
			<path class="st19" d="M124.7,132.4c-0.9,0-1.6,0-2.3,0c0-0.5-0.2-0.9-0.2-1.4C123.1,131.7,123.5,132,124.7,132.4z"/>
			<path class="st19" d="M113.9,135.9c-0.7-0.7-0.9-0.9-1.4-1.4C114.1,134.1,114.4,134.1,113.9,135.9z"/>
			<path class="st19" d="M201.1,200.1c0.2-0.2,0.5-0.5,0.9-0.7c0.2,0,0.2,0.2,0.5,0.2c-0.2,0.2-0.5,0.5-0.7,0.7
				C201.4,200.3,201.4,200.1,201.1,200.1z"/>
			<path class="st19" d="M175.9,132.7c0.2,0.2,0.5,0.2,0.7,0.5l0,0C176.4,132.9,176.1,132.9,175.9,132.7L175.9,132.7z"/>
			<path class="st19" d="M142.6,211.3c0-0.2,0-0.5,0-0.7c-0.2,0.2-0.2,0.5-0.5,0.7C142.4,211.1,142.4,211.1,142.6,211.3z"/>
			<path class="st19" d="M205.1,209.4c0,0.2,0,0.5,0,0.7h0.2c0-0.2,0-0.5,0.2-0.7C205.3,209.4,205.1,209.4,205.1,209.4z"/>
			<path class="st19" d="M168.5,164.7c0,0.2,0,0.5,0,0.7c0,0,0,0,0.2,0C168.5,165.2,168.5,165,168.5,164.7L168.5,164.7z"/>
			<path class="st19" d="M134.3,184.6c0,0.2,0.2,0.5,0.2,0.5s0,0,0.2,0C134.6,185.1,134.3,184.9,134.3,184.6L134.3,184.6z"/>
			<path class="st19" d="M175.7,132.7v-0.2C175.7,132.4,175.7,132.4,175.7,132.7L175.7,132.7C175.9,132.7,175.7,132.7,175.7,132.7z"
				/>
			<path class="st19" d="M152.5,117.2L152.5,117.2L152.5,117.2z"/>
			<path class="st19" d="M134.3,184.6h-0.2H134.3z"/>
			<path class="st19" d="M266.1,222.3c0-0.2,0-0.5,0-0.9s0-1.2-0.2-1.6c-0.5,0.2-0.9,0.7-1.4,0.7c-0.7,0-1.4,0-2.3,0
				c0.2-0.5,0.5-0.9,0.7-1.4c-0.2-0.2-0.5-0.2-0.5-0.5c-0.7,0.7-1.8,1.2-2.3,1.9c-0.2,0.5,0.7,1.4,1.4,1.9c2.1,1.2,4.4,2.1,6,2.8
				c-3.2,0.5-8.5-2.6-9.4-5.6l0,0v0.2c0.2,0.2,0.5,0.2,0.7,0.5c0.9-0.9,1.8-2.1,2.3-3c0.2-0.2-0.9-1.2-1.4-1.6
				c1.4-0.5,1.6-2.8,4.1-1.9c0.2,0,0.7-0.5,0.9-0.7c-0.5-0.5-0.9-0.7-1.4-0.9c0.7-0.2,1.8-0.7,3-0.9c0,0.7,0,1.4,0,1.9
				c-0.5,0.2-0.9,0.2-1.4,0.5c-0.2,0,0,0.7,0.2,0.7c2.1,0.9,2.8,2.8,3,4.7c0,0.9,0.5,1.9,0.7,2.8C268.2,221.6,267,221.9,266.1,222.3
				z"/>
			<path class="st19" d="M257.4,180.4c0-2.1-1.1-2.8-3.9-2.6c0.5-0.2,0.9-0.7,1.4-1.2c1.8,1.2,2.8,0.9,3.4-1.2
				c0.7-1.9,1.4-3.7,2.1-5.6c0-0.2,0.5-0.5,0.7-0.7c0.2,0,0.5,0.2,0.7,0.2c-0.7,1.9-1.6,3.5-2.3,5.4c-0.2,0.5-0.2,1.2,0,1.6
				C259.9,178.5,259.2,179.7,257.4,180.4z"/>
			<path class="st19" d="M294.4,208.7c-2.5,1.2-3-0.7-4.1-1.2c0.5-0.9,0.9-1.9,1.6-3.3C292.3,205.9,290.9,208,294.4,208.7z"/>
			<path class="st19" d="M286.1,204.3c-0.5,0.2-1.1,0.7-2.1,1.2c-0.2-0.9-0.5-1.6-0.2-2.3c0-0.7,0.7-1.2,0.9-1.9
				C284.9,202.2,285.6,203.1,286.1,204.3z"/>
			<path class="st19" d="M254,171.3c-0.9-0.5-1.4-0.9-2.1-1.4C253.5,169.2,253.7,169.4,254,171.3z"/>
			<path class="st19" d="M255.3,125.9c1.4-0.2,2.8-0.2,4.4-0.5C258.1,125.6,256.7,125.9,255.3,125.9
				C255.3,126.1,255.3,125.9,255.3,125.9z"/>
			<path class="st19" d="M251.9,194.5c-0.5,0.7-0.9,1.6-1.4,2.3h-0.2c0.5-0.7,0.9-1.6,1.4-2.3H251.9z"/>
			<path class="st19" d="M257.4,124.5L257.4,124.5C257.4,124.7,257.4,124.7,257.4,124.5c0.2,0.2,0.2,0.2,0.2,0.2
				C257.6,124.5,257.6,124.5,257.4,124.5z"/>
			<path class="st19" d="M240.2,115.8L240.2,115.8L240.2,115.8z"/>
			<path class="st20" d="M160.1,138.3c-0.9,0.5-1.4,0.9-1.8,0.9c-1.4,0-3-1.2-2.8-2.1c0-0.5,0.9-1.2,1.1-1.2
				C157.5,136.6,158.7,137.3,160.1,138.3z"/>
		</g>
		<path class="st10" d="M232.6,209.9c6.7,3,11.3,7.3,11.3,7.3l3.7,9.1c0,0,0.2-2.3,1.8,5.9c1.6,8.2,0.7,15,0.7,15"/>
	</g>
	<polygon class="st21" points="185,288.1 207.4,333 161.3,336.3 	"/>
	<polygon class="st22" points="185,299.8 203.6,334.1 166.4,334.1 	"/>
	<rect x="-41.5" y="263" class="st23" width="110.2" height="27.3"/>
	<text transform="matrix(1 0 0 1 -41.4691 280.3864)" class="st0 st24 st25">Jozy Triangle</text>
</g>
<g id="Layer_5">
</g>
<g id="Layer_3">
</g>
</svg>
