<?xml version="1.0" encoding="utf-8"?>
<!-- Generator: Adobe Illustrator 21.0.0, SVG Export Plug-In . SVG Version: 6.00 Build 0)  -->
<svg version="1.1" xmlns="http://www.w3.org/2000/svg" xmlns:xlink="http://www.w3.org/1999/xlink" x="0px" y="0px"
	 viewBox="0 0 155 36.2" style="enable-background:new 0 0 155 36.2;" xml:space="preserve">
<style type="text/css">
	.st0{fill:none;}
	.st1{fill:#FFFFFF;stroke:#000000;stroke-width:0.25;stroke-miterlimit:10;}
	.st2{fill:#CBCCB6;}
	.st3{fill:#B0B19E;}
	.st4{fill:#B3B4A2;}
	.st5{fill:#997A5B;}
	.st6{fill:#B29F7D;}
	.st7{fill:#089061;}
	.st8{fill:#9B865C;}
	.st9{fill:#068057;}
	.st10{fill:#007A4D;}
	.st11{fill:#DE3831;}
	.st12{fill:#204C8C;}
	.st13{fill:#F9BF15;}
	.st14{fill:#FEFEFE;}
	.st15{fill:#261417;}
	.st16{fill:#FFC145;}
	.st17{fill:#282929;}
</style>
<g id="Layer_2">
</g>
<g id="Layer_1">
	<g id="Layer_3">
	</g>
	<g>
		<path class="st0" d="M140.4,19.4c0.1,0,0.2-0.1,0.2-0.1C140.6,19.4,140.5,19.4,140.4,19.4c-0.2,0-0.3,0.2-0.5,0.2
			c-0.3,0-0.6,0-0.8,0c0,0,0,0,0,0c0.3,0,0.6,0,0.9,0C140.1,19.6,140.3,19.5,140.4,19.4z"/>
		<path class="st0" d="M137,24.5c-0.2,0.3-0.3,0.5-0.5,0.8c-0.2,0.2-0.2,0.4,0,0.6C136.7,25.3,136.9,24.9,137,24.5z"/>
		<path class="st0" d="M147.9,15.3c-0.1-0.4-0.2-0.8-0.3-1.2c0-0.1,0-0.2,0.1-0.3c0.1-0.1,0.2-0.2,0.3-0.3c0.1-0.1,0.2-0.2,0.2-0.3
			c-0.1-0.3,0.2-0.6,0.6-0.7c0,0,0-0.1,0-0.1c0-0.1,0-0.2-0.1-0.2c0,0,0,0,0,0c-0.1,0-0.3,0-0.5,0c0,0,0,0,0,0c0,0-0.1,0-0.1,0
			c0-0.1,0-0.2,0-0.3c0,0.1,0,0.1,0,0.2c-0.1,0-0.2,0-0.3,0c0,0.1,0.1,0.1,0.1,0.2c0.1,0,0.2,0,0.3,0c0,0,0,0,0,0c0,0,0,0,0.1,0
			c0.2,0.2,0.1,0.4-0.1,0.5c-0.2,0.2-0.3,0.4-0.5,0.6c0,0,0-0.1-0.1-0.1c0,0,0,0,0,0c0,0-0.1-0.1-0.1-0.1c0-0.1-0.1-0.2-0.1-0.4
			c-0.1-0.2-0.1-0.5-0.2-0.8c0-0.1-0.1-0.1-0.1-0.2c0,0,0,0,0,0c0.1-0.3-0.1-0.7-0.2-1c0,0,0,0,0,0c0,0-0.1,0.1-0.1,0.1
			c-0.2,0.4-0.4,0.8-0.5,1.2c-0.1,0.3-0.2,0.7-0.4,1c-0.1,0.2-0.2,0.4-0.3,0.6c0,0-0.1,0-0.1-0.1c0,0,0,0-0.1,0v0
			c-0.1,0.1-0.2,0.1-0.2,0c0,0,0,0,0,0c0.1,0.3,0,0.6-0.2,0.9c-0.1,0.3-0.1,0.5-0.1,0.8C145.8,15.3,146.8,15.3,147.9,15.3
			C147.9,15.3,147.9,15.3,147.9,15.3z"/>
		<path class="st0" d="M147.6,19.6c-0.7,0-1.4-0.1-2.1-0.1c0,0,0,0,0,0C146.2,19.5,146.9,19.6,147.6,19.6
			C147.6,19.6,147.6,19.6,147.6,19.6z"/>
		<path class="st0" d="M140.9,19.3C140.9,19.3,140.9,19.3,140.9,19.3C140.9,19.3,140.9,19.3,140.9,19.3c0.1,0,0.2,0,0.3,0
			c0,0,0,0,0,0C141.1,19.3,141,19.3,140.9,19.3z"/>
		<path class="st0" d="M136.5,28.1c0,0,0,0.1,0.1,0.1c0,0,0.1,0.1,0.1,0.2L136.5,28.1C136.5,28.2,136.5,28.1,136.5,28.1z"/>
		<path class="st0" d="M139.7,15.1c-0.1,0-0.1,0-0.2,0c0,0,0,0.1,0,0.1c0.2,0,0.3,0,0.5,0C139.9,15.2,139.9,15.1,139.7,15.1z"/>
		<path class="st0" d="M152.8,21.6C152.7,21.6,152.7,21.6,152.8,21.6C152.7,21.7,152.8,21.7,152.8,21.6
			C152.8,21.6,152.8,21.6,152.8,21.6z"/>
		<path class="st0" d="M137.5,30.5c0,0.1,0,0.2,0.1,0.3L137.5,30.5L137.5,30.5z"/>
		<path class="st0" d="M136.1,19.7C136.1,19.7,136.1,19.7,136.1,19.7c-0.2,0.2-0.4,0.2-0.6,0.3c0,0,0,0,0,0
			C135.7,20,135.9,19.9,136.1,19.7z"/>
		<path class="st0" d="M134.6,18.8c0,0,0-0.1,0-0.1C134.6,18.7,134.6,18.7,134.6,18.8z"/>
		<path class="st0" d="M141.4,29.7l-1.2,2.6c0,0,0,0,0,0l-1,2.3c0,0.1,0,0.1,0.1,0.1l2.5-5C141.7,29.9,141.7,29.8,141.4,29.7z"/>
		<path class="st0" d="M133.8,21.9c0,0-0.1,0-0.1,0c0,0.1,0.1,0.2,0.1,0.3c0,0.1,0,0.2,0,0.2c0.1-0.1,0.2-0.2,0.3-0.3
			C134,22.2,134,21.9,133.8,21.9z"/>
		<path class="st0" d="M148,26.7c-0.1,0-0.1,0-0.2-0.1c-0.1,0-0.2,0-0.2-0.1c-0.1-0.1-0.3-0.1-0.5-0.1c-0.3-0.1-0.7-0.2-1-0.3
			c-0.1,0-0.4,0-0.4,0.1c-0.2,0.7-0.3,1.5-0.5,2.2c-0.1,0.7-0.3,1.4-0.5,2.1c0,0.1,0,0.2,0,0.3c0.2,0.2,0.3,0.5,0.5,0.7
			c0.2,0.3,0.3,0.5,0.5,0.8c0-0.1,0.1-0.1,0.1-0.2l0-0.1c0,0,0,0,0-0.1c-0.1,0-0.1-0.1-0.2-0.1l-0.8-1.2c0-0.4,0-0.2,0-0.6
			c0,0,0-0.2,0-0.2l0.1-0.5c0,0,0,0,0-0.1c0-0.3,0.2-0.9,0.2-1.2c0.1-0.7,0.2-0.8,0.3-1.5c0-0.1,0.3-0.1,0.4-0.1
			c0.3,0.1,0.7,0.2,1,0.3c0.1,0,0.2,0,0.4,0c0.1,0,0.2,0,0.2,0c0.1,0,0.2,0.1,0.3,0.1c0,0,0.1,0,0.1,0c0.1,0,0.2,0.1,0.3,0.1
			c0,0,0.1,0,0.1,0c0.1,0,0.1,0,0.2,0.1c0.1,0,0.1-0.1,0.2-0.1c-0.1,0-0.3-0.1-0.4-0.1C148.3,26.8,148.2,26.7,148,26.7z"/>
		<polygon class="st0" points="141.8,29.9 141.8,29.9 141.8,29.9 		"/>
		<path class="st0" d="M148.7,23.5C148.6,23.5,148.6,23.5,148.7,23.5C148.6,23.4,148.6,23.4,148.7,23.5
			C148.6,23.5,148.6,23.5,148.7,23.5z"/>
		<path class="st0" d="M146.9,21.9L146.9,21.9c0.1,0.1,0.1,0.2,0.2,0.3l0,0C147,22.1,147,22,146.9,21.9z"/>
		<path class="st0" d="M148.1,22.5c0,0,0-0.1-0.1-0.1c0,0-0.1,0-0.1-0.1c0,0,0,0,0,0C148,22.4,148.1,22.5,148.1,22.5z"/>
		<path class="st0" d="M152.8,12.6C152.8,12.7,152.8,12.7,152.8,12.6c0.1,0.1,0.1,0.1,0.1,0.1C152.9,12.7,152.9,12.6,152.8,12.6z"/>
		<path class="st1" d="M148.1,11.9C148.1,11.9,148.1,11.9,148.1,11.9c-0.1-0.1-0.1-0.1-0.1-0.1C148.1,11.8,148.1,11.8,148.1,11.9
			C148.2,11.9,148.2,11.9,148.1,11.9c0.1,0,0.1,0,0.1,0c0.1,0,0.3,0,0.4-0.1c0.2-0.2,0.6-0.2,1-0.2c0.1,0,0.3,0,0.4,0.1
			c0.1,0.1,0.3,0.1,0.4,0.2c0,0,0,0.1,0,0.1c0,0-0.1,0-0.1,0c0,0,0,0,0,0c-0.1,0-0.1,0-0.2-0.1c-0.1,0-0.2-0.1-0.3-0.2
			c-0.1,0-0.1,0-0.2,0c0,0.2,0.2,0.2,0.3,0.3c0.1,0,0.2,0.2,0.1,0.3c0,0-0.1,0.1-0.1,0.1c0,0,0,0,0.1,0c0.2,0,0.3,0.2,0.3,0.3
			c0.1,0.2,0,0.3-0.1,0.4c-0.2,0.1-0.3,0.1-0.5,0.2c0.1,0,0.1,0,0.2,0c0,0,0,0,0,0c0,0,0.1,0,0.1,0c0.1,0.2,0.3,0.4,0.4,0.6
			c0,0,0.1,0,0.1,0c0.1,0,0.2,0,0.2,0c0.1,0,0.2,0,0.2,0.1c0,0.3,0.3,0.4,0.5,0.5c0.3,0.2,0.3,0.2,0.2,0.5c0,0,0,0,0,0.1
			c0,0-0.1,0-0.1-0.1c0,0,0,0,0,0c-0.1-0.1-0.3-0.1-0.3-0.2c-0.1-0.2-0.3-0.3-0.5-0.3c-0.1,0-0.1,0-0.1-0.1c0,0-0.1,0-0.1,0
			c-0.1,0.2-0.3,0.5-0.4,0.8c0,0,0,0,0.1,0c0,0,0.1,0.1,0.1,0.1c0.3,0,0.6,0,0.9,0c0.2,0,0.4,0.1,0.6,0.2c0.1,0,0.2,0.1,0.4,0.1
			l1.1,0.2c0.1,0,0.3,0,0.4,0c0.5-0.7,0.9-1.6,1.2-2.5c0-0.1,0-0.1,0.1-0.2c0.1-0.3,0.2-0.5,0-0.8c-0.2-0.2-0.3-0.1-0.6,0
			c-0.1,0-0.1,0.1-0.2,0.1l-0.2,0.1c-0.4,0.1-0.9,0.3-1.3,0.4c-0.1,0.1-0.2,0.3-0.3,0.4c-0.1,0.2-0.3,0.4-0.4,0.6c0,0.1,0,0.2,0,0.3
			c0,0.1,0,0.1-0.1,0.2c-0.1-0.1-0.2-0.1-0.3-0.2c-0.3-0.2-0.3-0.4-0.4-0.7c0,0,0,0,0-0.1c0,0,0-0.1,0-0.1c0.1-0.1,0.2-0.3,0.2-0.4
			c0-0.1,0-0.1,0-0.2c0,0,0-0.1,0-0.1c0-0.1,0-0.1,0-0.2c-0.2-0.4-0.5-0.7-0.9-1c-0.2-0.2-0.4-0.3-0.6-0.5c-0.1-0.1-0.2-0.2-0.3-0.3
			c-0.7-0.7-1.3-1.5-1.7-2.4c-0.3-1-0.9-1.7-1.4-2.4c-0.4-0.5-0.7-1-0.6-1.7c0.1-0.7,0-1.2-0.3-1.4c-0.2-0.2-0.6-0.2-1.3-0.1
			c-0.3,0-0.6,0-0.7,0.1c-0.2,0-0.4,0.1-0.7,0.1c0,0,0,0,0,0c-0.4,0-0.6,0-1-0.1c-0.4-0.1-0.7-0.2-1-0.4c-0.2-0.1-0.4-0.2-0.6-0.1
			c-0.1,0.1-0.2,0.2-0.3,0.4c-0.1,0.3-0.2,0.6-0.4,0.7c-0.3,0.1-0.6,0-0.9-0.1c-0.3-0.1-0.6-0.3-0.9-0.4c-0.6-0.3-1.2-0.6-1.8-0.7
			c-0.2-0.1-0.4-0.2-0.5-0.3c-0.1-0.1-0.1-0.3,0-0.5c0.2-0.5,0.3-0.8,0.2-0.9c-0.1-0.1-0.4-0.1-1-0.2l-0.1,0c-0.8,0-1.6,0.1-2.3,0.2
			c-0.8,0.1-1.5,0.2-2.2,0.2c-1.3,0-2,0.4-2.8,1.1c-0.4,0.4-0.7,0.7-0.8,1.1c-0.1,0.4-0.2,0.9-0.6,1c-0.8,0.2-1.3,0.8-1.8,1.4
			c-0.2,0.2-0.3,0.4-0.5,0.5c-0.8,0.8-1.3,1.6-1,2.7c0.2,0.7-0.1,1.3-0.3,1.7c-0.7,1.2-0.2,2.1,0.3,2.8c0.1,0.2,0.3,0.4,0.4,0.6
			c0.3,0.5,0.6,1,1,1.3c1.4,0.9,2.8,1,4.2,1c0.6,0,1.2,0.1,1.8,0.1c0.3,0,0.7,0,1-0.1c0.6-0.1,1.1-0.3,1.6,0.4c0.1,0,0.2,0,0.3,0
			c0.1,0,0.3,0,0.4-0.1c0.1-0.1,0.1-0.2,0.2-0.2c-0.1,0-0.1,0-0.2,0c0,0,0,0,0,0c0,0,0,0-0.1,0c0-0.2-0.1-0.5-0.1-0.7
			c0-0.1-0.1-0.2-0.2-0.3c-0.2-0.1-0.4-0.1-0.5-0.4c0-0.1,0-0.3,0-0.4c0,0,0.1-0.1,0.1-0.1c0.1,0.1,0.2,0,0.4-0.1
			c-0.1-0.1-0.3-0.1-0.4-0.2c0-0.2,0-0.3-0.2-0.4c-0.2-0.1-0.3-0.3-0.1-0.5c0.2-0.4,0.4-0.8,0.6-1.2c0.1-0.2,0.3-0.5,0.5-0.7
			c0.1-0.2,0.2-0.4,0.2-0.6c0.1-0.3,0.3-0.4,0.7-0.4c0,0,0,0,0,0c0,0,0,0,0.1,0c0,0.1,0.1,0.2,0.2,0.3c0.1,0,0.1,0,0.1,0
			c0.1,0,0.1,0.1,0.2,0.1c0,0,0,0,0,0c0,0,0,0,0,0c0,0,0,0,0.1,0c0,0,0,0,0,0c-0.1,0-0.2,0.1-0.4,0.2c0,0,0,0.1,0,0.2
			c0,0-0.1,0.1-0.1,0.1c-0.3,0.1-0.5,0.3-0.5,0.5c-0.1,0.3-0.1,0.6-0.2,0.9c0,0.1,0,0.1,0,0.2c0,0.1,0,0.1,0.1,0.2c0,0,0.1,0,0.1,0
			c0,0,0.1,0,0.1,0c0.1,0,0.2,0,0.2,0.1c0.1,0,0.2,0,0.2,0.1c0,0,0,0.1,0,0.2c0,0,0.1,0,0.1,0c0,0,0-0.1,0-0.1c0,0,0.1,0,0.1,0
			c0.2,0,0.3,0.1,0.4,0.2c0.2,0.1,0.1,0.3,0.2,0.4c0.1,0.1,0.2,0.3,0.3,0.4c0.2-0.1,0.1-0.3,0.2-0.4c-0.3-0.1-0.3-0.3-0.1-0.4
			c0.2-0.1,0.2-0.2,0.2-0.4c0-0.1,0-0.2,0.2-0.3c0.1,0,0.2-0.1,0.3-0.2c0,0,0,0,0.1,0c0,0,0,0,0,0c0,0,0,0,0,0c0,0,0,0,0,0
			c0,0.1,0,0.1,0,0.2c0.1,0,0.1,0,0.2-0.1c0.1-0.2,0.1-0.4,0.2-0.7c0-0.1,0.2-0.1,0.3-0.1c0.1,0,0.1,0,0.2,0
			c0.1,0.1,0.2,0.1,0.3,0.1c0.1,0,0.2-0.1,0.3-0.1c0,0,0,0,0.1,0c0,0,0,0,0,0c0,0,0,0,0.1,0c0,0.1,0,0.2-0.1,0.3
			c0.3,0.1,0.6,0.3,0.8,0.4c0,0,0,0,0,0c0,0.1,0,0.5-0.1,0.6c0,0-0.1,0.1,0,0.2c0,0.1,0.1,0.2,0.1,0.3c0.1,0.1,0.1,0.3,0.2,0.5
			c0.1,0.2,0.1,0.4,0.2,0.6c0.2-0.2,0.4-0.4,0.6-0.6c0.1-0.1,0.3-0.2,0.5-0.1c0.1,0,0.2,0,0.2,0c0,0,0.1,0,0.2,0
			c0.1,0,0.2,0.1,0.2,0.1c0,0.2,0,0.4,0,0.6c0,0-0.1,0-0.1,0c0,0,0,0,0,0c0,0,0,0,0,0c0.2,0.2,0,0.3-0.1,0.4c0.1,0,0.2,0.1,0.4,0.2
			c-0.2,0-0.4,0.1-0.5,0.1c0.1,0.1,0.1,0.2,0.1,0.3c0.1,0,0.3,0,0.4,0c0,0,0-0.1,0.1-0.1c0,0,0.1,0,0.1,0c0,0,0.1,0,0.1,0
			c0,0,0.1,0,0.1,0c0,0,0-0.1,0-0.1c0,0-0.1-0.1-0.2-0.1c-0.1,0-0.2-0.1-0.3-0.1c0-0.1,0.1-0.2,0.1-0.3c0,0,0,0,0.1,0
			c0.2-0.1,0.4-0.1,0.6-0.2c0.1,0,0.1-0.1,0.2-0.1c0.2-0.3,0.5-0.4,0.9-0.5c0.1,0,0.2,0,0.3-0.1c0,0,0,0,0,0
			c-0.2,0.1-0.4,0.1-0.7,0.2c0,0,0,0,0,0c0,0-0.1,0-0.1,0c0.1-0.2-0.1-0.4-0.2-0.5c-0.1-0.1-0.1-0.2-0.2-0.4c0-0.2,0-0.5,0-0.8
			c0,0,0-0.1,0-0.1c0-0.1,0.1-0.1,0.2-0.2c0,0,0,0,0,0c0,0,0,0,0,0c0.1,0,0.1,0.1,0.2,0.1c0.1-0.1,0.2-0.1,0.4-0.1
			c0.1,0,0.3,0,0.4,0.1c-0.1,0-0.2,0-0.4,0c0,0,0,0.1,0,0.2c0,0,0.1,0,0.1,0c0,0,0.1,0,0.1,0c0.1,0,0.1,0,0.1,0
			c0.2,0,0.2,0.1,0.3,0.2c0,0,0,0.1,0,0.1c-0.1,0.1-0.2,0.1-0.3,0.2c0,0,0.1,0,0.1,0.1c0,0,0,0,0,0c0,0,0,0,0,0c0,0,0,0-0.1,0
			c0,0,0,0,0,0c0,0,0,0,0.1,0c0,0,0,0-0.1,0c0.1,0,0.2,0.1,0.4,0.1c0,0,0,0.1-0.1,0.2c0.1,0.1,0.1,0.1,0.1,0.2
			c0.2-0.1,0.3-0.3,0.5-0.4c0,0,0,0,0,0c0,0,0.1,0,0.1-0.1c0.1,0.1,0.1,0.2,0.2,0.3c0-0.1-0.1-0.1-0.1-0.2c-0.1-0.2,0-0.4,0.2-0.5
			c0,0,0,0,0,0.1c0,0,0,0,0,0c-0.1-0.2,0-0.4,0.2-0.6c0.3-0.4,0.6-0.8,0.8-1.3c0.1-0.2,0.2-0.5,0.3-0.7c0.1-0.2,0.1-0.4,0.2-0.6
			c0-0.1,0-0.2,0-0.3c-0.1-0.2,0-0.4,0.1-0.6c0,0,0.1-0.1,0.1-0.1c0.2,0,0.3,0,0.4,0.1c0.1,0,0.1,0.1,0.1,0.3
			c-0.1,0-0.1-0.1-0.2-0.1c0,0.1,0,0.1,0.3,0.5c0,0-0.1,0-0.1,0c0,0.1,0.1,0.2,0.1,0.4c0,0.3,0,0.6,0,0.9c0,0.1,0.1,0.2,0.1,0.3
			c0,0.1,0.1,0.2,0.1,0.3c0,0.2,0.1,0.3,0.1,0.5c0,0.1,0.1,0.2,0.1,0.3c0.1,0,0.1,0,0.2,0.1c0,0,0,0,0,0c0,0,0.1,0,0.1,0l0,0
			c0,0,0,0,0,0C148.1,11.9,148.1,11.9,148.1,11.9z M150.5,12.2c0,0,0.1,0.1,0.1,0.1c0,0.1-0.1,0.1-0.1,0.2c0,0,0,0,0,0c0,0,0,0,0,0
			c0-0.1,0-0.1-0.1-0.2c0,0,0-0.1,0-0.1c0,0,0,0,0,0c0,0,0,0,0,0C150.4,12.1,150.5,12.2,150.5,12.2z M136.5,11.9
			C136.5,11.9,136.5,11.8,136.5,11.9C136.5,11.8,136.5,11.8,136.5,11.9C136.5,11.9,136.5,11.9,136.5,11.9z"/>
		<path class="st0" d="M134.3,12.8C134.3,12.8,134.3,12.8,134.3,12.8C134.3,12.8,134.3,12.8,134.3,12.8
			C134.3,12.8,134.3,12.8,134.3,12.8C134.2,12.8,134.2,12.8,134.3,12.8c-0.1-0.1-0.2-0.2-0.2-0.2c-0.1,0-0.3,0-0.4,0
			c0,0-0.1,0-0.1,0.1c0,0,0,0.1,0,0.1c0,0,0,0,0.1,0C133.9,12.9,134.2,12.9,134.3,12.8z"/>
		<path class="st0" d="M145,12.7C145,12.7,145,12.7,145,12.7C145,12.7,145,12.7,145,12.7C145,12.7,145,12.7,145,12.7z"/>
		<path class="st0" d="M134,15.5c0.1,0,0.3,0,0.4,0c0,0,0,0,0,0c0-0.1,0.1-0.2,0-0.3c0-0.1-0.1-0.2-0.2-0.2c-0.1,0-0.1,0-0.2,0.1
			c0,0.1-0.1,0.1-0.1,0.2c0,0.1-0.1,0.2-0.2,0.3C133.9,15.5,134,15.5,134,15.5z"/>
		<path class="st0" d="M148.8,24.6C148.8,24.6,148.8,24.6,148.8,24.6c0,0.1,0.1,0.1,0.1,0.2l0,0C148.8,24.8,148.8,24.7,148.8,24.6z"
			/>
		<path class="st0" d="M152.1,17.7C152.1,17.7,152.1,17.7,152.1,17.7C152.1,17.7,152.1,17.7,152.1,17.7
			C152.1,17.7,152.1,17.7,152.1,17.7z"/>
		<path class="st0" d="M148.2,22.8C148.2,22.8,148.2,22.7,148.2,22.8c-0.1-0.2-0.1-0.2-0.1-0.3L148.2,22.8
			C148.2,22.7,148.2,22.8,148.2,22.8z"/>
		<path class="st2" d="M139.6,32.1C139.6,32.1,139.6,32.1,139.6,32.1c0.4,0.2,0.5,0.1,0.6,0.2l1.2-2.6c-0.1,0-0.2,0-0.3,0
			c-1.5-0.5-3-1-4.5-1.5c-0.1,0-0.1,0-0.2-0.1l0.1,0.3c0.4,0.6,0.7,1.3,0.9,2.1l0,0.1l0,0.2c0,0.1,0.1,0.2,0.1,0.4
			c0,0.1,0,0.1,0,0.2C138.3,31.6,139,31.9,139.6,32.1z"/>
		<path class="st3" d="M140.9,15.3C140.9,15.3,140.9,15.3,140.9,15.3c0,0.1,0,0.2,0.1,0.3c0,0,0-0.1,0-0.1c0,0,0-0.1,0.1-0.1
			c0,0,0,0,0,0c0,0,0,0,0,0c0,0,0,0,0.1,0c0,0,0-0.1,0.1-0.1C141.2,15.3,141,15.3,140.9,15.3z"/>
		<path class="st3" d="M141.5,17.3c0-0.1,0.1-0.2,0.2-0.3c0-0.1,0-0.1,0.1-0.2c0-0.3,0.1-0.6,0.1-0.9c0-0.2,0-0.3-0.1-0.3
			c0,0-0.1,0-0.1-0.1c0,0,0,0-0.1,0c0,0-0.1-0.1-0.1-0.1c-0.1,0.2-0.2,0.4-0.2,0.6c0,0.2-0.2,0.3-0.4,0.4c0,0-0.1,0-0.1,0
			c-0.1,0-0.1-0.1-0.1-0.1c-0.2-0.3-0.4-0.5-0.5-0.8c0-0.1-0.1-0.1-0.1-0.1c-0.2,0-0.3,0-0.5,0c-0.1,0.2-0.1,0.4,0,0.6
			c0,0,0.1,0,0.1,0.1c0,0,0.1,0,0.1,0c0,0.2,0.1,0.4,0.2,0.6c0,0,0,0,0,0c0,0,0,0,0.1,0c0,0,0,0,0,0c0,0,0,0,0,0
			c0,0.2,0.1,0.5,0.1,0.7c0,0,0,0,0,0c0.1,0,0.2,0,0.3,0C140.8,17.3,141.1,17.3,141.5,17.3z"/>
		<path class="st3" d="M135,17.5C135,17.5,135,17.5,135,17.5c0.1,0.1,0.2,0.1,0.3,0.1c0.2,0,0.5,0,0.7,0c0-0.1,0-0.1,0-0.2
			c0,0,0,0,0,0c-0.2-0.2-0.3-0.5-0.6-0.6c-0.2-0.1-0.3-0.1-0.5-0.2c0,0,0,0,0,0C135,16.8,135,17.1,135,17.5z"/>
		<path class="st3" d="M147.9,17c0,0,0-0.1,0-0.2c0-0.3,0-0.7,0-1c0-0.2,0-0.3,0-0.5c-1.1,0-2.1,0-3.2,0c0,0.1,0,0.2,0.1,0.3
			c0,0.1,0.2,0.3,0,0.4c0,0,0.1,0,0.1,0c0.1,0.2,0.4,0.3,0.5,0.5c0,0,0.1,0,0.2,0c0-0.1,0-0.1,0-0.2c0-0.1,0-0.1,0-0.2
			c0,0,0.1,0,0.1,0c0,0,0,0,0,0c0,0,0,0,0,0c0,0,0,0.1,0,0.1c0,0,0,0,0,0c0.1,0,0.1,0.1,0.2,0.1c0,0,0,0,0,0c0,0,0,0,0,0
			c0,0,0,0,0,0c0.2,0,0.3,0.1,0.5,0.2c0,0,0,0,0,0c0,0,0,0,0,0c-0.2,0-0.3,0-0.5,0c0,0,0,0,0,0c0,0,0,0,0,0c0,0,0-0.1-0.1-0.1
			c0,0,0,0,0,0c0,0.1,0.1,0.3,0.1,0.5c0,0,0,0,0,0.1c0,0,0,0,0,0.1c0.7,0,1.4,0,2.1,0C148.1,17.2,148.1,17.1,147.9,17z"/>
		<path class="st3" d="M152.1,15.6c-0.1,0-0.2,0-0.4-0.1c-0.2-0.1-0.4-0.2-0.6-0.2c-0.3,0-0.6,0-0.9,0c0,0,0,0.1,0,0.1
			c0,0-0.1,0.1-0.2,0.1c0.1,0.1,0.2,0.2,0.3,0.3c0,0.1,0,0.3,0,0.5c-0.1,0-0.1,0-0.1,0c0,0,0,0,0,0c0,0-0.1,0-0.1,0
			c0,0.1,0.1,0.1,0.1,0.2c0,0,0.1,0,0.2,0.1c0,0-0.1,0.1-0.1,0.1c-0.1,0.1-0.1,0.3,0,0.4c0-0.1,0.1-0.1,0.1-0.2
			c0.1,0,0.3-0.1,0.5-0.1c0,0,0.1,0,0.1,0c0,0,0,0,0,0c0.2,0.1,0.5,0,0.7,0.2c0,0,0.1,0,0.1,0.1c0.2,0.1,0.3,0.2,0.2,0.3
			c0,0,0,0,0,0c0-0.1,0.1-0.3,0.1-0.4c0,0,0.1,0,0.1,0.1c0,0,0,0,0,0c0.1,0,0.1,0,0.1,0.1c0.4-0.4,0.8-0.8,1.1-1.3
			c-0.1,0-0.3,0-0.4,0L152.1,15.6z M150.4,16.4c0-0.1-0.1-0.1-0.1-0.1c0,0,0-0.1,0.2-0.1c0.4,0,0.7,0,1.1,0c0.2,0,0.2,0.1,0.2,0.3
			c0,0,0,0,0,0c0,0,0,0,0,0c0,0-0.1,0.1-0.1,0c-0.1,0-0.2-0.1-0.3-0.1c0,0,0,0,0,0.1C151.2,16.5,150.5,16.5,150.4,16.4z M152,16.9
			c-0.1,0-0.1-0.1-0.2-0.1c-0.2,0-0.4,0-0.6,0c-0.1,0-0.2,0-0.3,0c0,0,0,0,0,0c0,0-0.1-0.1-0.1-0.1c0,0,0.1,0,0.2,0c0,0,0,0,0,0
			c0-0.1,0.1-0.1,0.2-0.2c0,0,0.1,0.1,0.1,0.1c0,0,0,0,0,0c0,0,0,0,0,0c0.1,0,0.2-0.1,0.3,0c0,0,0,0,0,0c0,0,0,0,0,0
			c0.1,0,0.1,0,0.2,0.1c0,0,0,0,0.1,0C152,16.8,152,16.8,152,16.9C152,16.9,152,16.9,152,16.9C152,16.9,152,16.9,152,16.9
			C152.1,16.9,152.1,16.9,152,16.9C152,16.9,152,16.9,152,16.9z"/>
		<path class="st3" d="M133.3,15.8c-0.1,0.1-0.3,0.1-0.4,0.1c-0.1,0-0.2,0-0.3,0c0,0,0,0,0,0c0.3,0.4,1,0.3,1,0.3l0,0l0,0
			c0.1,0,0.1,0,0.2,0c0.2,0,0.3,0,0.5,0.1c0,0,0,0,0.1,0c0-0.1,0-0.1,0-0.2c-0.1-0.2,0-0.5,0.1-0.7c-0.1,0-0.3,0-0.4,0
			c-0.1,0-0.2,0-0.2,0c-0.1,0.1-0.2,0.1-0.3,0.1C133.4,15.6,133.3,15.7,133.3,15.8z"/>
		<path class="st4" d="M147.6,19.3c0-0.2,0-0.5,0-0.7c0-0.1,0.1-0.2,0.2-0.3c0.1-0.1,0.1-0.2,0.2-0.3c0-0.1,0.1-0.1,0.1-0.2
			c0,0,0,0,0-0.1c0,0,0,0,0,0.1c0,0-0.1,0-0.1,0c0,0,0,0,0,0c-0.2,0-0.2-0.1-0.1-0.2c0,0,0,0,0-0.1c-0.7,0-1.4,0-2.1,0
			c-0.1,0.2,0.2,0.4,0.1,0.7c0,0.1,0,0.2,0,0.2c0,0,0,0,0,0c0,0,0.1-0.1,0.1-0.1c0,0,0,0,0.1,0c0,0,0,0,0,0.1c0,0.1-0.1,0.3-0.1,0.4
			c-0.1-0.1-0.2-0.2-0.3-0.2c0,0.2,0,0.4-0.1,0.6c0,0.1,0,0.4-0.2,0.4c0,0,0,0,0,0c0,0,0,0,0,0c0.7,0,1.4,0.1,2.1,0.1
			C147.6,19.5,147.6,19.4,147.6,19.3z"/>
		<path class="st4" d="M140.4,19.4c0.1,0,0.2,0,0.3-0.1c0.1,0,0.1,0,0.2,0c0,0,0,0,0,0c0.1,0,0.2,0,0.3,0c0-0.3,0-0.7,0-1
			c0-0.1,0-0.2,0.1-0.4c0.1-0.2,0.1-0.5,0.2-0.7c-0.4,0-0.7,0-1.1,0c-0.1,0-0.2,0-0.3,0c0,0.3,0,0.6,0,0.9c0,0.2-0.1,0.3-0.2,0.3
			c0,0,0,0.1,0,0.1c0,0,0.1,0,0.1,0c0.1,0.1,0.2,0.2,0.2,0.3c-0.1,0.2-0.2,0.3-0.3,0.5c-0.1,0-0.2,0-0.3,0c0,0,0,0,0,0c0,0,0,0,0,0
			c-0.1,0-0.2-0.1-0.2-0.2c0,0,0-0.1,0-0.1c0,0.1,0,0.1,0,0.2c0,0.1-0.1,0.2-0.1,0.3c0.3,0,0.6,0,0.8,0
			C140.1,19.6,140.2,19.4,140.4,19.4z"/>
		<path class="st4" d="M136.1,19.7c0-0.3,0-0.5,0-0.8c0,0,0-0.1,0-0.1c-0.2-0.2-0.1-0.4-0.1-0.7c0-0.2,0-0.3,0-0.5
			c-0.2,0-0.5,0-0.7,0c-0.1,0-0.2,0-0.3-0.1c0,0,0,0,0,0c0,0.1,0,0.2-0.1,0.4c-0.1,0.3-0.1,0.7-0.1,0.9c0,0,0.1-0.1,0.1-0.1
			c0,0,0-0.1,0.1-0.2c0,0,0,0.1,0,0.1c0,0,0-0.1,0.1-0.1c0,0.2,0,0.4-0.1,0.7c0.1,0,0.2,0,0.3,0c0,0,0,0,0,0c0,0,0,0,0.1,0
			c0,0.1,0.1,0.3,0.1,0.3c0.1,0.2,0.1,0.3,0,0.4c0,0,0,0,0,0C135.7,20,135.9,19.9,136.1,19.7z"/>
		<path class="st5" d="M146.9,21.9C146.9,21.9,146.9,21.9,146.9,21.9L146.9,21.9C146.9,21.9,146.9,21.9,146.9,21.9z"/>
		<path class="st5" d="M141.8,22.8c0-0.4,0-0.8,0-1.2c0-0.2-0.1-0.4-0.1-0.7c0,0-0.1-0.1-0.1-0.1l0,0c-0.1,0-0.1,0-0.2,0
			c-0.1,0-0.1-0.2-0.1-0.2c0-0.4,0-0.9,0-1.3c-0.1,0-0.2,0-0.3,0c0,0,0,0-0.1,0c-0.1,0-0.1,0-0.2,0c-0.1,0-0.2,0-0.2,0.1
			c-0.1,0-0.3,0.2-0.5,0.2c-0.3,0-0.6,0-0.9,0c0,0.1-0.1,0.2-0.1,0.2c0,0.1,0,0.2,0,0.3c0.3,0.6,0.2,1.1,0.2,1.7c0,0.2,0,0.4,0,0.7
			c0,0,0,0.1,0,0.1c0.1,0.1,0.1,0.2,0.2,0.4c0.2-0.1,0.4-0.1,0.6-0.1C140.6,22.8,141.2,22.8,141.8,22.8z"/>
		<path class="st5" d="M136.1,20.1c0-0.1,0-0.3,0-0.4c-0.2,0.2-0.4,0.3-0.6,0.3c0,0,0,0.1-0.1,0.1c0.1,0,0.2,0,0.2,0c0,0,0,0,0,0
			c0,0,0.1,0,0.1,0c0,0.1,0.1,0.3,0.2,0.5C136.1,20.5,136.1,20.3,136.1,20.1z"/>
		<path class="st5" d="M148.2,22.8c0.1,0.1,0.2,0.3,0.4,0.6c0,0,0,0,0,0c0-0.1-0.1-0.2-0.2-0.3C148.4,23,148.3,22.8,148.2,22.8
			C148.2,22.7,148.2,22.8,148.2,22.8z"/>
		<path class="st5" d="M146.7,22c0.1-0.1,0.1-0.1,0.1-0.2c0,0,0,0,0.1,0l-0.1-0.1c0.1,0,0.1,0,0.2,0.1c0.2-0.1,0.5-0.2,0.6-0.2
			c0.2,0.4,0.3,0.6,0.3,0.7c0,0,0,0,0,0c0,0,0.1,0,0.1,0.1c-0.1-0.2-0.3-0.5-0.4-0.7c-0.1-0.2-0.1-0.5,0-0.7c0.1-0.3,0-0.6,0-0.9
			c0-0.2,0-0.4,0-0.5c-0.7,0-1.4-0.1-2.1-0.1c0,0.2-0.1,0.4-0.1,0.6c0,0.4-0.1,0.7-0.1,1.1c0,0.3,0.1,0.7,0.1,1c0,0.2,0,0.4,0,0.5
			c0.4-0.2,0.8-0.5,1.2-0.7C146.7,22,146.7,22,146.7,22z"/>
		<path class="st5" d="M145.1,22.8C145.1,22.8,145.1,22.8,145.1,22.8c0-0.2-0.1-0.4-0.2-0.5c0,0-0.1-0.1-0.1-0.1
			c-0.1-0.1-0.2-0.2-0.4-0.2c-0.1,0-0.2,0-0.3,0c0,0-0.1,0.1,0,0.2c0,0.1,0,0.3,0,0.4c0,0.1,0,0.2,0,0.3c0.2,0,0.4,0,0.6,0.1
			C144.8,23,145,22.9,145.1,22.8z"/>
		<path class="st6" d="M142.2,26.1c0.1,0,0.1,0,0.2,0.1c0,0,0,0,0,0c0,0,0,0,0,0C142.4,26.2,142.3,26.1,142.2,26.1
			C142.3,26.1,142.3,26.1,142.2,26.1z"/>
		<path class="st6" d="M136.7,28.2c1.5,0.5,3,1,4.5,1.5c0.1,0,0.2,0,0.3,0c0.2,0,0.3,0.1,0.3,0.1l0,0l0,0c0,0,0,0,0,0
			c0-0.1,0-0.2,0-0.2c0.7-1.1,1.4-2.2,2.1-3.3c1-1.4,1.9-2.8,2.9-4.3c0,0,0,0,0,0c0,0,0,0,0,0c0,0-0.1,0-0.1,0
			c-0.4,0.2-0.8,0.4-1.2,0.7c0,0.4,0,0.8,0,1.2c0,0,0,0,0,0.1c0,0,0,0,0-0.1c0,0,0,0,0,0c0-0.2,0-0.4-0.1-0.5c0-0.1-0.1-0.2-0.1-0.3
			c-0.4,0.3-0.8,0.6-1.2,0.8c0,0,0,0,0,0c0,0.5,0,1,0.1,1.5c0,0.3,0,0.5-0.4,0.6c0.1,0,0.2,0,0.3,0v0l0,0c0,0,0,0,0,0v0
			c-0.1,0-0.2,0-0.3,0.1c0,0,0,0,0,0c0,0,0,0-0.1,0c0,0,0,0,0.1,0c-0.1,0-0.2,0-0.3,0c0,0,0,0,0,0c0,0,0,0,0,0c0,0,0,0,0,0
			c0.1,0,0.2,0,0.2,0c-0.1-0.1-0.2-0.2-0.1-0.3c0.1-0.1,0-0.3-0.2-0.3c0,0-0.1,0-0.2,0c-0.1,0-0.2,0-0.3,0c0,0,0,0,0,0
			c0,0,0,0-0.1,0c0,0,0-0.1,0-0.1c0.4-0.1,0.3-0.4,0.3-0.7c0,0,0-0.1-0.1-0.1c-0.3,0.2-0.5,0.3-0.8,0.5c-0.7,0.5-0.9,0.8-1.6,0.8
			c-0.1,0-0.2,0-0.3,0.1c-0.3,0.2-1.1-0.1-1.6-0.2c-0.1,0-0.2,0-0.3,0c-0.6,0.2-1.2,0-1.7-0.3c-0.1,0.1-0.2,0.3-0.3,0.4
			c0,0,0,0,0.1,0.1c0.1,0.1,0.2,0.1,0.3,0.2c0,0,0.1,0.1,0.1,0.1c-0.2,0-0.4,0-0.7,0c0,0,0,0.1-0.1,0.1c0.1,0,0.2-0.1,0.4,0
			c0.1,0,0.2,0,0.2,0c0,0.1,0,0.1,0,0.2c0,0-0.1,0.1-0.2,0.1c-0.2,0-0.3,0.1-0.5,0.1c-0.1,0.4,0,0.9,0.3,1.4c0,0,0,0,0.1,0
			C136.6,28.2,136.6,28.2,136.7,28.2z M143.3,26.3c0,0-0.1,0-0.1,0v0C143.2,26.2,143.2,26.2,143.3,26.3
			C143.3,26.2,143.3,26.2,143.3,26.3C143.3,26.2,143.3,26.2,143.3,26.3C143.3,26.2,143.3,26.3,143.3,26.3z M142.4,25.7
			c0.1,0,0.1-0.1,0.2-0.1c0.1-0.1,0.2-0.1,0.3-0.1c0,0,0.1,0,0.1,0.1c0.1,0,0.2,0.1,0.2,0.1c0,0.1,0.1,0.3,0.1,0.4
			c0,0.1-0.3,0.1-0.4,0.2c0,0,0,0,0,0c0,0,0,0,0,0c0-0.2,0-0.3-0.1-0.4C142.7,25.8,142.6,25.8,142.4,25.7c0.1,0.1,0.2,0.1,0.2,0.2
			c0.1,0.1,0.2,0.2,0.1,0.3c0,0-0.1,0.1-0.1,0.1c0,0-0.1,0-0.1,0c0,0,0,0-0.1,0c0,0,0,0,0,0c0,0-0.1,0-0.1,0c0,0-0.1,0-0.1,0
			c0.2,0,0.3,0,0.5,0c0,0,0,0,0,0c0,0,0,0,0,0c0,0,0,0,0,0c-0.2,0-0.4,0-0.6,0c-0.1,0-0.1,0-0.1,0c-0.1,0-0.1-0.1-0.1-0.2
			C141.8,25.9,142,25.7,142.4,25.7z"/>
		<path class="st7" d="M148.9,24.8C148.9,24.8,148.9,24.8,148.9,24.8c-0.1-0.5-0.1-0.9-0.2-1.3c0,0,0-0.1-0.1-0.1
			c-0.2-0.3-0.3-0.5-0.4-0.6c0,0,0,0,0-0.1l-0.1-0.2c0,0-0.1-0.1-0.2-0.2c0,0,0,0,0,0c0,0,0,0,0,0c0-0.1-0.1-0.3-0.3-0.7
			c0,0-0.4,0.1-0.6,0.2c-0.1,0-0.1,0-0.2-0.1l0.1,0.1c0,0,0,0-0.1,0c0,0,0,0,0,0c0.1,0.1,0.1,0.2,0.2,0.3l0,0l1.7,3.4
			c0,0,0.1-0.4,0-1c0,0,0,0,0,0C148.8,24.7,148.8,24.8,148.9,24.8z"/>
		<path class="st7" d="M149.8,26C149.8,26,149.8,26,149.8,26C149.7,25.9,149.7,25.9,149.8,26c-0.1-0.1-0.1-0.1,0-0.1c0,0,0,0,0,0
			c0,0,0.1,0,0.1,0c0.2-0.6,0.2-1.3-0.1-2.1c0,0,0,0,0-0.1c0,0,0,0-0.1,0c-0.1,0-0.1,0.1-0.1,0.2c0,0.2,0,0.4-0.1,0.6
			c0,0.1,0,0.2-0.1,0.4c-0.1,0.1-0.1,0.3,0,0.5c0,0.1,0.1,0.2,0,0.3C149.4,25.7,149.5,25.8,149.8,26C149.7,26,149.7,26,149.8,26z"/>
		<path class="st8" d="M136.8,25.5c0.6,0.3,1.2,0.5,1.7,0.3c0.1,0,0.2,0,0.3,0c0.5,0.1,1.3,0.3,1.6,0.2c0.1,0,0.2-0.1,0.3-0.1
			c0.6,0,0.9-0.3,1.6-0.8c0.2-0.2,0.5-0.4,0.8-0.5c0,0,0,0-0.1,0c0,0-0.1,0.1-0.2,0.1c-0.1,0-0.1,0.1-0.2,0.1
			c-0.1,0.1-0.2,0.1-0.3,0c0,0,0,0,0,0c0,0,0,0-0.1,0c-0.1,0-0.1-0.1-0.1-0.1c-0.3-0.5-0.3-0.9-0.2-1.4c0-0.1,0-0.2,0-0.3
			c-0.6,0-1.2,0-1.8,0c-0.2,0-0.4,0.1-0.6,0.1c0.1,0.2,0.2,0.3,0.3,0.5c0,0,0,0,0,0.1c0.2,0.1,0.2,0.3,0.3,0.5
			c0.1,0.3,0.2,0.5,0.3,0.8c-0.2,0.2-0.4,0.2-0.6,0.1c-0.2-0.1-0.4-0.1-0.5-0.2c0,0,0,0,0,0c0,0,0,0,0,0c-0.2-0.1-0.3-0.2-0.4-0.4
			c-0.1-0.2-0.3-0.4-0.5-0.5c-0.2-0.1-0.3-0.2-0.5-0.3c-0.1-0.1-0.2,0-0.3,0.1c-0.1,0.2-0.2,0.4-0.3,0.6
			C137.1,24.6,137,25,136.8,25.5z"/>
		<path class="st8" d="M145.1,23.2c0-0.1,0-0.2,0-0.3c-0.1,0.1-0.3,0.1-0.5,0.1c-0.2,0-0.4-0.1-0.6-0.1c0,0.1,0,0.2,0,0.4
			c-0.1,0.2-0.1,0.5,0,0.7c0,0,0,0,0,0c0,0,0,0,0,0C144.4,23.7,144.7,23.4,145.1,23.2z"/>
		<path class="st9" d="M149.4,26.3c0-0.1,0.1-0.2,0.1-0.3c0,0,0.1,0,0.1,0c-0.1-0.2-0.2-0.3-0.3-0.5c0,0,0,0-0.1,0c0,0,0-0.1,0-0.1
			c0,0,0,0-0.1,0.1c-0.1-0.2-0.2-0.4-0.3-0.7c0-0.1-0.1-0.1-0.1-0.2c0,0.6,0,1,0,1l-1.7-3.4c-0.1-0.1-0.1-0.2-0.2-0.3c0,0,0,0,0,0
			c0,0.1-0.1,0.1-0.1,0.2c0,0,0,0,0,0c0.1,0,0.2,0,0.2,0.1c0.2,0.6,0.5,1.1,0.7,1.8c0.2,0.9,0.9,1.7,1.2,2.6c-0.2,0-0.5,0.2-1,0.1
			c0.1,0,0.1,0.1,0.2,0.1c0.2,0,0.3,0.1,0.5,0.2c0.1,0,0.3,0.1,0.4,0.1c0.2-0.2,0.4-0.4,0.6-0.6C149.4,26.4,149.4,26.4,149.4,26.3z"
			/>
		<path class="st10" d="M144.7,30.7c0,0-0.1-0.2,0-0.3c0.1-0.7,0.3-1.4,0.5-2.1c0.1-0.7,0.3-1.5,0.5-2.2c0-0.1,0.3-0.1,0.4-0.1
			c0.3,0.1,0.7,0.2,1,0.3c0.2,0,0.3,0.1,0.5,0.1c0.1,0,0.2,0.1,0.2,0.1c0.4,0.1,0.8-0.1,1-0.1c-0.3-0.9-1-1.7-1.2-2.6
			c-0.1-0.6-0.4-1.2-0.7-1.8c0-0.1-0.1-0.1-0.2-0.1c0,0,0,0,0,0c-0.9,1.4-1.9,2.9-2.9,4.3c-0.7,1.1-1.4,2.2-2.1,3.3
			c0,0.1,0,0.2,0,0.2c0,0,0,0,0,0l0.1,0.1c0-0.1,0-0.2,0-0.3c0,0,0-0.1,0.1-0.1c0,0.1,0,0.3,0,0.4c0.2,0,0.4-0.1,0.6,0c0,0,0,0,0,0
			c0,0,0,0,0,0c0,0,0,0,0,0c0.2,0.1,0.4,0.1,0.6,0.2c0.4,0.1,0.7,0.1,1.1,0.2c0,0,0.1,0.1,0.1,0.2c0.1,0,0.2,0,0.3,0
			c0,0.1,0,0.3,0,0.4c-0.3,0.8-0.6,1.5-0.9,2.2c0,0.1-0.1,0.2-0.1,0.3l0.5,1.1c0,0,0,0,0,0c0.6-0.5,1.1-1.3,1.6-2.3
			c-0.2-0.3-0.3-0.5-0.5-0.8C145,31.2,144.9,31,144.7,30.7z"/>
		<path class="st0" d="M142.5,29.9C142.5,29.9,142.5,29.9,142.5,29.9"/>
		<path class="st9" d="M143.6,33.4c0-0.1,0-0.2,0.1-0.3c0.3-0.7,0.6-1.5,0.9-2.2c0-0.1,0-0.3,0-0.4c-0.1,0-0.2,0-0.3,0
			c0-0.1-0.1-0.2-0.1-0.2c-0.4-0.1-0.7-0.1-1.1-0.2c-0.2,0-0.4-0.1-0.6-0.2c-0.2,0-0.4,0.1-0.6,0c0-0.1,0-0.2,0-0.4
			c0,0,0,0.1-0.1,0.1c0,0.1,0,0.2,0,0.3L143.6,33.4z"/>
		<path class="st9" d="M142.5,29.9C142.5,29.8,142.5,29.8,142.5,29.9L142.5,29.9z"/>
		<path class="st11" d="M140.2,32.3c-0.1-0.1-0.2,0-0.6-0.2c0,0,0,0,0,0c-0.6-0.2-1.3-0.5-1.9-0.8c0.1,0.6,0.4,1.2,0.8,1.8
			c0,0.1,0.1,0.1,0.2,0.2c0.2,0.3,0.5,0.6,0.5,1c0,0.1,0,0.3,0.1,0.4L140.2,32.3C140.2,32.3,140.2,32.3,140.2,32.3z"/>
		<path class="st12" d="M148.4,27c-0.1-0.1-0.2-0.1-0.3-0.1c0,0-0.1,0-0.1,0c-0.1,0-0.2-0.1-0.3-0.1c-0.1,0-0.1,0-0.2,0
			c-0.1,0-0.3,0-0.4,0c-0.3-0.1-0.7-0.2-1-0.3c-0.1,0-0.4,0-0.4,0.1c-0.2,0.7-0.2,0.8-0.3,1.5c-0.1,0.3-0.2,0.9-0.2,1.2
			c0,0,0,0,0,0.1l-0.1,0.5c0,0,0,0.2,0,0.2c-0.1,0.4-0.1,0.2,0,0.6l0.8,1.2c0.1,0.1,0.1,0.1,0.2,0.1c0-0.1,0.1-0.2,0.1-0.3
			c0.1-0.1,0.1-0.1,0.2-0.2c0.1-0.2,0.2-0.3,0.4-0.4c0.6-0.3,0.9-0.8,0.6-1.5c-0.4-1.1,0.2-1.6,1-2.1c0.2-0.1,0.4-0.2,0.5-0.3
			c-0.1,0-0.1-0.1-0.2-0.1C148.5,27.1,148.5,27.1,148.4,27z"/>
		<path class="st13" d="M143.7,34.5L143.7,34.5l-1.3,0.1l-3.2,0.2c0.2,0.2,0.4,0.2,0.8,0.3c0.2,0,0.5,0.1,0.8,0.1
			c1.3,0.3,2.4,0,3.3-0.8L143.7,34.5z"/>
		<path class="st13" d="M144.1,34.5C144.2,34.5,144.2,34.5,144.1,34.5C144.2,34.5,144.1,34.5,144.1,34.5L144.1,34.5z"/>
		<polygon points="134.5,16.5 134.5,16.5 134.5,16.5 		"/>
		<path d="M152.1,17.7c0-0.1,0-0.1,0-0.2c0,0,0,0,0,0C152.1,17.5,152.1,17.6,152.1,17.7C152.1,17.7,152.1,17.7,152.1,17.7
			C152.1,17.7,152.1,17.7,152.1,17.7z"/>
		<path d="M134.7,18.6C134.6,18.6,134.6,18.6,134.7,18.6c0,0.1,0,0.1,0,0.2c0,0,0,0,0,0c0,0,0,0,0.1,0c0,0,0,0,0,0
			c0-0.3,0-0.6,0.1-0.9c0-0.1,0.1-0.2,0.1-0.4c0.1-0.4,0-0.6-0.1-0.8c0,0,0,0,0,0c-0.1,0-0.1,0-0.2,0c0,0-0.1,0-0.1,0
			c0.1,0,0.2,0.1,0.2,0.2c0.1,0.2,0.2,0.5,0.1,0.8C134.8,17.9,134.9,18.2,134.7,18.6z"/>
		<path d="M136.2,26.4c0,0,0-0.1,0.1-0.1c0,0-0.1,0-0.1,0c0,0.1-0.1,0.1-0.1,0.2C136.1,26.4,136.2,26.4,136.2,26.4z"/>
		<path d="M149.8,25.9C149.8,26,149.8,26,149.8,25.9C149.8,26,149.8,26,149.8,25.9c0,0.1,0,0.1,0.1,0.1c0,0,0-0.1,0-0.1
			C149.9,26,149.8,26,149.8,25.9z"/>
		<path d="M149.8,23.7C149.7,23.7,149.7,23.7,149.8,23.7C149.7,23.7,149.7,23.7,149.8,23.7c0.2,0.8,0.3,1.5,0.1,2.1
			c0.1,0,0.1,0,0.1,0c0.1-0.5,0.1-1,0-1.6C149.9,24.1,149.8,23.9,149.8,23.7z"/>
		<path d="M137.1,24.2c0,0,0,0.1-0.1,0.1c0,0-0.1,0.1-0.1,0.1c-0.1,0.4-0.2,0.9-0.5,1.4c0,0,0.1,0.1,0.1,0.1
			c0.1-0.1,0.2-0.3,0.3-0.4C137,25,137.1,24.6,137.1,24.2z"/>
		<path class="st14" d="M151.6,22.3C151.6,22.3,151.6,22.3,151.6,22.3C151.6,22.3,151.5,22.3,151.6,22.3
			C151.6,22.3,151.6,22.3,151.6,22.3z"/>
		<path class="st14" d="M151.9,22.1C151.9,22.2,151.9,22.2,151.9,22.1c0,0.1,0,0.1,0,0.2c0,0,0.1,0,0.2,0.1c0,0,0,0,0,0
			c0,0-0.1,0-0.1,0C152,22.3,151.9,22.2,151.9,22.1z"/>
		<path class="st14" d="M150.4,25.6c0.1-0.2,0-0.5,0-0.7c-0.1-0.4-0.3-0.8-0.5-1.1c0-0.1-0.1-0.1-0.2-0.2c0,0,0,0,0,0
			c0,0,0.1,0,0.1,0c0,0,0.1,0.1,0.1,0.1c0.1,0.2,0.1,0.3,0.2,0.5c0.1,0.2,0.2,0.4,0.3,0.6c0.1,0.2,0.2,0.4,0,0.7
			c0.4,0.1,0.4,0.2,0.4,0.7c0,0,0.1,0,0.1,0C150.8,25.8,150.7,25.7,150.4,25.6z"/>
		<path class="st14" d="M142.6,11.8C142.6,11.8,142.7,11.9,142.6,11.8c0.1,0,0.3-0.1,0.4-0.1C142.9,11.7,142.7,11.8,142.6,11.8z"/>
		<path class="st14" d="M136.5,15.3c0-0.2-0.1-0.2-0.2-0.2c-0.3-0.1-0.7,0.1-0.8,0.3c0.1,0,0.3,0,0.4,0
			C136,15.2,136.2,15,136.5,15.3z"/>
		<path class="st14" d="M152.5,21.7C152.5,21.7,152.5,21.7,152.5,21.7C152.5,21.6,152.5,21.6,152.5,21.7
			C152.5,21.6,152.5,21.7,152.5,21.7z"/>
		<path class="st14" d="M143.4,12.7C143.4,12.7,143.4,12.7,143.4,12.7C143.4,12.7,143.4,12.7,143.4,12.7
			C143.4,12.7,143.4,12.7,143.4,12.7z"/>
		<path class="st14" d="M147.8,12.2C147.8,12.2,147.9,12.2,147.8,12.2c0.1,0.1,0.2,0.1,0.4,0.1c0,0,0,0,0,0
			C148.1,12.2,147.9,12.2,147.8,12.2z"/>
		<path class="st14" d="M152.9,23.9c0,0,0-0.1,0-0.2c0-0.4,0-0.8,0-1.2c0-0.2-0.1-0.4-0.1-0.7c0-0.1,0-0.1,0-0.2c0.1,0,0.2,0,0.3,0
			c0-0.1-0.1-0.2-0.1-0.2c0,0,0,0.1,0,0.1c0,0,0,0,0,0c0,0,0,0.1,0,0.1c0,0-0.1,0-0.1,0c0,0-0.1,0.1-0.1,0c0,0.1,0,0.1,0,0.2
			c0,0.2,0.1,0.4,0.1,0.7c0,0.4,0,0.8,0,1.2c0,0,0,0.1,0,0.2c0.1,0.1,0.2,0.2,0.4,0.4c0,0,0-0.1,0-0.1C153,24.1,153,24,152.9,23.9z"
			/>
		<path class="st14" d="M142.2,11.9C142.2,11.9,142.2,12,142.2,11.9c0,0.4,0,0.6,0,0.9c0,0.1,0.1,0.3,0.2,0.4
			c0.1,0.2,0.3,0.3,0.2,0.5c0,0,0.1,0,0.1,0c0.1-0.2-0.1-0.3-0.2-0.5c-0.1-0.1-0.2-0.3-0.2-0.4C142.3,12.5,142.3,12.2,142.2,11.9
			C142.3,12,142.3,11.9,142.2,11.9c0.1-0.1,0.2-0.1,0.2-0.2c0,0,0,0,0,0C142.3,11.8,142.3,11.8,142.2,11.9z"/>
		<path class="st14" d="M146.9,11.9C146.9,11.9,146.9,11.9,146.9,11.9c0.1,0.1,0.1,0.2,0.1,0.3c0.1,0.2,0.1,0.5,0.2,0.8
			c0,0.1,0.1,0.2,0.1,0.4c0,0,0,0.1,0.1,0.1c0,0,0,0,0,0c0,0,0,0,0-0.1c0-0.1-0.1-0.2-0.1-0.4c-0.1-0.2-0.1-0.5-0.2-0.8
			C147.1,12.1,147.1,12,146.9,11.9C147,11.9,147,11.9,146.9,11.9c0.2-0.3,0-0.6-0.1-0.9c0,0,0-0.1-0.1-0.1c0,0,0,0,0,0c0,0,0,0,0,0
			C146.8,11.2,147,11.5,146.9,11.9z"/>
		<path class="st14" d="M144.6,12.9c0,0.1,0.1,0.1,0.1,0.2c0.1,0.1,0.1,0.2,0.2,0.3C144.8,13.2,144.7,13.1,144.6,12.9
			c0-0.1,0.1-0.3,0.3-0.4c0,0,0,0,0-0.1C144.6,12.5,144.5,12.7,144.6,12.9z"/>
		<path class="st14" d="M141.1,14.3C141,14.2,141,14.2,141.1,14.3C141,14.2,141,14.3,141.1,14.3C141,14.3,141,14.3,141.1,14.3
			C141.1,14.3,141.1,14.3,141.1,14.3z"/>
		<path class="st14" d="M148.7,12.4c0,0,0,0.1,0,0.1c-0.4,0.1-0.7,0.3-0.6,0.7c0,0.1-0.1,0.2-0.2,0.3c-0.1,0.1-0.2,0.2-0.3,0.3
			c-0.1,0.1-0.1,0.2-0.1,0.3c0.1,0.4,0.2,0.8,0.3,1.2c0,0,0,0,0,0c0,0.2,0,0.3,0,0.5c0,0.3,0,0.7,0,1c0,0.1,0,0.1,0,0.2
			c0.2,0.1,0.1,0.2,0.1,0.4c0,0,0,0,0,0.1c-0.1,0.1-0.1,0.2,0.1,0.2c0,0,0,0,0,0c-0.1,0-0.1-0.1,0-0.2c0.1-0.1,0.2-0.3,0-0.4
			c0,0-0.1-0.1,0-0.2c0-0.3,0-0.7,0-1c0-0.2,0-0.3,0-0.5c-0.1-0.4-0.2-0.8-0.3-1.2c0-0.1,0-0.2,0.1-0.3c0.1-0.1,0.2-0.2,0.3-0.3
			c0.1-0.1,0.2-0.2,0.2-0.3c-0.1-0.3,0.2-0.6,0.6-0.7c0,0,0-0.1,0-0.1c0-0.2,0-0.2-0.2-0.2C148.7,12.2,148.8,12.3,148.7,12.4z"/>
		<path class="st14" d="M148.7,11.8c-0.1,0.1-0.3,0.1-0.4,0.1c0,0,0,0,0,0c0,0,0.1,0.1,0.1,0c0.1,0,0.3,0,0.4-0.1
			c0.2-0.2,0.5-0.2,0.8-0.2C149.3,11.6,148.9,11.7,148.7,11.8z"/>
		<path class="st14" d="M153.8,24.7c-0.1-0.1-0.1-0.2-0.2-0.3c0,0,0-0.1,0-0.1c0,0,0.1,0,0.1,0c0,0,0-0.1,0-0.2
			c-0.2-0.1-0.1-0.3-0.1-0.5c0-0.2,0-0.3-0.1-0.5c0,0,0,0,0,0c-0.4-0.2-0.4-0.6-0.5-0.9c0,0,0,0-0.1-0.1c0,0.1,0.1,0.1,0.1,0.2
			c0,0.1,0.1,0.3,0.1,0.4c0.1,0.1,0.2,0.3,0.3,0.4l0,0c0,0.2,0,0.4,0.1,0.5c0,0.2,0,0.4,0.1,0.5c0,0.1,0,0.2,0,0.2c0,0-0.1,0-0.1,0
			c0,0-0.1,0.1,0,0.1c0,0.1,0.1,0.2,0.2,0.3c-0.2,0.1-0.2,0.2-0.1,0.2c0.1,0,0.2,0.1,0.3,0.1c-0.1,0-0.1,0-0.2,0
			C153.6,24.8,153.6,24.8,153.8,24.7z"/>
		<path class="st14" d="M143.3,12.1C143.2,12.1,143.2,12.1,143.3,12.1C143.2,12.1,143.3,12.1,143.3,12.1c0.1,0,0.1,0,0.1,0
			C143.4,12.1,143.3,12.1,143.3,12.1z"/>
		<path class="st14" d="M148,11.8c0,0.1,0,0.1,0,0.2c-0.1,0-0.2,0-0.3,0l0,0c0.1,0,0.2,0,0.3,0C148,11.9,148,11.9,148,11.8z"/>
		<path class="st14" d="M149.7,13.4c0,0-0.1,0-0.1,0.1c0.1,0,0.2,0,0.3-0.1c0,0,0,0,0,0C149.9,13.4,149.8,13.4,149.7,13.4z"/>
		<path class="st14" d="M150.3,12C150.3,12,150.3,12,150.3,12C150.3,12,150.2,12,150.3,12c-0.2-0.1-0.3-0.2-0.4-0.2c0,0-0.1,0-0.1,0
			c0.1,0,0.2,0.1,0.3,0.2C150.1,12,150.2,12,150.3,12z"/>
		<path class="st14" d="M152.8,18.4c0,0.1,0,0.2,0,0.3c0,0,0.1,0,0.1,0C152.9,18.7,152.8,18.6,152.8,18.4z"/>
		<path class="st14" d="M152.9,17.5C152.9,17.5,153,17.5,152.9,17.5c0-0.1,0-0.1-0.1,0c0,0-0.1,0-0.1,0c0,0,0,0,0,0.1
			C152.7,17.6,152.8,17.6,152.9,17.5z"/>
		<path class="st14" d="M153,18C153,18,153,18,153,18C153,18,153,18,153,18c0,0.1,0,0.2,0,0.2c0,0,0.1,0,0.1,0
			C153.1,18.1,153.1,18,153,18z"/>
		<path class="st14" d="M150.5,13.9C150.5,13.9,150.4,13.9,150.5,13.9c-0.1,0.1,0,0.1,0,0.1c0,0,0.1-0.1,0.1-0.1c0,0,0.1,0,0.1,0
			C150.7,13.9,150.6,13.9,150.5,13.9z"/>
		<path class="st14" d="M151.1,14.8c0,0.1,0.2,0.1,0.3,0.2c0,0,0,0,0,0c-0.1,0-0.2-0.1-0.2-0.1c-0.1-0.2-0.3-0.3-0.5-0.3
			c-0.1,0-0.1-0.1-0.2-0.1c0,0,0,0-0.1,0c0,0,0.1,0.1,0.1,0.1C150.8,14.6,151,14.7,151.1,14.8z"/>
		<path class="st14" d="M138.4,12.3c0.1,0.1,0.2,0.1,0.3,0c-0.1,0-0.3-0.1-0.5-0.1C138.3,12.1,138.4,12.2,138.4,12.3z"/>
		<path class="st14" d="M134.5,12.8C134.4,12.7,134.4,12.7,134.5,12.8C134.4,12.8,134.4,12.8,134.5,12.8c-0.1,0-0.1,0-0.1,0
			c0,0,0,0,0,0c-0.1,0.1-0.4,0.1-0.6,0C133.9,12.9,134.3,12.9,134.5,12.8C134.5,12.8,134.5,12.8,134.5,12.8c0.1,0,0.1-0.1,0.1-0.1
			c0,0,0,0,0.1,0c0,0-0.1,0-0.1,0C134.5,12.7,134.5,12.7,134.5,12.8z"/>
		<path class="st14" d="M136.4,11.8c-0.1,0.1-0.2,0.1-0.3,0.2c-0.1,0.1-0.2,0.2-0.2,0.3c0,0.1,0,0.3-0.2,0.4
			c-0.2,0.1-0.2,0.4,0.1,0.4c-0.1,0.1,0,0.3-0.2,0.4c0,0,0,0,0,0c0.3-0.1,0.1-0.3,0.2-0.5c-0.3-0.1-0.3-0.3-0.1-0.4
			c0.1-0.1,0.2-0.2,0.2-0.4c0-0.1,0-0.2,0.2-0.3C136.3,12,136.4,11.9,136.4,11.8C136.4,11.9,136.5,11.9,136.4,11.8
			C136.4,11.8,136.4,11.8,136.4,11.8z"/>
		<path class="st14" d="M150.4,12.2C150.4,12.2,150.4,12.2,150.4,12.2c0,0-0.1,0.1-0.1,0.1c0,0.1,0,0.1,0.1,0.2c0-0.1,0-0.1,0-0.2
			C150.3,12.2,150.4,12.2,150.4,12.2z"/>
		<path class="st14" d="M150.4,26.4c0,0,0-0.1-0.1-0.1c-0.1,0-0.2,0-0.3,0.1c0.2-0.3,0-0.4-0.3-0.5c0,0,0,0-0.1,0c0,0,0.1,0,0.1,0
			c0,0,0.1,0,0.1,0.1c0.2,0.1,0.2,0.2,0.1,0.4C150.1,26.4,150.2,26.4,150.4,26.4C150.3,26.4,150.3,26.4,150.4,26.4c0,0,0.1,0,0.2,0
			c0,0,0.1,0,0.1,0v0c0,0-0.1,0-0.1,0C150.5,26.4,150.5,26.4,150.4,26.4z"/>
		<path class="st14" d="M141.4,15.1c0,0-0.1,0.1-0.1,0.1c0,0,0,0.1-0.1,0.1c0,0,0,0,0.1,0C141.3,15.3,141.4,15.2,141.4,15.1
			c0.1,0,0.1,0,0.1,0C141.4,15.1,141.4,15.1,141.4,15.1z"/>
		<path class="st14" d="M136.9,11.3c-0.1,0.2-0.1,0.5-0.2,0.7c-0.1,0-0.1,0-0.2,0.1c0,0,0,0,0,0c0.1,0,0.2,0,0.3-0.1
			C136.9,11.8,136.9,11.6,136.9,11.3c0.1-0.1,0.2-0.1,0.3-0.1C137.1,11.2,137,11.3,136.9,11.3z"/>
		<path class="st14" d="M150,12.5C150,12.5,150,12.5,150,12.5C150,12.5,150,12.5,150,12.5C150,12.5,150,12.5,150,12.5z"/>
		<path class="st14" d="M143.8,13.2C143.8,13.3,143.8,13.3,143.8,13.2c0.1-0.1,0.3-0.2,0.5-0.4c0,0,0,0,0,0
			C144.2,13,144,13.1,143.8,13.2z"/>
		<path class="st14" d="M146.5,8.2c0,0-0.1,0.1-0.1,0.1c-0.1,0.2-0.2,0.4-0.1,0.6c0,0.1,0,0.2,0,0.3c0,0.2-0.1,0.4-0.2,0.6
			c-0.1,0.2-0.2,0.5-0.3,0.7c-0.1,0.5-0.4,0.9-0.8,1.3c-0.2,0.2-0.3,0.4-0.2,0.6c0,0,0,0,0,0c0,0.1,0.1,0.2,0.1,0.3c0,0,0,0,0,0
			c0,0,0,0,0,0c0,0,0,0.1,0,0.1c0,0,0,0,0,0c-0.3-0.3-0.2-0.5,0-0.9c0.3-0.4,0.6-0.8,0.8-1.3c0.1-0.2,0.2-0.5,0.3-0.7
			c0.1-0.2,0.1-0.4,0.2-0.6c0-0.1,0-0.2,0-0.3c-0.1-0.2-0.1-0.4,0.1-0.6C146.5,8.4,146.6,8.3,146.5,8.2c0.2,0,0.3,0,0.4,0.1
			C146.9,8.2,146.7,8.2,146.5,8.2z"/>
		<path class="st14" d="M147.7,11.7c0,0,0,0.1-0.1,0.1c0,0,0,0,0,0.1c0.1-0.2,0.2-0.2,0.3-0.1C147.8,11.7,147.8,11.6,147.7,11.7z"/>
		<path class="st14" d="M148.1,12.2c0-0.1,0-0.2,0-0.2c0,0-0.1-0.1-0.1-0.1c0,0,0,0,0,0c0,0,0,0,0,0c0,0.1,0,0.2,0,0.3
			C148,12.1,148.1,12.2,148.1,12.2z"/>
		<path class="st14" d="M140,13.6c-0.2,0.2-0.4,0.4-0.6,0.6c0,0,0,0,0,0.1C139.7,14,139.9,13.8,140,13.6c0.2-0.1,0.3-0.1,0.5-0.1
			C140.3,13.4,140.1,13.5,140,13.6z"/>
		<path class="st14" d="M138,11.2c-0.1,0.1-0.2,0.1-0.3,0.1C137.8,11.3,138,11.3,138,11.2c0.1,0,0.1,0,0.1,0c0,0,0,0,0,0
			C138.1,11.2,138.1,11.2,138,11.2z"/>
		<path class="st14" d="M135,13.7c0.1,0,0.1,0,0.2,0c-0.1,0-0.2-0.1-0.3-0.1C135,13.6,135,13.7,135,13.7z"/>
		<path class="st14" d="M134.5,9.9C134.5,10,134.5,10,134.5,9.9c0.1,0,0.1,0,0.1,0C134.6,9.9,134.5,9.9,134.5,9.9z"/>
		<path class="st14" d="M133.6,10c-0.1,0.2-0.1,0.4-0.2,0.6c-0.1,0.2-0.4,0.5-0.5,0.7c-0.2,0.4-0.4,0.8-0.6,1.2
			c-0.1,0.2,0,0.4,0.1,0.5c0.1,0.1,0.2,0.2,0.2,0.4c0.1,0.1,0.3,0.1,0.4,0.2c-0.1,0-0.2,0.2-0.4,0.1c0,0-0.1,0-0.1,0.1
			c0,0.1,0,0.3,0,0.4c0,0.2,0.2,0.3,0.5,0.4c0.2,0,0.2,0.1,0.2,0.3c0,0.2,0.1,0.5,0.1,0.7c0,0,0,0,0.1,0c0-0.2-0.1-0.4-0.1-0.7
			c0-0.1-0.1-0.2-0.2-0.3c-0.2-0.1-0.4-0.1-0.5-0.4c0-0.1,0-0.3,0-0.4c0,0,0.1-0.1,0.1-0.1c0.2,0.1,0.2,0,0.4-0.1
			c-0.2-0.1-0.3-0.1-0.4-0.2c0-0.2,0-0.3-0.2-0.4c-0.2-0.1-0.2-0.3-0.1-0.5c0.2-0.4,0.4-0.8,0.6-1.2c0.1-0.2,0.3-0.5,0.5-0.7
			C133.5,10.4,133.6,10.2,133.6,10c0.2-0.2,0.4-0.4,0.7-0.4c0,0,0,0,0,0C133.9,9.6,133.7,9.7,133.6,10z"/>
		<path class="st14" d="M138.2,14.1C138.2,14.1,138.3,14.1,138.2,14.1c0.2,0.2,0.3,0.2,0.2,0.3c0,0,0,0-0.1,0.1l0,0c0,0,0,0,0,0
			c0.2,0,0.3,0.1,0.2,0.3c0,0.1-0.1,0.3,0.1,0.4c0.1,0,0.1,0.1,0,0.1c0,0,0,0-0.1,0l0,0c0,0,0,0,0,0c0,0,0,0,0,0
			c0,0.1-0.1,0.1-0.1,0.2c0,0,0,0,0.1,0c0,0,0.1,0,0.1,0c0,0,0,0.1,0,0.1c0,0,0,0.1,0,0.2c0,0.1,0,0.1,0.1,0.2c0,0,0,0,0-0.1
			c0,0,0,0,0,0.1c0,0,0-0.1,0-0.1c0,0,0-0.1,0-0.1c0,0,0.1,0,0.2,0c0.1,0,0.1,0,0.2-0.1c0,0,0,0,0,0c0,0,0,0,0,0
			c-0.2-0.1-0.3-0.2-0.5-0.3c0,0,0-0.2,0-0.2c0.1-0.1,0.3-0.2,0.5-0.3c0,0,0,0,0,0c0,0,0,0,0,0c0-0.1-0.1-0.2-0.1-0.2
			c-0.2,0-0.2-0.2-0.2-0.3c0,0,0,0,0,0c0,0,0,0,0,0c0,0,0,0,0,0c-0.1,0-0.3-0.1-0.3-0.2c0,0,0.1-0.1,0.1-0.1
			c0.1,0.1,0.2,0.1,0.2,0.2c0-0.1,0-0.1,0-0.2c0-0.1,0-0.2-0.1-0.4c0-0.1,0-0.2,0-0.2c0,0,0,0-0.1,0c0,0,0,0,0,0
			c0,0-0.1,0.1-0.2,0.1c0,0-0.1,0.1-0.1,0.1c0,0-0.1,0-0.2,0c-0.1,0-0.2,0-0.3-0.1c0,0,0,0,0,0c0,0,0,0,0,0
			C138.1,13.8,138.1,13.9,138.2,14.1z"/>
		<path class="st14" d="M151.3,13c0-0.1,0-0.1,0-0.2c0,0,0-0.1,0-0.1c0,0,0,0.1,0,0.1C151.3,12.9,151.3,13,151.3,13z"/>
		<path class="st14" d="M151.1,13.6c0.1,0.2,0.1,0.5,0.4,0.7c0.1,0,0.2,0.1,0.3,0.2c0,0,0-0.1,0.1-0.2c0-0.1,0-0.2,0-0.3
			c0.1-0.2,0.2-0.4,0.4-0.6c0.1-0.1,0.2-0.3,0.3-0.4c0.1-0.1,0.2-0.1,0.3-0.1c0,0,0,0,0,0c-0.5,0-0.5,0.3-0.6,0.5
			c-0.1,0.2-0.3,0.4-0.4,0.6c0,0.1,0,0.2,0,0.3c0,0.1,0,0.1-0.1,0.2c-0.1-0.1-0.2-0.1-0.3-0.2C151.2,14,151.2,13.8,151.1,13.6
			C151.1,13.5,151.1,13.5,151.1,13.6C151.1,13.5,151.1,13.5,151.1,13.6z"/>
		<path class="st14" d="M134.8,10.1C134.8,10.1,134.8,10.1,134.8,10.1C134.8,10.1,134.8,10.1,134.8,10.1
			C134.8,10.1,134.8,10.1,134.8,10.1z"/>
		<path class="st14" d="M133.8,12.4c0,0-0.1,0-0.1,0C133.8,12.4,133.8,12.4,133.8,12.4c0.1,0,0.2,0,0.2,0c0,0,0.1,0,0.2,0
			c-0.1,0-0.2,0-0.2-0.1C133.9,12.4,133.9,12.4,133.8,12.4z"/>
		<path class="st14" d="M143.1,13.6c-0.4,0.1-0.7,0.2-0.9,0.5c0,0-0.1,0.1-0.2,0.1c-0.2,0.1-0.4,0.1-0.6,0.2c0,0-0.1,0-0.1,0
			c0,0.1-0.1,0.2-0.1,0.3c0.1,0,0.2,0.1,0.3,0.1c0.1,0,0.1,0,0.2,0.1c0,0,0,0.1,0,0.1c0,0,0,0,0.1,0c0,0,0-0.1,0-0.2
			c0,0,0-0.1-0.2-0.1c-0.1,0-0.2-0.1-0.3-0.1c0-0.1,0.1-0.2,0.1-0.3c0,0,0,0,0.1,0c0.2-0.1,0.4-0.1,0.6-0.2c0.1,0,0.1-0.1,0.2-0.1
			C142.5,13.8,142.8,13.7,143.1,13.6c0.2,0,0.2,0,0.3-0.1c0,0,0,0,0,0c0,0,0,0-0.1,0c0,0,0,0,0,0C143.3,13.6,143.2,13.6,143.1,13.6z
			"/>
		<path class="st14" d="M150.7,26.3C150.6,26.3,150.6,26.3,150.7,26.3C150.6,26.3,150.6,26.3,150.7,26.3
			C150.6,26.3,150.6,26.3,150.7,26.3z"/>
		<path class="st14" d="M150.5,26.3C150.5,26.3,150.5,26.3,150.5,26.3C150.5,26.3,150.5,26.3,150.5,26.3
			C150.4,26.3,150.4,26.3,150.5,26.3z"/>
		<path class="st14" d="M134.3,12.8C134.3,12.8,134.3,12.8,134.3,12.8C134.3,12.8,134.3,12.8,134.3,12.8c-0.1-0.1-0.1-0.2-0.1-0.2
			c0,0,0,0,0,0C134.1,12.6,134.2,12.7,134.3,12.8C134.2,12.8,134.2,12.8,134.3,12.8z"/>
		<path class="st14" d="M154.7,9.2C154.8,9.2,154.8,9.2,154.7,9.2C154.8,9.1,154.8,9.1,154.7,9.2C154.8,9.2,154.8,9.2,154.7,9.2z"/>
		<path class="st14" d="M134.4,22.2c0,0.1,0,0.1,0.1,0.2c0,0,0,0,0,0C134.5,22.3,134.5,22.2,134.4,22.2
			C134.5,22.2,134.5,22.2,134.4,22.2z"/>
		<path class="st14" d="M154,8.4C154,8.4,154,8.4,154,8.4c0,0.1,0,0.2,0.1,0.3c0,0,0,0.1,0,0.1c0,0,0-0.1,0-0.1
			C154.1,8.6,154.1,8.5,154,8.4z"/>
		<path class="st14" d="M135.9,26.7L135.9,26.7c0,0,0-0.1,0-0.1C135.9,26.6,135.9,26.7,135.9,26.7z"/>
		<path class="st14" d="M150.6,26.2C150.6,26.2,150.6,26.2,150.6,26.2C150.6,26.2,150.6,26.3,150.6,26.2
			C150.6,26.3,150.6,26.2,150.6,26.2z"/>
		<path class="st14" d="M135.6,22.2C135.6,22.2,135.6,22.2,135.6,22.2C135.6,22.2,135.6,22.2,135.6,22.2z"/>
		<path class="st14" d="M154.9,8.4C154.9,8.4,154.9,8.4,154.9,8.4C155,8.4,154.9,8.4,154.9,8.4z"/>
		<path class="st14" d="M155,8.4C154.9,8.4,154.9,8.4,155,8.4C154.9,8.4,154.9,8.4,155,8.4C154.9,8.4,154.9,8.4,155,8.4z"/>
		<path class="st14" d="M133.8,21.9c0.2,0.1,0.1,0.3,0.3,0.3c-0.1,0.1-0.2,0.2-0.3,0.3l0,0l0,0c0,0,0,0,0,0c0,0,0,0,0.1,0
			c0.1-0.1,0.2-0.2,0.3-0.3C134,22.2,134.1,21.9,133.8,21.9z"/>
		<path class="st14" d="M133.1,22C133.1,22,133.1,22,133.1,22h0.1C133.2,22,133.2,21.9,133.1,22C133.1,21.9,133.1,21.9,133.1,22
			C133.1,22,133.1,22,133.1,22z"/>
		<path class="st14" d="M134.3,22.8c0-0.1,0.1-0.2,0.1-0.4c-0.1,0.1-0.2,0.1-0.4,0.2C134.2,22.7,134.2,22.7,134.3,22.8z"/>
		<path class="st14" d="M134.1,14c0-0.2,0-0.2-0.1-0.1C134,13.9,134.1,14,134.1,14z"/>
		<path class="st14" d="M153.1,12.3C153.1,12.3,153.1,12.3,153.1,12.3c0,0,0.1,0.1,0.1,0.1c0,0,0,0,0-0.1c0,0,0,0,0,0c0,0,0,0,0,0
			C153.2,12.3,153.2,12.3,153.1,12.3z"/>
		<path class="st14" d="M154.6,9.2C154.7,9.2,154.7,9.2,154.6,9.2C154.7,9.2,154.7,9.2,154.6,9.2C154.6,9.2,154.6,9.2,154.6,9.2z"/>
		<path class="st14" d="M136.8,21.8c0.1,0,0.2-0.1,0.3-0.1c0.1,0,0.2-0.1,0.2-0.1c0.1,0,0.1-0.1,0-0.2c0,0,0-0.1,0-0.2
			c0,0,0-0.1,0-0.2c0-0.3,0.1-0.6,0.2-0.9c0-0.2,0.1-0.5,0.2-0.7c0-0.2,0.1-0.4,0.1-0.6c0,0,0-0.1,0-0.1c-0.2-0.2-0.1-0.3,0-0.5
			c-0.2-0.1-0.4-0.2-0.7-0.2c-0.1,0-0.2,0.1-0.2,0.1c0,0,0,0,0,0c0,0,0,0,0,0c-0.1,0.1-0.1,0.2-0.2,0.3c0,0,0,0,0,0
			c0-0.1,0-0.1,0-0.2c0,0.1,0,0.1,0,0.2c0,0,0-0.1,0-0.1c0,0.2,0,0.4-0.1,0.6c0,0,0,0,0,0.1c0.2,0.2,0.2,0.5,0.2,0.7
			c0,0.3,0,0.6,0,0.9c0,0.3-0.1,0.6-0.2,0.9c0,0.2-0.1,0.3,0,0.5c0,0,0,0,0,0c0,0,0,0.1,0,0.1C136.5,21.9,136.6,21.8,136.8,21.8z"/>
		<path class="st14" d="M154.8,8.5c-0.1,0-0.2,0-0.1,0.1C154.7,8.6,154.7,8.6,154.8,8.5c0,0,0.1,0,0.1-0.1c0,0,0,0,0,0
			C154.9,8.5,154.8,8.5,154.8,8.5z"/>
		<path class="st14" d="M152.5,20.9C152.5,20.9,152.5,20.9,152.5,20.9c-0.1,0-0.1,0-0.1,0.1c0,0.1,0,0.1,0,0.2c0,0,0,0,0,0
			c0.1-0.1,0.2-0.1,0.2-0.1C152.6,21.1,152.5,21,152.5,20.9z"/>
		<path class="st14" d="M132,21.9c-0.1,0-0.2,0-0.3,0c0,0-0.1,0.1-0.1,0.1c0,0.1,0,0.2,0,0.3c0,0.1,0.1,0.2,0.2,0.2
			c0.4,0.1,0.9,0.2,1.4,0.3c0.3,0,0.6,0.2,1,0.1c0,0,0.1,0,0.1-0.1c0,0,0-0.1,0-0.1c-0.1-0.1-0.3-0.1-0.4-0.2
			c-0.4-0.2-0.9-0.3-1.3-0.5c-0.2,0-0.4,0-0.6,0C131.9,22.1,131.9,22,132,21.9C132,22,132,22,132,21.9z"/>
		<path class="st14" d="M135.4,26.5c-0.2-0.2-0.2-0.5-0.1-0.7c0.1-0.3,0.2-0.6,0.3-0.9c0.1-0.2,0.2-0.4,0.2-0.7
			c0.1-0.3,0.1-0.6,0.2-0.9c0,0,0-0.1,0-0.2c0.1-0.2,0-0.7-0.3-0.9c0.3,0.2,0.4,0.7,0.3,0.9c0,0,0,0.1,0,0.2c0,0.3-0.1,0.6-0.2,0.9
			c0,0.2-0.1,0.4-0.2,0.7c-0.1,0.3-0.1,0.6-0.3,0.9C135.1,26,135.1,26.3,135.4,26.5C135.4,26.5,135.4,26.5,135.4,26.5
			c0.1,0.1,0.2,0.2,0.3,0.3c0,0,0,0,0,0C135.7,26.7,135.6,26.6,135.4,26.5C135.5,26.5,135.4,26.5,135.4,26.5z"/>
		<path class="st14" d="M132.1,18.8c0,0,0-0.1,0-0.1c-0.1-0.2-0.2-0.4-0.3-0.5c0-0.1-0.1-0.2,0-0.2c0.2-0.2,0.3-0.4,0.5-0.6
			c0-0.1,0.1-0.1,0.1-0.2c0.1,0,0.3-0.1,0.3-0.1c0.2-0.1,0.4-0.1,0.6-0.1c0,0,0.1,0,0.1,0c-0.1,0-0.1-0.1-0.2,0
			c-0.2,0-0.4,0-0.6,0.1c-0.1,0-0.2,0.1-0.3,0.1c0,0-0.1,0.1-0.1,0.2c-0.2,0.2-0.4,0.4-0.5,0.6c0,0,0,0.1,0,0.2
			c0.1,0.2,0.2,0.4,0.3,0.5C132.1,18.7,132,18.7,132.1,18.8c-0.1,0.2-0.1,0.2,0,0.2C132.1,19,132.1,18.9,132.1,18.8z"/>
		<path class="st14" d="M133.9,17.6c0,0,0.1,0,0.2-0.1c0.1,0,0.1,0,0.2,0C134.2,17.4,134.1,17.4,133.9,17.6L133.9,17.6L133.9,17.6
			C134,17.5,134,17.5,133.9,17.6z"/>
		<path class="st14" d="M143.5,12.6C143.5,12.6,143.5,12.6,143.5,12.6C143.5,12.6,143.5,12.6,143.5,12.6
			C143.5,12.6,143.5,12.6,143.5,12.6z"/>
		<path class="st14" d="M134.7,17.5c0,0,0.1-0.1,0.1-0.1c0,0,0-0.1,0-0.1C134.7,17.4,134.6,17.5,134.7,17.5c-0.1,0-0.1,0.1-0.2,0.1
			C134.5,17.6,134.6,17.6,134.7,17.5z"/>
		<path class="st14" d="M133.4,21.9c0,0-0.1-0.1-0.1-0.1C133.3,21.8,133.4,21.8,133.4,21.9c0,0.1,0.1,0.2,0,0.4c0,0,0,0.1,0.1,0.2
			c0,0,0,0,0,0c0,0-0.1-0.1-0.1-0.2C133.5,22.1,133.5,22,133.4,21.9z"/>
		<path class="st14" d="M148,11.8C148,11.8,148,11.8,148,11.8C148,11.8,147.9,11.8,148,11.8C147.9,11.8,148,11.8,148,11.8z"/>
		<path class="st14" d="M145.2,13.6L145.2,13.6C145.2,13.6,145.2,13.6,145.2,13.6C145.2,13.6,145.2,13.6,145.2,13.6z"/>
		<path class="st14" d="M144.9,13.5C144.9,13.5,144.9,13.6,144.9,13.5C144.9,13.6,145,13.6,144.9,13.5
			C145,13.6,144.9,13.5,144.9,13.5z"/>
		<path class="st14" d="M132.6,21.8c0.6,0,0.7-0.5,0.6-0.8c-0.1-0.4-0.2-0.8-0.4-1.1c0-0.2-0.1-0.3-0.1-0.5c0-0.1-0.1-0.2-0.2-0.2
			c0.1,0,0.1,0.1,0.2,0.2c0,0.2,0.1,0.3,0.1,0.5c0.1,0.4,0.2,0.8,0.4,1.1C133.2,21.3,133.2,21.8,132.6,21.8c-0.2,0-0.3,0-0.5,0
			c0,0,0.1,0.1,0.1,0.1c0,0,0,0,0,0c0,0,0,0-0.1,0C132.4,21.8,132.5,21.8,132.6,21.8z"/>
		<path class="st14" d="M153.8,11.1c0,0.1-0.1,0.1-0.2,0.2c-0.1,0.2-0.2,0.3-0.3,0.5c-0.1,0.2-0.1,0.2-0.3,0.1c0,0,0,0,0,0.1
			c0.1,0,0.1,0,0.2-0.1c0.1-0.2,0.2-0.3,0.3-0.5C153.7,11.3,153.8,11.2,153.8,11.1c0.1-0.1,0.2-0.3,0.3-0.5c0.2-0.4,0.4-0.8,0.6-1.2
			c0,0,0,0,0,0c-0.2,0.4-0.4,0.8-0.6,1.2C154,10.7,153.9,10.9,153.8,11.1z"/>
		<path class="st14" d="M139.6,15.8C139.6,15.8,139.6,15.8,139.6,15.8c0,0,0.1,0,0.1,0.1C139.6,15.9,139.6,15.8,139.6,15.8z"/>
		<path class="st14" d="M145.6,16.4C145.6,16.4,145.6,16.4,145.6,16.4c-0.1,0-0.1,0-0.1-0.1c0,0,0,0,0.1,0c0,0,0,0,0,0
			c0,0,0,0-0.1,0C145.5,16.3,145.5,16.4,145.6,16.4c-0.1,0.1-0.1,0.2-0.1,0.2c0,0,0.1,0,0.1,0C145.6,16.5,145.6,16.4,145.6,16.4
			L145.6,16.4C145.6,16.4,145.6,16.4,145.6,16.4L145.6,16.4L145.6,16.4L145.6,16.4c0.1,0.1,0.1,0.1,0.2,0.1c0,0,0,0,0,0
			C145.8,16.4,145.7,16.4,145.6,16.4z"/>
		<polygon class="st14" points="152,16.9 152,16.9 152,16.9 		"/>
		<path class="st14" d="M152.1,17.5c0,0.1,0,0.1,0,0.2c0,0,0,0,0,0c0,0,0.1,0.1,0.1,0.1c0,0,0,0,0-0.1c0-0.2,0.1-0.4,0.1-0.6
			c0,0-0.1,0-0.1-0.1C152.2,17.2,152.2,17.3,152.1,17.5z"/>
		<path class="st14" d="M151.6,16.1c0.2,0,0.2,0.1,0.2,0.2c0,0,0,0,0,0C151.8,16.2,151.8,16.1,151.6,16.1c-0.4,0-0.7,0-1.1,0
			c-0.1,0-0.1,0-0.2,0.1c0,0,0.1-0.1,0.2-0.1C150.9,16.1,151.2,16.1,151.6,16.1z"/>
		<path class="st14" d="M151.3,16.7C151.3,16.6,151.3,16.6,151.3,16.7c0.2-0.1,0.3-0.1,0.4,0c0,0,0,0,0,0c0,0,0,0,0,0
			C151.5,16.5,151.4,16.5,151.3,16.7C151.3,16.6,151.3,16.6,151.3,16.7C151.3,16.6,151.3,16.6,151.3,16.7z"/>
		<path class="st14" d="M140.1,15.4c0.2,0.3,0.3,0.6,0.5,0.8c0,0,0.1,0.1,0.1,0.1c0,0-0.1,0-0.1-0.1C140.5,16,140.3,15.7,140.1,15.4
			c-0.1-0.2-0.1-0.2-0.3-0.3c0.1,0,0.2,0.1,0.2,0.1C140,15.3,140,15.3,140.1,15.4z"/>
		<path class="st14" d="M151,16.7C151,16.6,151,16.6,151,16.7c0,0-0.1,0-0.2,0c0,0,0,0.1,0.1,0.1c0,0,0-0.1-0.1-0.1
			C150.9,16.7,151,16.6,151,16.7z"/>
		<path class="st14" d="M138.4,16.1c0,0.1-0.1,0.2-0.1,0.3c0,0,0.1,0,0.1,0.1c0,0,0,0,0,0c0,0,0,0,0.1,0.1c0,0,0-0.1,0-0.1
			C138.5,16.4,138.4,16.3,138.4,16.1L138.4,16.1C138.4,16.1,138.4,16.1,138.4,16.1z"/>
		<path class="st14" d="M136,17.4C136,17.4,136,17.4,136,17.4c0,0.1,0,0.2,0,0.3c0,0.2,0,0.3,0,0.5c0,0.2-0.1,0.5,0.1,0.7
			c0,0,0,0,0,0.1c0,0.3,0,0.5,0,0.8c0,0,0,0,0,0c0,0.1,0,0.3,0,0.4c0,0.2,0,0.4-0.2,0.5c0,0,0,0,0,0.1c0.2-0.2,0.2-0.4,0.2-0.6
			c0-0.4,0-0.8,0-1.2c0,0,0-0.1,0-0.1c-0.2-0.2-0.1-0.4-0.1-0.7C136.1,17.9,136.1,17.7,136,17.4C136.1,17.4,136.1,17.4,136,17.4
			c-0.1-0.2-0.3-0.5-0.6-0.6c0,0,0,0-0.1,0C135.7,16.9,135.8,17.2,136,17.4z"/>
		<path class="st14" d="M151.9,16.8C151.9,16.8,151.9,16.8,151.9,16.8c-0.1-0.1-0.2-0.1-0.3-0.1C151.7,16.7,151.8,16.7,151.9,16.8
			C151.9,16.8,151.9,16.8,151.9,16.8z"/>
		<path class="st14" d="M139.9,16.5C139.9,16.5,139.9,16.6,139.9,16.5c0,0.1,0,0.1,0.1,0.1C140,16.6,140,16.6,139.9,16.5
			C140,16.6,140,16.6,139.9,16.5C140,16.5,140,16.5,139.9,16.5C140,16.5,140,16.5,139.9,16.5z"/>
		<path class="st14" d="M141.9,15.9c0,0.3-0.1,0.6-0.1,0.9c0,0.1,0,0.1-0.1,0.2c-0.1,0.1-0.1,0.2-0.2,0.3c-0.1,0.2-0.2,0.5-0.2,0.7
			c0,0.1-0.1,0.2-0.1,0.4c0,0.3,0,0.7,0,1c0,0,0,0,0,0c0,0.4,0,0.9,0,1.3c0,0.1,0,0.2,0.1,0.2c-0.1-0.1-0.1-0.1-0.1-0.2
			c0-0.8,0-1.5-0.1-2.3c0-0.1,0-0.2,0.1-0.4c0.1-0.3,0.2-0.7,0.4-1c0-0.1,0-0.1,0.1-0.2C141.8,16.5,141.9,16.2,141.9,15.9
			c0.1-0.2,0-0.3-0.1-0.3C141.9,15.6,141.9,15.7,141.9,15.9z"/>
		<path class="st14" d="M148.9,17.6c0,0,0.1,0.1,0.2,0.1C149.1,17.5,149.1,17.5,148.9,17.6z"/>
		<path class="st14" d="M145.8,16.5C145.8,16.5,145.8,16.5,145.8,16.5c0.2,0,0.3,0.1,0.5,0.2c0,0,0,0,0,0
			C146.1,16.6,146,16.5,145.8,16.5z"/>
		<path class="st14" d="M145.8,16.8C145.8,16.7,145.8,16.7,145.8,16.8C145.7,16.7,145.7,16.7,145.8,16.8
			C145.8,16.7,145.8,16.8,145.8,16.8C145.8,16.8,145.8,16.8,145.8,16.8z"/>
		<path class="st14" d="M141.7,15.5C141.7,15.5,141.7,15.5,141.7,15.5c-0.1,0-0.1-0.1-0.2-0.2c0,0,0,0,0,0
			C141.6,15.4,141.6,15.4,141.7,15.5C141.7,15.4,141.7,15.5,141.7,15.5z"/>
		<path class="st14" d="M150.4,16.9c0,0.1-0.1,0.2-0.1,0.2c0,0,0,0,0,0c0,0,0,0,0,0.1c0-0.1,0.1-0.2,0.1-0.3c0.1,0,0.3-0.1,0.5-0.1
			c0,0-0.1,0-0.1,0C150.8,16.8,150.6,16.9,150.4,16.9z"/>
		<path class="st14" d="M143.4,16.1c0,0,0.2,0,0.2,0c0-0.1-0.1-0.2-0.2-0.3c0,0-0.1,0-0.1,0C143.3,16,143.3,16.1,143.4,16.1z"/>
		<path class="st14" d="M150.2,16.4C150.1,16.4,150.1,16.4,150.2,16.4C150.1,16.4,150.1,16.4,150.2,16.4
			C150.1,16.4,150.1,16.4,150.2,16.4C150.2,16.4,150.2,16.4,150.2,16.4z"/>
		<path class="st14" d="M141,15.4C141,15.5,141,15.5,141,15.4c0,0.1,0,0.2,0,0.2C141,15.6,141,15.5,141,15.4c0.1,0,0.1-0.1,0.1-0.1
			C141.1,15.3,141.1,15.3,141,15.4C141,15.3,141,15.4,141,15.4z"/>
		<path class="st14" d="M139.5,19.3C139.5,19.4,139.5,19.3,139.5,19.3c-0.1,0-0.2-0.1-0.2-0.2c0-0.2,0-0.3,0-0.5
			c0,0.1,0,0.3-0.1,0.4c0,0,0,0.1,0,0.1C139.3,19.2,139.4,19.3,139.5,19.3z"/>
		<path class="st14" d="M134.9,18.7c0,0-0.1,0.1-0.1,0.1c0,0,0,0,0,0c0,0,0,0-0.1,0c0,0,0.1,0,0.1,0C134.9,18.8,135,18.7,134.9,18.7
			c0.1,0,0.1,0,0.1,0c0,0,0-0.1,0-0.1C135,18.5,134.9,18.6,134.9,18.7z"/>
		<path class="st14" d="M139.9,18.6C139.9,18.6,139.9,18.6,139.9,18.6C139.9,18.6,140,18.6,139.9,18.6
			C140,18.6,139.9,18.6,139.9,18.6C139.9,18.6,139.9,18.6,139.9,18.6z"/>
		<path class="st14" d="M149.8,18.4c0,0,0-0.1,0-0.1c0,0,0,0,0-0.1c0,0,0-0.1,0-0.1c0.1-0.2,0.2-0.4,0.2-0.6c0,0,0,0,0,0
			c0,0,0,0,0,0c0,0,0,0-0.1,0c0,0-0.1,0-0.1,0.1c-0.1,0.2-0.1,0.4-0.2,0.6c-0.1,0.2-0.2,0.2-0.4,0.1c0,0-0.1,0.1-0.1,0.1
			c0,0,0,0,0,0c0,0,0,0,0,0c0.3,0,0.4,0,0.4,0.2C149.7,18.6,149.8,18.5,149.8,18.4z"/>
		<path class="st14" d="M135,19.2C135,19.2,135,19.2,135,19.2c0.1,0,0.2,0,0.3,0c0,0,0,0,0,0C135.3,19.2,135.2,19.2,135,19.2z"/>
		<path class="st14" d="M148.1,17.9c0,0.1-0.1,0.2-0.2,0.3c-0.1,0.1-0.2,0.2-0.2,0.3c0,0.2,0,0.5,0,0.7c0,0.1,0,0.2,0,0.3
			c0,0,0,0,0,0c0,0.2,0,0.4,0,0.5c0.1,0.3,0.1,0.6,0,0.9c-0.1,0.2-0.1,0.5,0,0.7c0.1,0.2,0.2,0.5,0.4,0.7c0,0,0,0.1,0.1,0.1
			c0,0.1,0.1,0.1,0.1,0.2c0.1,0.1,0.2,0.3,0.3,0.4c0.1,0.1,0.1,0.2,0.2,0.3c0,0,0,0.1,0,0.1c0.1,0.4,0.2,0.8,0.2,1.2
			c0,0,0,0.1,0,0.1l0,0c0,0.2,0.2,0.4,0.3,0.7c0,0,0.1,0,0.1-0.1c-0.1-0.2-0.2-0.4-0.2-0.7c0-0.6-0.1-1.1-0.4-1.7
			c-0.1-0.2-0.3-0.4-0.4-0.6c-0.1-0.3-0.3-0.5-0.4-0.8c-0.1-0.2-0.1-0.5,0-0.7c0.1-0.3,0-0.6,0-0.9c-0.1-0.3,0-0.6,0-0.9
			c0-0.2,0-0.5,0-0.7c0-0.1,0.1-0.2,0.2-0.3c0.1-0.1,0.1-0.2,0.2-0.3c0-0.1,0.1-0.1,0.1-0.2c0,0,0-0.1,0-0.2c0,0,0,0-0.1,0
			c0,0-0.1,0.1-0.1,0.1c0,0,0,0,0,0.1C148.2,17.8,148.1,17.8,148.1,17.9z"/>
		<path class="st14" d="M146.2,18.1c0,0-0.1,0-0.1,0.1c0,0,0,0,0,0c0,0,0,0,0,0.1C146.1,18.3,146.1,18.2,146.2,18.1
			C146.1,18.2,146.2,18.2,146.2,18.1C146.2,18.1,146.2,18.1,146.2,18.1C146.2,18.1,146.2,18.1,146.2,18.1z"/>
		<path class="st14" d="M135.4,20.1C135.4,20.1,135.4,20.1,135.4,20.1c0.1,0,0.2,0,0.2,0c0,0,0,0,0,0
			C135.6,20.1,135.5,20.1,135.4,20.1z"/>
		<path class="st14" d="M148.9,20.1L148.9,20.1c-0.1,0.1-0.1,0.2-0.2,0.2h0C148.8,20.3,148.9,20.2,148.9,20.1z"/>
		<path class="st14" d="M141.7,21c0.1,0.2,0.1,0.4,0.1,0.7c0.1,0.4,0.1,0.8,0,1.2c0,0.1,0,0.2,0,0.3c-0.1,0.5,0,0.9,0.2,1.4
			c0,0.1,0.1,0.1,0.1,0.1c0,0-0.1-0.1-0.1-0.1c-0.3-0.4-0.3-0.9-0.2-1.4c0.1-0.5,0.1-1,0-1.5C141.8,21.5,141.7,21.3,141.7,21
			c0,0,0-0.1-0.1-0.1C141.6,20.9,141.6,21,141.7,21z"/>
		<path class="st14" d="M145.1,22.8c0,0.1,0,0.2,0,0.3c0,0.1,0,0.2,0.1,0.3c0.1,0.2,0,0.3,0.1,0.5c0,0,0,0,0,0c0-0.2,0-0.3-0.1-0.5
			C145.1,23.2,145.1,23,145.1,22.8c0-0.2-0.1-0.4-0.2-0.5C145,22.4,145.1,22.6,145.1,22.8C145.1,22.8,145.1,22.8,145.1,22.8z"/>
		<path class="st14" d="M143.6,20.7L143.6,20.7C143.6,20.7,143.6,20.7,143.6,20.7C143.6,20.7,143.6,20.6,143.6,20.7
			C143.5,20.7,143.5,20.7,143.6,20.7C143.5,20.7,143.5,20.7,143.6,20.7C143.6,20.8,143.6,20.7,143.6,20.7z"/>
		<path class="st14" d="M137.2,21.8C137.2,21.8,137.2,21.8,137.2,21.8C137.2,21.8,137.2,21.8,137.2,21.8z"/>
		<path class="st14" d="M142.5,26.2C142.5,26.2,142.5,26.2,142.5,26.2C142.5,26.2,142.5,26.2,142.5,26.2
			C142.5,26.2,142.5,26.2,142.5,26.2C142.5,26.2,142.5,26.2,142.5,26.2z"/>
		<path class="st14" d="M136.6,26.3c0.1,0,0.2,0,0.2,0C136.8,26.4,136.7,26.3,136.6,26.3z"/>
		<path class="st14" d="M142.2,26.1C142.2,26.1,142.2,26.1,142.2,26.1c0.1,0,0.1,0,0.2,0.1c0,0,0,0,0,0
			C142.4,26.2,142.3,26.1,142.2,26.1z"/>
		<path class="st14" d="M142,26.4c0,0-0.1-0.1-0.1-0.2c0-0.3,0.1-0.5,0.5-0.6c0.1,0,0.1-0.1,0.2-0.1c0.1-0.1,0.2-0.1,0.2-0.1
			c-0.1-0.1-0.2,0-0.3,0.1c-0.1,0-0.1,0.1-0.2,0.1c-0.4,0-0.5,0.2-0.5,0.6C141.9,26.3,141.9,26.4,142,26.4z"/>
		<path class="st14" d="M142.3,26.1C142.3,26.1,142.3,26.1,142.3,26.1c0,0.1,0.1,0.1,0.1,0.1c0,0,0,0,0,0
			C142.4,26.2,142.4,26.1,142.3,26.1z"/>
		<path class="st14" d="M143.2,26.2c0,0,0.1,0,0.1,0C143.3,26.2,143.3,26.2,143.2,26.2C143.2,26.2,143.2,26.2,143.2,26.2L143.2,26.2
			c0,0,0.1,0,0.1,0C143.2,26.3,143.2,26.3,143.2,26.2L143.2,26.2z"/>
		<path class="st14" d="M142.7,26.4C142.7,26.4,142.7,26.4,142.7,26.4c-0.2,0-0.3,0-0.5-0.1c0,0,0,0,0,0
			C142.3,26.4,142.5,26.4,142.7,26.4z"/>
		<path class="st14" d="M142.4,25.8c0.1,0,0.1,0,0.2,0.1C142.5,25.8,142.5,25.8,142.4,25.8z"/>
		<path class="st14" d="M142.8,26.3C142.8,26.3,142.8,26.2,142.8,26.3c0-0.2,0-0.3-0.1-0.4C142.8,26,142.8,26.1,142.8,26.3z"/>
		<path class="st14" d="M143.4,25.8c0,0.1,0,0.2,0.1,0.3c-0.1,0-0.2,0-0.2,0c0,0,0,0,0,0c0.1,0,0.2,0,0.2,0c0,0,0,0,0,0
			c0,0,0,0,0.1,0c0,0,0,0,0,0C143.4,26,143.4,25.9,143.4,25.8c0.1-0.1,0-0.3-0.2-0.3C143.4,25.5,143.5,25.6,143.4,25.8z"/>
		<path class="st14" d="M143.1,24.7c0,0.2,0.1,0.5-0.3,0.7c0,0,0,0,0,0.1c0,0,0,0,0.1,0c0,0,0,0,0,0C143.2,25.2,143.2,25,143.1,24.7
			c0,0,0-0.1-0.1-0.2c0,0,0,0,0,0c0,0,0,0,0.1,0C143.1,24.6,143.1,24.6,143.1,24.7z"/>
		<path class="st14" d="M143.9,26c-0.1,0-0.1,0-0.3,0c0,0,0,0,0,0C143.8,26.1,143.9,26.1,143.9,26L143.9,26L143.9,26z"/>
		<path class="st14" d="M142.2,24.7C142.2,24.7,142.2,24.7,142.2,24.7C142.2,24.7,142.2,24.7,142.2,24.7z"/>
		<path class="st14" d="M138.7,24.3c0.1,0.2,0.2,0.3,0.4,0.4c0,0,0,0,0,0C139,24.6,138.9,24.5,138.7,24.3c-0.1-0.2-0.2-0.4-0.4-0.5
			c-0.1-0.1-0.4-0.2-0.6-0.3c0,0,0,0,0,0c0.2,0.1,0.4,0.2,0.5,0.3C138.4,24,138.6,24.1,138.7,24.3z"/>
		<path class="st14" d="M149.5,26c-0.1,0.1-0.1,0.2-0.1,0.3C149.4,26.2,149.5,26.1,149.5,26z"/>
		<path class="st14" d="M134.5,16.2c-0.1-0.3,0-0.5,0.1-0.8c0-0.1,0.1-0.2,0-0.3c0-0.1-0.1-0.2-0.2-0.2c0,0,0,0-0.1,0
			c0.1,0.1,0.2,0.1,0.2,0.2c0,0.1,0,0.2,0,0.3c0,0,0,0,0,0C134.4,15.7,134.3,15.9,134.5,16.2c-0.1,0-0.1,0.1-0.1,0.2
			c0,0,0,0.1,0,0.1c0,0,0,0,0,0c0,0,0,0,0.1,0c0,0,0,0,0,0C134.5,16.4,134.5,16.3,134.5,16.2z"/>
		<path class="st14" d="M153.4,12.6C153.4,12.6,153.4,12.6,153.4,12.6c-0.2,0.1-0.4,0.1-0.6,0c0,0,0,0,0,0.1c0,0,0.1,0,0.1,0.1
			C153.1,12.8,153.3,12.7,153.4,12.6z"/>
		<path class="st14" d="M136.4,26c-0.3-0.3-0.4-0.3-0.7-0.1c0,0,0,0.1,0,0.1C136,26,136.2,26,136.4,26z"/>
		<path class="st14" d="M136.1,26.8c-0.1,0-0.2,0-0.2,0C135.9,26.7,135.9,26.8,136.1,26.8C136,26.8,136,26.8,136.1,26.8z"/>
		<path class="st15" d="M136.3,26.3c0.2,0,0.4,0,0.7,0c0,0,0-0.1-0.1-0.1c-0.1-0.1-0.2-0.1-0.3-0.2c0,0,0,0-0.1-0.1
			c0,0-0.1-0.1-0.1-0.1c-0.1-0.2-0.1-0.4,0-0.6c0.2-0.2,0.4-0.5,0.5-0.8c0,0,0.1-0.1,0.1-0.1c0,0,0.1-0.1,0.1-0.1
			c0.1-0.2,0.2-0.4,0.3-0.6c0-0.1,0.2-0.2,0.3-0.1c0,0,0,0,0,0c0.2,0.1,0.4,0.2,0.6,0.3c0.2,0.1,0.4,0.3,0.5,0.5
			c0.1,0.2,0.2,0.3,0.4,0.4c0,0,0,0,0,0c0.2,0.1,0.4,0.1,0.5,0.2c0.2,0.1,0.4,0.1,0.6-0.1c-0.1-0.3-0.2-0.5-0.3-0.8
			c-0.1-0.2-0.1-0.4-0.3-0.5c0,0,0,0,0-0.1c-0.1-0.2-0.2-0.3-0.3-0.5c-0.1-0.1-0.1-0.2-0.2-0.4c0,0,0-0.1,0-0.1c0-0.2,0-0.4,0-0.7
			c0-0.6,0.1-1.1-0.2-1.7c0-0.1,0-0.2,0-0.3c0-0.1,0.1-0.2,0.1-0.2c0,0,0,0,0,0c0.1-0.1,0.1-0.2,0.1-0.3c0-0.1,0-0.1,0-0.2
			c0-0.1,0-0.3,0.1-0.4c0,0.2,0,0.3,0,0.5c0,0.1,0.1,0.1,0.2,0.2c0,0,0,0,0,0c0.1,0,0.2,0,0.3,0c0.1-0.1,0.2-0.3,0.3-0.5
			c0.1-0.1,0-0.3-0.2-0.3c0,0-0.1,0-0.1,0c0,0,0,0,0,0c0,0,0,0,0,0c0-0.1,0-0.1,0-0.1c0.2,0,0.2-0.1,0.2-0.3c0-0.3,0-0.6,0-0.9
			c0,0,0,0,0,0c0-0.2,0-0.5-0.1-0.7c0,0,0,0,0,0c0,0,0,0,0,0c0,0,0,0.1,0,0.1c0,0,0-0.1-0.1-0.1c-0.1-0.2-0.2-0.4-0.2-0.6
			c0,0,0,0-0.1,0c0,0-0.1,0-0.1-0.1c0,0,0,0,0,0c-0.2-0.2-0.1-0.4,0-0.6c0,0,0-0.1,0-0.1c0.1,0,0.1,0,0.2,0c0.2,0,0.3,0.1,0.4,0.3
			c0.1,0.3,0.3,0.6,0.5,0.8c0,0,0.1,0,0.1,0.1c0.1,0,0.1,0.1,0.1,0c0.2-0.1,0.4-0.2,0.4-0.4c0-0.2,0.1-0.4,0.2-0.6c0,0,0,0,0,0
			c0.1,0.1,0.1,0.2,0.1,0.2c0,0,0,0,0,0c0,0,0.1,0,0.1,0.1c0.1,0.1,0.2,0.2,0.1,0.4c0,0.3-0.1,0.6-0.1,0.9c0,0.1,0,0.1-0.1,0.2
			c-0.2,0.3-0.3,0.7-0.4,1c0,0.1-0.1,0.2-0.1,0.4c0,0.8,0,1.5,0.1,2.3c0,0.1,0,0.2,0.1,0.2c0,0,0.1,0,0.2,0l0,0c0,0,0.1,0.1,0.1,0.1
			c0,0.2,0.1,0.4,0.1,0.7c0.1,0.5,0.1,1,0,1.5c-0.1,0.5,0,1,0.2,1.4c0,0,0.1,0.1,0.1,0.1c0,0,0,0,0.1,0c0,0,0,0,0,0
			c0.1,0,0.2,0,0.3,0c0.1,0,0.1-0.1,0.2-0.1c0.1,0,0.2-0.1,0.2-0.1c0,0,0,0,0,0c0.1,0,0.2,0.1,0.2,0.2c0,0.3,0.1,0.5-0.3,0.7
			c0,0,0,0,0,0c0,0,0,0,0,0c0.1,0,0.2,0,0.3,0c0.1,0,0.1,0,0.2,0c0.2,0.1,0.3,0.2,0.2,0.3c0,0.1,0,0.2,0.1,0.3c0,0,0,0,0,0
			c0,0,0,0,0,0c0.1,0,0.2,0,0.3-0.1v0c0,0,0,0,0,0c-0.1,0-0.2,0-0.3,0c0,0,0,0,0,0c0.3-0.1,0.4-0.4,0.4-0.6c0-0.5-0.1-1-0.1-1.5
			c0,0,0,0,0,0c0-0.2,0-0.5,0-0.7c0-0.1,0-0.2,0-0.4c0-0.1,0-0.2,0-0.3c0-0.1,0-0.3,0-0.4c0-0.1,0-0.2,0-0.2c0.1,0,0.2,0,0.3,0
			c0.1,0.1,0.3,0.2,0.4,0.2c0.1,0,0.1,0.1,0.1,0.1c0.2,0.1,0.2,0.3,0.3,0.5c0,0.2,0,0.5,0.1,0.7c0.1,0.1,0.1,0.3,0.1,0.5
			c0,0,0,0,0,0.1c0,0,0-0.1,0-0.1c0-0.4,0-0.8,0-1.2c0-0.2,0-0.4,0-0.5c0-0.3-0.1-0.6-0.1-1c0-0.4,0.1-0.7,0.1-1.1
			c0-0.2,0.1-0.4,0.1-0.6c0,0,0,0,0,0c0,0,0,0,0,0c0,0,0,0,0,0c0.3,0,0.2-0.3,0.2-0.4c0-0.2,0-0.4,0.1-0.6c0.1,0,0.1,0.1,0.3,0.2
			c0-0.2,0.1-0.3,0.1-0.4c0,0,0,0,0-0.1c0,0,0,0,0,0c0,0-0.1,0-0.1,0.1c0,0,0,0.1,0,0.1c0,0,0,0,0-0.1c0-0.1,0-0.2,0-0.2
			c0-0.2-0.2-0.4-0.1-0.7c0,0,0,0,0-0.1c0,0,0,0,0-0.1c0-0.1-0.1-0.3-0.1-0.5c0,0,0,0,0,0c0,0,0,0,0,0c0,0,0.1,0.1,0.1,0.1
			c0,0,0,0,0,0c0.2,0,0.3,0,0.5,0c0,0,0,0,0,0c-0.2-0.1-0.3-0.2-0.5-0.2c0,0,0,0,0,0c0,0,0,0,0,0c0,0,0,0,0,0c0,0-0.1,0-0.2-0.1
			c0,0,0,0.1,0,0.2c0,0-0.1,0-0.1,0c-0.1,0-0.2,0-0.2,0c-0.1-0.2-0.5-0.2-0.5-0.5c0,0,0,0-0.1,0c0.2-0.1,0-0.3,0-0.4
			c0-0.1,0-0.2-0.1-0.3c0-0.3,0-0.5,0.1-0.8c0.1-0.3,0.2-0.6,0.2-0.9c0,0,0,0,0,0c0,0,0,0,0,0.1c0,0.1,0.1,0.1,0.2,0v0v0
			c0,0,0,0,0.1,0.1c0,0,0.1,0,0.1,0.1c0.1-0.2,0.2-0.4,0.3-0.6c0.1-0.3,0.2-0.7,0.4-1c0.2-0.4,0.4-0.8,0.5-1.2c0,0,0.1-0.1,0.1-0.1
			c0,0,0,0,0,0c0,0,0.1,0,0.1,0.1c0.1,0.3,0.3,0.6,0.2,1c0,0,0,0,0,0c0,0.1,0.1,0.1,0.1,0.2c0.1,0.2,0.1,0.5,0.2,0.8
			c0,0.1,0,0.2,0.1,0.4c0,0,0,0,0,0.1c0,0,0,0.1,0.1,0.1c0.2-0.2,0.3-0.5,0.5-0.6c0.2-0.2,0.3-0.3,0.1-0.5c0,0,0,0-0.1,0
			c-0.1,0-0.2,0-0.3,0c0,0,0,0,0,0c0-0.1-0.1-0.2-0.1-0.2l0,0c0.1,0,0.2,0,0.3,0c0-0.1,0-0.1,0-0.2c0,0,0,0,0,0l0,0c0,0,0,0,0,0
			c0,0,0,0-0.1,0c0,0,0,0,0,0c-0.1-0.1-0.2,0-0.3,0.1c0,0,0-0.1,0-0.1c0.1,0,0.1-0.1,0.1-0.1c0-0.1-0.1-0.2-0.1-0.3
			c0-0.1-0.1-0.3-0.1-0.5c0-0.1-0.1-0.2-0.1-0.3c0-0.1-0.1-0.2-0.1-0.3c0-0.3,0-0.6,0-0.9c0-0.1-0.1-0.2-0.1-0.4c0,0,0,0,0.1,0
			c-0.3-0.4-0.3-0.4-0.3-0.5c0,0,0.1,0,0.2,0.1c0-0.2,0-0.2-0.1-0.3c-0.1,0-0.2,0-0.3,0c0,0-0.1,0.1-0.1,0.1
			c-0.2,0.2-0.2,0.4-0.1,0.6c0,0.1,0,0.2,0,0.3c0,0.2-0.1,0.4-0.2,0.6c-0.1,0.2-0.2,0.5-0.3,0.7c-0.1,0.5-0.4,0.9-0.8,1.3
			c-0.3,0.3-0.3,0.5,0,0.9c0,0,0,0,0,0c0,0,0-0.1,0-0.1c0,0,0,0,0,0c0-0.1-0.1-0.2-0.1-0.3c0,0,0,0,0,0c0,0,0,0,0,0
			c-0.2,0.1-0.3,0.3-0.2,0.4c0.1,0.1,0.1,0.3,0.2,0.5c-0.1-0.1-0.1-0.2-0.2-0.3c-0.1-0.1-0.1-0.2-0.2-0.3c0,0-0.1,0-0.1,0.1
			c-0.2,0.2-0.4,0.3-0.6,0.5c0,0,0.1-0.1,0.1-0.1c0.1-0.1,0.1-0.1-0.1-0.2c0-0.1,0.1-0.2,0.1-0.2c-0.2-0.1-0.3-0.1-0.4-0.1
			c0,0,0,0,0.1,0c0,0-0.1,0-0.1,0c0,0,0,0,0,0c0,0,0,0,0.1,0c0,0,0,0,0,0c0,0,0,0,0,0c0,0,0,0,0,0c0,0-0.1,0-0.1-0.1
			c0.1,0,0.2-0.1,0.3-0.2c0,0,0-0.1,0-0.1c-0.1-0.1-0.2-0.2-0.3-0.2c0,0,0,0-0.1,0c0,0-0.1,0-0.2,0c0,0-0.1,0-0.1,0
			c0-0.1,0-0.1,0-0.2c0.1,0,0.2,0,0.4,0c-0.1-0.1-0.3-0.1-0.4-0.1c-0.1,0-0.3,0-0.4,0.1c0,0,0,0,0,0c0,0-0.1-0.1-0.2-0.1
			c0,0,0,0,0,0c0,0.1-0.1,0.1-0.1,0.2c0,0,0,0.1,0,0.1c0,0.2,0,0.5,0,0.8c0,0.1,0.1,0.3,0.2,0.4c0.1,0.2,0.3,0.3,0.2,0.5
			c0,0,0,0,0,0c0.2-0.1,0.5-0.1,0.7-0.2c0,0,0,0,0.1,0c0,0,0,0,0,0c-0.1,0-0.2,0-0.3,0.1c-0.4,0.1-0.7,0.2-0.9,0.5
			c0,0-0.1,0.1-0.2,0.1c-0.2,0.1-0.4,0.1-0.6,0.2c0,0-0.1,0-0.1,0c0,0.1,0,0.2-0.1,0.3c0.1,0,0.2,0.1,0.3,0.1c0.1,0,0.1,0,0.2,0.1
			c0,0,0,0.1,0,0.2c0,0,0,0-0.1,0c0,0-0.1,0-0.1,0c-0.1,0-0.1,0-0.1,0c0,0,0,0-0.1,0c-0.1,0.1-0.1,0.2-0.1,0.2c0,0,0,0-0.1,0
			c0,0,0,0-0.1,0c0,0,0,0,0,0c0,0-0.1,0-0.1,0.1c0,0-0.1,0.1-0.1,0.2c0,0,0-0.1,0-0.1c0-0.1,0-0.1,0-0.2c0,0,0,0,0-0.1
			c0-0.1-0.1-0.2-0.1-0.3c0.1,0,0.3,0,0.5-0.1c-0.2-0.1-0.3-0.1-0.4-0.2c0.2-0.1,0.3-0.3,0.1-0.4c0,0,0,0,0,0c0,0,0,0,0.1,0
			c0,0,0,0,0.1,0c0-0.2,0-0.4,0-0.6c0,0-0.1-0.1-0.2-0.1c-0.1,0-0.1,0-0.2,0c-0.1,0-0.2,0-0.2,0c-0.2,0-0.4,0.1-0.5,0.1
			c-0.2,0.2-0.4,0.4-0.6,0.6c0,0,0,0,0-0.1c-0.1-0.2-0.1-0.4-0.2-0.6c-0.1-0.2-0.1-0.3-0.2-0.5c-0.1-0.1-0.1-0.2-0.1-0.3
			c0-0.1,0-0.1,0-0.2c0-0.1,0.1-0.6,0.1-0.6c0,0,0,0,0,0c-0.3-0.1-0.6-0.3-0.8-0.4c0-0.1,0-0.2,0.1-0.3c0,0-0.1,0-0.1,0c0,0,0,0,0,0
			c-0.1,0.1-0.3,0.1-0.4,0.1c-0.1,0-0.2,0-0.3-0.1c0,0-0.1,0-0.2,0c-0.1,0-0.2,0.1-0.2,0.1c-0.1,0.2-0.1,0.4-0.2,0.7
			c-0.1,0-0.1,0-0.3,0.1c0,0,0,0,0,0c0,0,0-0.1,0-0.2c0,0,0,0,0,0c0,0,0,0,0,0c-0.1,0.1-0.2,0.1-0.2,0.2c-0.1,0.1-0.2,0.2-0.2,0.3
			c0,0.2-0.1,0.3-0.2,0.4c-0.2,0.1-0.2,0.4,0.1,0.4c-0.1,0.1,0,0.4-0.2,0.5c0,0,0,0,0,0c-0.1-0.1-0.2-0.3-0.3-0.4
			c-0.1-0.1-0.1-0.2-0.2-0.4c-0.1-0.1-0.2-0.2-0.4-0.2c0,0,0,0-0.1,0c0,0,0,0.1,0,0.1c0,0,0,0-0.2,0c-0.1,0.1-0.5,0.1-0.7,0
			c0,0,0,0-0.1,0c0,0-0.1-0.1,0-0.1c0,0,0.1-0.1,0.1-0.1c0.1,0,0.2,0,0.4,0c0,0,0,0,0,0c0,0,0.1,0.1,0.1,0.2c0,0,0,0,0,0
			c0,0,0,0,0,0c0,0,0,0,0,0c0,0,0,0,0,0c0-0.1,0.1-0.2,0-0.2c-0.1,0-0.1-0.1-0.2-0.1c-0.1,0-0.1,0-0.2,0c0,0-0.1,0-0.1,0
			c-0.1,0-0.1,0-0.2,0c-0.1,0-0.1-0.1-0.1-0.2c0,0,0-0.1,0-0.2c0.1-0.3,0.1-0.6,0.2-0.9c0.1-0.2,0.2-0.4,0.5-0.5c0,0,0.1,0,0.1-0.1
			c0-0.1,0-0.2,0-0.2c0.1-0.1,0.3-0.1,0.4-0.2c0,0,0,0,0,0c0,0-0.1,0-0.1,0c0,0,0,0,0,0c-0.1,0-0.1-0.2-0.2-0.1c0,0-0.1,0-0.1,0
			c0,0,0,0,0,0c0-0.1-0.1-0.2-0.2-0.3c0,0,0,0-0.1,0c-0.3,0-0.5,0.1-0.6,0.4c-0.1,0.2-0.1,0.4-0.2,0.6c-0.1,0.2-0.4,0.5-0.5,0.7
			c-0.2,0.4-0.4,0.8-0.6,1.2c-0.1,0.2,0,0.4,0.1,0.5c0.1,0.1,0.2,0.2,0.2,0.4c0.1,0.1,0.2,0.1,0.4,0.2c-0.1,0-0.2,0.2-0.4,0.1
			c0,0-0.1,0-0.1,0.1c0,0.1,0,0.3,0,0.4c0,0.2,0.3,0.3,0.5,0.4c0.2,0,0.2,0.1,0.2,0.3c0,0.2,0.1,0.4,0.1,0.7c0,0,0,0,0,0
			c0.1,0,0.1,0,0.2,0c0.1,0,0.3,0,0.3-0.1c0.1-0.1,0.2-0.2,0.2-0.3c0-0.1,0.1-0.1,0.1-0.2c0.1-0.1,0.1-0.1,0.2-0.1c0,0,0,0,0.1,0
			c0.1,0,0.2,0.1,0.2,0.2c0,0.1,0,0.2,0,0.3c-0.1,0.2-0.1,0.5-0.1,0.8c0,0.1,0,0.2,0,0.3l0,0c0,0,0,0,0,0c0,0,0,0,0.1,0
			c0,0,0.1,0,0.1,0c0.1,0,0.1,0,0.2,0c0.2,0,0.4,0.1,0.5,0.2c0,0,0,0,0.1,0c0.3,0.1,0.4,0.4,0.6,0.6c0,0,0,0,0,0c0,0.2,0,0.5,0,0.7
			c0,0.2-0.1,0.5,0.1,0.7c0,0,0,0.1,0,0.1c0,0.4,0,0.8,0,1.2c0,0.2,0,0.4-0.2,0.6c0,0,0,0,0-0.1c0-0.2-0.1-0.3-0.2-0.5
			c0,0,0,0-0.1,0c-0.1,0-0.2,0-0.2,0c0,0,0,0,0,0c0,0,0-0.1,0.1-0.1c0,0,0,0,0,0c0,0,0,0,0,0c0.2-0.1,0.2-0.3,0-0.4
			c-0.1-0.1-0.1-0.2-0.1-0.3c0,0,0,0-0.1,0c-0.1,0-0.2,0-0.3,0c0,0,0,0,0,0c0-0.2,0-0.5,0.1-0.7c0,0-0.1,0.1-0.1,0.1c0,0,0,0,0,0.1
			c0,0-0.1,0.1-0.1,0.1c-0.1,0-0.1,0-0.1,0c0,0,0,0,0,0c0,0,0-0.1,0-0.1c0,0,0,0,0,0c0.2-0.3,0.2-0.7,0.2-1.1c0-0.1,0-0.1,0-0.2
			c0,0-0.1,0-0.1,0.1c0,0-0.1,0.1-0.1,0.1c-0.1,0.1-0.1,0.1-0.2,0.1c0,0,0,0,0,0c0,0-0.1-0.1-0.1-0.1c-0.1,0-0.1,0-0.2,0
			c0,0-0.1,0-0.2,0.1c0,0,0.1-0.1,0.1-0.1l0,0c-0.1-0.1-0.3-0.2-0.4-0.3c0,0,0.1-0.1,0.1-0.2c0,0-0.1-0.1-0.2-0.1c0,0-0.1,0-0.1,0
			c-0.2,0-0.4,0-0.6,0.1c-0.1,0-0.2,0.1-0.3,0.1c0,0-0.1,0.1-0.1,0.2c-0.2,0.2-0.4,0.4-0.5,0.6c0,0,0,0.1,0,0.2
			c0.1,0.2,0.2,0.4,0.3,0.5c0,0,0,0.1,0,0.1c0,0.1,0,0.2,0,0.2c0,0,0.1,0,0.3,0.1c0,0,0,0,0,0c0.1,0,0.2,0.1,0.2,0.2
			c0,0.2,0.1,0.3,0.1,0.5c0.1,0.4,0.2,0.8,0.4,1.1c0.1,0.4,0.1,0.9-0.6,0.8c-0.1,0-0.2,0-0.4,0.1c0,0,0,0,0.1,0c0,0,0,0,0,0
			c0.2-0.1,0.3,0,0.5,0c0.1,0,0.2,0,0.3,0c0,0,0,0,0.1,0c0,0,0,0,0,0c0,0-0.1-0.1-0.2-0.2c0.1,0,0.2,0,0.3,0c0,0,0.1,0,0.1,0.1
			c0.1,0.1,0.1,0.3,0.1,0.4c0,0,0,0.1,0.1,0.2c0,0,0,0,0,0c0,0,0.2,0,0.2,0l0,0l0,0c0,0,0-0.1,0-0.2c0-0.1-0.1-0.2-0.1-0.3
			c0,0,0.1,0,0.1,0c0.2,0,0.2,0.3,0.3,0.3c-0.1,0.1-0.2,0.2-0.3,0.3c0,0,0,0,0,0c0.2-0.1,0.3-0.2,0.5-0.3c0,0,0,0,0,0
			c0,0.1,0,0.1,0.1,0.1c0,0,0,0,0,0c0.2-0.2,0.5-0.3,0.8-0.3c0.1,0,0.1,0,0.2,0.1c0,0,0.1,0,0.1,0.1c0,0,0,0,0,0
			c0.3,0.2,0.4,0.7,0.3,0.9c0,0,0,0.1,0,0.2c0,0.3-0.1,0.6-0.2,0.9c0,0.2-0.1,0.5-0.2,0.7c-0.1,0.3-0.1,0.6-0.3,0.9
			c-0.1,0.2-0.1,0.5,0.1,0.7c0,0,0,0.1,0.1,0.1c0.1,0.1,0.1,0.1,0.2,0.2c0,0,0,0,0,0c0-0.1,0.1-0.2,0.1-0.3c0-0.1,0.1-0.2,0.2-0.2
			c0,0,0,0,0,0C136.2,26.3,136.2,26.3,136.3,26.3z M134.1,14c-0.1,0-0.1-0.1-0.1-0.1C134.2,13.9,134.2,13.9,134.1,14z M136.4,21.9
			c-0.1-0.2,0-0.3,0-0.5c0-0.3,0.1-0.6,0.2-0.9c0-0.3,0-0.6,0-0.9c0-0.2,0-0.5-0.2-0.7c0,0,0,0,0-0.1c0-0.2,0.1-0.4,0.1-0.6
			c0,0,0,0.1,0,0.1c0-0.1,0-0.1,0-0.2c0,0.1,0,0.1,0,0.2c0,0,0,0,0,0c0-0.1,0.1-0.2,0.2-0.3c0,0,0,0,0,0c0,0,0,0,0,0
			c0,0,0.1-0.1,0.2-0.1c0.3,0,0.5,0.1,0.7,0.2c-0.1,0.2-0.1,0.4,0,0.5c0,0,0,0.1,0,0.1c0,0.2,0,0.4-0.1,0.6c0,0.2-0.1,0.5-0.2,0.7
			c-0.1,0.3-0.1,0.6-0.2,0.9c0,0,0,0.1,0,0.2c0,0,0,0.1,0,0.2c0.1,0.1,0.1,0.1,0,0.2c0,0-0.1,0.1-0.2,0.1c-0.1,0-0.2,0.1-0.3,0.1
			C136.6,21.8,136.5,21.9,136.4,21.9C136.3,21.9,136.3,21.9,136.4,21.9C136.4,21.9,136.4,21.9,136.4,21.9z M138.4,16.1
			c0,0.1,0.1,0.3,0.1,0.4c0,0,0,0.1,0,0.1c0,0-0.1-0.1-0.1-0.1c0,0,0,0,0,0c0,0-0.1-0.1-0.1-0.1C138.3,16.3,138.4,16.2,138.4,16.1
			C138.4,16.1,138.4,16.1,138.4,16.1L138.4,16.1c0,0,0-0.1,0-0.1c0,0,0,0,0.1,0C138.4,16.1,138.4,16.1,138.4,16.1z M136.7,15.8
			c0,0,0.1-0.1,0.1-0.1c0.1-0.1,0.1-0.1,0.2-0.2c0,0,0.1,0.1,0.1,0.1c0,0,0.1,0.1,0.2,0.2c0,0,0,0,0,0c0,0,0,0,0,0
			c0,0-0.1,0.1-0.2,0.1C137.3,15.5,137,15.7,136.7,15.8C136.8,15.8,136.8,15.8,136.7,15.8C136.8,15.8,136.8,15.8,136.7,15.8z
			 M136.9,16.5c0.1,0.2,0.4,0.2,0.3,0.4c-0.1,0-0.2,0.1-0.2,0.1c-0.1-0.1-0.2,0-0.3,0C136.7,16.8,136.8,16.6,136.9,16.5z
			 M137.2,21.9C137.2,21.9,137.2,21.9,137.2,21.9C137.2,21.9,137.2,21.8,137.2,21.9C137.2,21.8,137.2,21.9,137.2,21.9z M137.2,21.8
			C137.2,21.8,137.2,21.8,137.2,21.8C137.2,21.8,137.2,21.8,137.2,21.8z M138.2,19.9c0,0.2,0,0.4,0,0.5c0,0-0.1,0-0.2-0.1
			c0,0-0.1,0-0.1,0c0-0.1,0.1-0.1,0.1-0.2C138.1,20,138.1,20,138.2,19.9C138.1,19.9,138.1,19.9,138.2,19.9
			C138.1,19.9,138.1,19.9,138.2,19.9z M139.3,18.5c-0.1-0.2-0.2-0.4-0.3-0.6c0,0-0.1,0-0.1-0.1c0,0,0,0.1,0,0.1c0,0-0.1,0.1-0.2,0.1
			c0,0,0,0,0,0c0,0,0,0,0,0c0,0,0,0,0,0c0,0,0-0.2,0.1-0.2c0.1,0,0.2-0.1,0.3-0.2c0,0,0,0,0,0c0.1-0.1,0.1-0.2,0.1-0.3
			c0,0,0,0,0.1-0.1c0.2,0.2,0.3,0.5,0.3,0.8C139.4,18.2,139.4,18.4,139.3,18.5z M140,17.1C140,17.1,140,17.1,140,17.1
			C140,17.1,140,17.1,140,17.1C140,17.1,140,17.1,140,17.1z M140.8,13.7L140.8,13.7C140.8,13.7,140.8,13.7,140.8,13.7L140.8,13.7
			L140.8,13.7C140.8,13.7,140.8,13.7,140.8,13.7L140.8,13.7z M140.9,13.8C140.8,13.7,140.8,13.7,140.9,13.8
			C140.8,13.7,140.8,13.7,140.9,13.8z M143.6,16.2c-0.1,0-0.2,0-0.2,0s0-0.1,0-0.2c0,0,0.1,0,0.1,0C143.5,16,143.6,16.1,143.6,16.2z
			 M142.8,21.4c0.1,0,0.1-0.1,0.2-0.1c0,0,0,0-0.1-0.1c0,0,0,0,0,0c0,0,0,0,0,0c0.1-0.1,0.2-0.4,0.5-0.4c0.1,0,0.2,0,0.2,0.1
			c0.1,0.2,0.2,0.4,0.3,0.6c0,0,0,0,0,0c0,0,0,0,0,0c-0.4-0.4-0.7-0.5-1-0.3c0.7,0.3,0.7,0.3,0.8,0.5c0,0,0,0,0,0c0,0,0,0,0,0
			c0,0-0.1,0.1-0.1,0.1c0,0-0.1,0-0.1,0C143.3,21.8,143,21.6,142.8,21.4C142.8,21.5,142.8,21.5,142.8,21.4
			C142.8,21.4,142.8,21.4,142.8,21.4z M143.5,20.7C143.5,20.7,143.5,20.7,143.5,20.7c0.1-0.1,0.1,0,0.1,0
			C143.6,20.7,143.6,20.7,143.5,20.7L143.5,20.7C143.6,20.7,143.6,20.8,143.5,20.7C143.5,20.7,143.5,20.7,143.5,20.7z M143.9,21.8
			C143.9,21.7,143.9,21.7,143.9,21.8L143.9,21.8C143.9,21.7,144,21.7,143.9,21.8C143.9,21.7,143.9,21.7,143.9,21.8L143.9,21.8z
			 M142.7,19.6c-0.1,0-0.1-0.1-0.1-0.1c0-0.1,0.1-0.2,0.1-0.3c0,0,0,0,0-0.1C142.9,19.3,142.9,19.5,142.7,19.6z M143.4,12.7
			C143.4,12.7,143.4,12.7,143.4,12.7C143.4,12.7,143.4,12.7,143.4,12.7C143.4,12.7,143.4,12.7,143.4,12.7z M140.8,14.4
			C140.8,14.4,140.8,14.4,140.8,14.4c-0.3,0.1-0.2-0.1-0.3-0.2C140.7,14.3,140.8,14.3,140.8,14.4z M139.6,14.7c0.1,0,0.1,0,0.2-0.1
			c0,0,0.1,0.1,0.2,0.1c0,0,0,0-0.1,0c0,0,0,0,0,0C139.9,14.7,139.7,14.8,139.6,14.7C139.6,14.8,139.6,14.7,139.6,14.7
			C139.6,14.7,139.6,14.7,139.6,14.7C139.6,14.7,139.6,14.7,139.6,14.7z M138.7,12.2c0,0.1-0.2,0.1-0.3,0c-0.1,0-0.1-0.1-0.2-0.2
			C138.4,12.1,138.6,12.2,138.7,12.2z M138,13.7c0.1,0,0.2,0,0.3,0.1c0,0,0.1,0,0.2,0c0,0,0.1-0.1,0.1-0.1c0.1,0,0.1-0.1,0.2-0.1
			c0,0,0,0,0,0c0,0,0,0,0.1,0c0,0.1,0,0.1,0,0.2c0,0.1,0,0.2,0.1,0.4c0,0.1,0,0.1,0,0.2c-0.1-0.1-0.2-0.1-0.2-0.2
			c0,0-0.1,0.1-0.1,0.1c0,0.1,0.1,0.2,0.3,0.2c0,0,0,0,0,0c0,0,0,0,0,0c0,0,0,0,0,0c0,0,0,0,0,0c0,0,0.1,0,0.1-0.1
			c-0.1,0-0.1,0.1-0.1,0.1c0,0.1,0,0.2,0.2,0.3c0.1,0,0.1,0.1,0.1,0.2c0,0,0,0,0,0c0,0,0,0,0,0c-0.2,0.1-0.4,0.2-0.5,0.3
			c0,0,0,0.2,0,0.2c0.1,0.1,0.3,0.2,0.5,0.3c0,0,0,0,0,0c0,0,0,0,0,0c-0.1,0-0.2,0.1-0.2,0.1c-0.1,0-0.1,0-0.2,0c0,0,0,0.1,0,0.1
			c0,0,0,0.1,0,0.1c0,0,0.1,0.1,0.1,0.2c0,0,0,0-0.1,0c0-0.1,0-0.1,0-0.2c0,0,0,0,0-0.1c0,0,0,0,0,0.1c0-0.1,0-0.1-0.1-0.2
			c0,0,0-0.1,0-0.2c0,0,0-0.1,0-0.1c0,0-0.1,0-0.1,0c0,0-0.1,0-0.1,0c0.1-0.1,0.1-0.1,0.1-0.2c0,0,0,0,0,0c0,0,0,0,0,0l0,0
			c0,0,0,0,0.1,0c0,0,0-0.1,0-0.1c-0.2-0.1-0.2-0.3-0.1-0.4c0.1-0.2,0-0.3-0.2-0.3c0,0,0,0,0,0l0,0c0,0,0.1-0.1,0.1-0.1
			c0.1-0.1,0-0.1-0.2-0.2c0,0,0,0,0,0C138.1,13.9,138.1,13.8,138,13.7C138,13.7,138,13.7,138,13.7C138,13.7,138,13.7,138,13.7z
			 M136.8,12.2c0,0.1,0,0.2,0,0.3c0,0,0,0,0,0c0,0,0,0,0,0c0,0,0,0,0,0c0,0-0.1,0-0.1-0.1C136.7,12.4,136.7,12.3,136.8,12.2z
			 M135,13.7c0,0,0-0.1,0-0.1c0.1,0,0.1,0.1,0.3,0.1C135.2,13.7,135.1,13.7,135,13.7z M135.4,15.3c0.1-0.2,0.5-0.4,0.8-0.3
			c0.1,0,0.3,0,0.2,0.2c-0.3-0.2-0.4,0-0.6,0C135.7,15.3,135.6,15.3,135.4,15.3z M135.7,25.9c0.2-0.1,0.3-0.1,0.7,0.1
			c-0.2,0-0.4,0-0.7,0C135.7,26,135.7,25.9,135.7,25.9z"/>
		<path class="st15" d="M145.6,16.4L145.6,16.4C145.6,16.4,145.6,16.4,145.6,16.4z"/>
		<polygon class="st15" points="145.6,16.4 145.6,16.4 145.6,16.4 		"/>
		<path class="st15" d="M152.5,17.2c0,0-0.1,0-0.1-0.1c0,0,0,0,0,0c0,0.2-0.1,0.4-0.1,0.6c0,0,0,0,0,0.1c0,0-0.1-0.1-0.1-0.1
			c0,0,0,0,0,0c0,0,0,0,0,0c0-0.1,0-0.1,0.1-0.2c0-0.1,0-0.2-0.2-0.3c0,0-0.1,0-0.1-0.1c-0.2-0.2-0.4-0.2-0.7-0.2c0,0,0,0,0,0
			c-0.1,0-0.3,0.1-0.5,0.1c0,0.1-0.1,0.2-0.1,0.3c0,0,0,0,0-0.1c0,0,0,0,0,0c-0.1-0.1-0.2-0.3,0-0.4c0,0,0.1-0.1,0.1-0.1
			c-0.1,0-0.1,0-0.2-0.1c0-0.1-0.1-0.1-0.1-0.2c0,0,0,0,0,0c0,0,0.1,0,0.1,0c0,0,0.1,0,0.1,0c0-0.2,0-0.4,0-0.5
			c-0.1-0.1-0.2-0.2-0.3-0.3c0.1,0,0.2-0.1,0.2-0.1c0,0,0-0.1,0-0.1c0,0-0.1-0.1-0.1-0.1c0,0,0,0-0.1,0c0.1-0.2,0.2-0.5,0.4-0.8
			c0,0,0,0,0.1,0c0,0,0,0,0.1,0c0.1,0,0.1,0.1,0.2,0.1c0.2,0.1,0.4,0.2,0.5,0.3c0,0.1,0.1,0.1,0.2,0.1c0,0,0.1,0,0.1,0.1
			c0-0.1,0-0.1,0-0.1c0.1-0.3,0.1-0.3-0.2-0.5c-0.2-0.1-0.5-0.2-0.5-0.5c0-0.1-0.1-0.1-0.2-0.1c0,0-0.1,0-0.1,0c0,0-0.1,0-0.1,0.1
			c0,0,0-0.1-0.1-0.1c-0.1-0.2-0.3-0.4-0.4-0.6c0,0-0.1,0-0.1,0c-0.1,0-0.2,0-0.3,0.1c0,0,0.1,0,0.1-0.1c0.2-0.1,0.3-0.1,0.5-0.2
			c0.2-0.1,0.2-0.2,0.1-0.4c0-0.1-0.1-0.3-0.3-0.3c0,0,0,0-0.1,0c0,0,0,0,0,0c0.1-0.1,0.1-0.1,0.1-0.1c0.1-0.1,0-0.2-0.1-0.3
			c-0.1,0-0.3-0.1-0.3-0.3c0.1,0,0.1,0,0.2,0c0,0,0.1,0,0.1,0c0.1,0,0.2,0.1,0.3,0.2c0,0,0.1,0,0.1,0c0,0,0.1,0,0.1,0
			c0,0,0-0.1,0-0.1c-0.1-0.1-0.2-0.1-0.4-0.2c-0.1-0.1-0.2-0.1-0.4-0.1c-0.3,0-0.7,0.1-0.8,0.2c-0.1,0.1-0.3,0.1-0.4,0.1
			c-0.1,0-0.1,0-0.1,0c0,0-0.1-0.1-0.1-0.1c0,0-0.1,0-0.1,0c0,0,0,0,0.1,0c0,0,0,0.1,0,0.1c0,0.1,0,0.2,0,0.2c0,0,0,0,0,0
			c0.2,0,0.3,0,0.5,0c0,0,0,0,0,0c0.2,0,0.2,0.1,0.2,0.2c0,0,0,0.1,0,0.1c-0.4,0.1-0.7,0.3-0.6,0.7c0,0.1-0.1,0.2-0.2,0.3
			c-0.1,0.1-0.2,0.2-0.3,0.3c0,0.1-0.1,0.2-0.1,0.3c0.1,0.4,0.2,0.8,0.3,1.2c0,0.2,0,0.3,0,0.5c0,0.3,0,0.7,0,1c0,0.1,0,0.1,0,0.2
			c0.2,0.1,0.1,0.3,0,0.4c-0.1,0.1-0.1,0.2,0,0.2c0,0,0.1,0,0.1,0c0,0,0,0,0-0.1c0,0,0-0.1,0.1-0.1c0,0,0,0,0.1,0c0,0,0,0.1,0,0.2
			c0,0.1-0.1,0.1-0.1,0.2c0,0.1-0.1,0.2-0.2,0.3c-0.1,0.1-0.2,0.2-0.2,0.3c0,0.2,0,0.5,0,0.7c0,0.3-0.1,0.6,0,0.9
			c0,0.3,0.1,0.6,0,0.9c-0.1,0.2-0.1,0.5,0,0.7c0.1,0.3,0.3,0.5,0.4,0.8c0.1,0.2,0.3,0.4,0.4,0.6c0.3,0.5,0.3,1.1,0.4,1.7
			c0,0.3,0.2,0.5,0.2,0.7c0,0,0,0.1,0,0.1c0,0,0,0,0.1,0c0.1-0.1,0-0.2,0-0.3c-0.1-0.2-0.1-0.4,0-0.5c0.1-0.1,0.1-0.2,0.1-0.4
			c0-0.2,0-0.4,0.1-0.6c0-0.1,0.1-0.1,0.1-0.2c0,0,0,0,0,0c0.1,0,0.2,0.1,0.2,0.2c0.2,0.4,0.3,0.8,0.5,1.1c0.1,0.2,0.1,0.4,0,0.7
			c0.4,0.1,0.4,0.2,0.4,0.6c0,0,0,0,0,0.1c0.1,0,0.1,0,0.2,0c0.1,0,0.2,0,0.2,0c0.3,0,0.4-0.2,0.4-0.4c0-0.3,0-0.3-0.3-0.4
			c0-0.1,0-0.3,0-0.4c0-0.4-0.1-0.7-0.2-1.1c0-0.2,0-0.5,0-0.7c0-0.2,0.1-0.2,0.3-0.2c0.1,0,0.2-0.1,0.2-0.1c0-0.2,0.2-0.4,0-0.6
			c0,0,0,0-0.1-0.1c0,0,0,0,0.1,0.1c0,0,0.1,0,0.1,0.1c0.1-0.1,0.1-0.1,0.2-0.2c0,0,0,0,0.1-0.1c0,0,0.1,0.1,0.1,0.2c0,0,0,0,0.1,0
			c0,0,0.1,0,0.1,0c0-0.1,0-0.1,0-0.2c0,0,0.1-0.1,0.2-0.1c0,0,0-0.1-0.1-0.1c0,0,0,0,0,0c0-0.1,0-0.2,0-0.3c0,0,0,0,0-0.1
			c0,0,0,0,0,0c0,0,0,0,0,0c0.1,0,0.1,0,0.1,0c0,0,0.1-0.1,0.1-0.1c0,0,0,0,0,0c0,0,0-0.1,0-0.1c0,0.1,0.1,0.2,0.1,0.2
			c-0.1,0-0.2,0-0.3,0c0,0.1,0,0.1,0,0.2c0,0.2,0.1,0.4,0.1,0.7c0,0.4,0,0.8,0,1.2c0,0,0,0.1,0,0.2c0.1,0.1,0.2,0.2,0.2,0.3
			c0,0,0.1,0.1,0.1,0.1c0-0.2,0-0.3,0-0.5c0-0.4-0.1-0.8-0.1-1.1c0,0,0-0.1,0-0.1c0-0.1,0-0.3-0.1-0.4c0,0-0.1-0.1-0.1-0.2
			c0,0,0,0,0.1,0.1c0.1,0.3,0.2,0.7,0.5,0.9c0,0,0,0,0,0c0,0.2,0,0.4,0.1,0.5c0,0.2,0,0.4,0.1,0.5c0,0.1,0,0.2,0,0.2
			c0,0-0.1,0-0.1,0c0,0-0.1,0.1,0,0.1c0,0.1,0.1,0.2,0.2,0.3c-0.2,0.1-0.2,0.2-0.1,0.2c0.1,0,0.1,0,0.2,0c0.1,0,0.2,0,0.3,0
			c0.1,0,0.2-0.1,0.2-0.3c0-0.1-0.1-0.2-0.1-0.3c-0.1-0.2-0.2-0.4-0.2-0.6c-0.1-0.3-0.3-0.7-0.2-1c0,0,0,0,0,0
			c-0.1-0.3-0.2-0.7-0.3-1.1c0-0.2-0.1-0.4-0.1-0.6c-0.1-0.4-0.3-0.7-0.4-1.1c0-0.2-0.2-0.5,0-0.7c-0.1,0-0.2,0-0.2,0
			c0-0.2-0.1-0.3-0.1-0.5c0-0.1,0-0.2,0-0.3c0.1,0.2,0.1,0.3,0.1,0.3c0,0,0.1,0,0.2,0c-0.1-0.2-0.1-0.5-0.2-0.7c0,0,0,0,0-0.1
			c0,0,0,0,0.1,0c0,0.1,0.1,0.1,0.1,0.2c0,0,0,0,0,0c0.1,0,0.1,0,0.2,0c-0.1-0.2-0.2-0.4-0.3-0.6c0-0.1-0.1-0.1-0.2-0.1
			c0,0,0,0-0.1,0c-0.1,0-0.2,0.1-0.3,0.1c0,0,0,0,0-0.1C152.7,17.4,152.7,17.3,152.5,17.2C152.6,17.2,152.5,17.2,152.5,17.2z
			 M148.9,17.6c0.2-0.1,0.2-0.1,0.2,0.1C149.1,17.7,149,17.6,148.9,17.6z M149.1,18.4C149.1,18.4,149.1,18.4,149.1,18.4
			C149.1,18.4,149.1,18.4,149.1,18.4c0,0,0.1-0.1,0.1-0.1c0.2,0.1,0.3,0.1,0.4-0.1c0.1-0.2,0.1-0.4,0.2-0.6c0,0,0,0,0.1-0.1
			c0,0,0,0,0.1,0c0,0,0,0,0,0c0,0,0,0,0,0c-0.1,0.2-0.2,0.4-0.2,0.6c0,0,0,0,0,0.1c0,0,0,0.1,0,0.1c0,0.1,0,0.1,0,0.1
			c0,0.1-0.1,0.2-0.2,0.3C149.5,18.4,149.4,18.4,149.1,18.4z M149.6,22.8C149.6,22.8,149.6,22.8,149.6,22.8L149.6,22.8
			C149.6,22.7,149.6,22.8,149.6,22.8C149.6,22.8,149.7,22.8,149.6,22.8C149.7,22.8,149.7,22.8,149.6,22.8
			C149.7,22.8,149.7,22.8,149.6,22.8c0.1,0,0.1,0,0.1,0c0-0.1,0.1-0.1,0.1-0.2c0,0,0-0.1,0.1-0.1c0,0-0.1-0.1-0.1-0.2c0,0,0,0,0,0
			c0,0,0,0,0,0c0.1,0,0.2-0.3,0.4-0.2c0,0,0,0,0.1,0c0,0-0.1-0.1-0.1-0.1c0,0,0,0,0,0c0,0,0,0,0,0c0.1,0,0.2,0,0.3-0.1
			c0,0,0,0.1,0,0.2c0,0,0,0,0,0c0,0,0,0,0,0c0,0-0.1,0-0.1,0c0,0,0,0.1,0,0.1c0.2,0.1,0.3,0.3,0.3,0.5c0,0.1,0,0.2,0.1,0.3
			c0,0,0,0,0,0c0,0,0,0,0,0c0,0-0.1,0-0.1,0c-0.1,0-0.1,0-0.2,0.1c0,0,0,0,0-0.1s0-0.1,0-0.2c0,0-0.1,0.1-0.1,0.1
			c-0.1,0-0.1,0-0.2,0c0,0,0-0.1,0.1-0.1c0,0,0,0,0,0c-0.1,0.1-0.2,0.1-0.2,0.2c0,0,0.1,0.1,0.1,0.2c0.2,0.1,0.4,0.2,0.6,0.3
			c0,0-0.1,0-0.1,0c0,0,0,0,0.1,0C150.3,23.4,149.8,23.1,149.6,22.8z M149.6,12.9C149.6,12.9,149.6,12.9,149.6,12.9
			C149.5,12.9,149.5,12.9,149.6,12.9C149.5,12.9,149.5,12.9,149.6,12.9C149.6,12.9,149.6,12.9,149.6,12.9z M149.3,13
			c0.1,0,0.3,0,0.5,0C149.6,13,149.5,13,149.3,13C149.3,13,149.3,13,149.3,13C149.3,13,149.3,13,149.3,13z M148.9,20.1L148.9,20.1
			c0,0.1-0.1,0.2-0.1,0.2h0C148.8,20.3,148.9,20.2,148.9,20.1z M152.4,21.3C152.4,21.3,152.4,21.3,152.4,21.3c0-0.1,0-0.2,0-0.3
			c0-0.1,0.1-0.1,0.1-0.2c0,0,0,0.1,0,0.1c0,0.1,0.1,0.1,0.1,0.2C152.6,21.2,152.5,21.2,152.4,21.3z M153.2,21.1
			c0,0.2-0.1,0.4,0.3,0.5c-0.3,0.1-0.3-0.1-0.4-0.1C153.1,21.4,153.2,21.3,153.2,21.1z"/>
		<path class="st15" d="M151.3,12.5c0,0.1,0,0.1,0,0.2c0,0,0,0.1,0,0.1c0,0.1,0,0.1,0,0.2c0,0.1,0,0.3-0.2,0.4c0,0,0,0.1,0,0.1
			c0,0,0,0,0,0c0.1,0.2,0.1,0.5,0.4,0.7c0.1,0.1,0.2,0.1,0.3,0.2c0-0.1,0-0.1,0.1-0.2c0-0.1,0-0.2,0-0.3c0.1-0.2,0.2-0.4,0.4-0.6
			c0.1-0.2,0.2-0.5,0.6-0.5c0,0,0,0,0,0c0,0,0,0,0-0.1c0,0,0-0.1,0-0.1c0,0,0,0,0-0.1c0.2,0.2,0.4,0.1,0.6,0c0,0,0,0,0,0
			c0,0,0,0,0,0c0-0.1-0.1-0.1-0.1-0.2c-0.1,0-0.1,0-0.2,0c0,0,0,0,0,0c0,0,0,0,0,0c0,0,0.1,0,0.1,0c0,0,0,0,0,0c0,0,0,0,0,0
			c-0.1-0.1-0.1-0.2-0.2-0.3c0,0,0,0,0-0.1c0.2,0.1,0.2,0.1,0.3-0.1c0.1-0.2,0.2-0.3,0.3-0.5c0-0.1,0.1-0.1,0.2-0.2
			c0.1-0.2,0.2-0.4,0.3-0.6c0.2-0.4,0.4-0.8,0.6-1.2c0,0,0,0,0,0c0,0,0-0.1,0-0.1c0,0,0,0,0,0c0,0,0.1,0,0.1,0c0,0,0,0,0.1,0
			c0,0,0,0,0,0c0-0.1,0-0.3-0.1-0.4c0,0,0-0.1,0-0.1c0-0.1,0-0.1,0.1-0.1c0.1,0,0.1-0.1,0.1-0.1c0,0,0,0,0,0l0,0h0c0,0,0,0,0,0
			c0,0,0,0,0,0c0,0,0,0,0,0c0,0,0,0,0,0c0,0,0-0.1-0.1-0.1c-0.1,0-0.3-0.1-0.5-0.1c-0.2,0-0.3,0-0.3,0.2c0,0,0,0,0,0
			c0,0.1,0,0.2,0.1,0.3c0,0,0,0.1,0,0.1c0,0,0,0.1,0,0.1c-0.1,0.4-0.4,0.8-0.7,1.2c-0.3,0.3-0.6,0.6-0.7,1c0,0.1-0.1,0.2-0.2,0.3
			c-0.1,0.1-0.2,0.2-0.3,0.3c-0.2,0.3-0.4,0.5-0.7,0.7c0,0-0.1,0-0.1,0.1C151.3,12.5,151.3,12.5,151.3,12.5z"/>
		<path class="st15" d="M142.6,25.6c-0.1,0-0.1,0.1-0.2,0.1c-0.4,0-0.5,0.2-0.5,0.6c0,0.1,0,0.1,0.1,0.2c0,0,0.1,0,0.1,0
			c0.2,0,0.4,0,0.6,0c0,0,0,0,0,0c0,0,0,0,0,0c-0.2,0-0.4,0-0.5,0c0,0,0,0,0,0c0,0,0.1,0,0.1,0c0,0,0.1,0,0.1,0c0,0,0,0,0,0
			c0,0,0,0,0,0c0,0,0,0,0,0c0,0,0,0,0,0c0,0,0.1,0,0.1,0c0,0,0.1,0,0.1-0.1c0-0.1,0-0.3-0.1-0.3c0,0-0.1-0.1-0.2-0.1
			c0.2,0,0.2,0,0.3,0.1c0.1,0.1,0.1,0.2,0.1,0.4c0,0,0,0,0,0c0.1-0.1,0.4-0.1,0.4-0.2c0-0.1,0-0.3-0.1-0.4c0,0-0.1-0.1-0.2-0.1
			c0,0-0.1,0-0.1-0.1C142.8,25.5,142.7,25.5,142.6,25.6z M142.5,26.2C142.4,26.2,142.4,26.2,142.5,26.2
			C142.4,26.2,142.4,26.2,142.5,26.2c-0.1,0-0.2-0.1-0.2-0.1c0,0,0,0,0,0c0,0,0,0,0.1-0.1c0,0,0,0,0,0
			C142.4,26.1,142.4,26.2,142.5,26.2z"/>
		<path class="st15" d="M151.3,16.4C151.3,16.3,151.3,16.3,151.3,16.4c0.1,0,0.2,0,0.3,0.1c0,0,0.1,0,0.1,0c0,0,0,0,0,0
			c0-0.1,0-0.2-0.2-0.2c-0.4,0-0.7,0-1.1,0c-0.1,0-0.1,0-0.2,0.1c0,0,0,0.1,0.1,0.1C150.5,16.5,151.2,16.5,151.3,16.4z"/>
		<path class="st15" d="M136.1,26.8C136.1,26.8,136.1,26.8,136.1,26.8C136.1,26.8,136.1,26.8,136.1,26.8c0.2,0,0.4-0.1,0.5-0.1
			c0.1,0,0.1-0.1,0.2-0.1c0,0,0.1-0.1,0-0.2c-0.1,0-0.1,0-0.2,0c-0.1,0-0.3,0-0.4,0c-0.1,0-0.1,0-0.2,0.1c0,0-0.1,0-0.1,0.1
			c0,0,0,0.1,0,0.1c0,0,0,0.1,0,0.1v0l0,0C135.9,26.7,136,26.8,136.1,26.8z"/>
		<path class="st15" d="M149.8,25.8c0,0-0.1,0-0.1,0C149.7,25.9,149.7,25.9,149.8,25.8c0.2,0.1,0.4,0.2,0.2,0.5c0.1,0,0.2,0,0.3-0.1
			c0,0,0,0.1,0.1,0.1c0.1,0,0.1,0,0.2-0.1c0,0,0.1,0,0.1,0c0,0,0,0,0,0v0c0,0,0,0-0.1,0c0,0,0,0-0.1,0c0,0,0,0,0,0c0,0,0,0,0,0
			c0,0-0.1,0-0.1,0c0,0,0,0,0,0c0,0,0,0,0.1,0c0,0,0,0,0,0c0,0,0,0,0,0c0,0,0,0,0,0c-0.1-0.3-0.3-0.4-0.7-0.4
			C149.9,25.8,149.9,25.8,149.8,25.8z"/>
		<path class="st15" d="M149.8,26C149.8,26,149.8,26,149.8,26c0,0-0.1,0-0.1,0c-0.1,0-0.1,0-0.1,0c-0.1,0.1-0.1,0.2-0.1,0.3
			c0,0.1,0,0.1,0.1,0.1c0,0,0.1,0,0.1-0.1c0,0,0.1,0,0.1,0c0,0,0,0,0,0c0.1,0,0.1-0.1,0.2-0.1c0,0-0.1-0.1-0.1-0.1
			C149.8,26,149.8,26,149.8,26z"/>
		<path class="st15" d="M152,16.9C152,16.8,152,16.8,152,16.9c-0.1-0.1-0.1-0.1-0.1-0.1c-0.1,0-0.2-0.1-0.2-0.1c0,0,0,0,0,0
			c0,0,0,0,0,0c-0.1-0.1-0.2-0.1-0.3,0c0,0,0,0-0.1,0c0,0,0,0,0.1-0.1c0,0,0,0,0,0c0,0-0.1-0.1-0.1-0.1c-0.1,0.1-0.1,0.1-0.2,0.2
			c0,0,0,0,0,0c0,0,0,0,0,0c0,0-0.1,0-0.2,0c0,0,0,0.1,0.1,0.1c0,0,0,0,0,0c0.1,0,0.2,0,0.3,0c0.2,0,0.4,0,0.6,0
			C151.9,16.8,151.9,16.9,152,16.9C152,16.9,152,16.9,152,16.9C152.1,16.9,152.1,16.9,152,16.9C152,16.9,152,16.9,152,16.9z"/>
		<path class="st15" d="M150.4,12.2c0,0,0,0.1,0,0.1c0,0.1,0,0.1,0,0.2c0,0,0,0,0,0c0,0,0,0,0,0c0-0.1,0.1-0.1,0.1-0.2
			c0,0,0-0.1-0.1-0.1C150.5,12.2,150.4,12.1,150.4,12.2C150.4,12.2,150.4,12.2,150.4,12.2z"/>
		<path class="st15" d="M153.3,12.1C153.3,12.1,153.4,12.1,153.3,12.1c0.1,0.1,0.2,0.1,0.3,0.1c0,0,0-0.1,0.1-0.2c0,0,0,0-0.1,0
			C153.5,12,153.4,12,153.3,12.1z"/>
		<path class="st15" d="M143.3,26.2C143.3,26.2,143.3,26.2,143.3,26.2C143.3,26.2,143.3,26.2,143.3,26.2c0.1,0,0.2,0,0.3,0
			c0,0,0,0-0.1,0c0,0,0,0,0,0C143.5,26.1,143.4,26.2,143.3,26.2z"/>
		<path class="st15" d="M145.6,16.4C145.6,16.4,145.6,16.4,145.6,16.4C145.6,16.4,145.6,16.4,145.6,16.4c0.1-0.1,0-0.1,0-0.2
			c0,0,0,0,0,0c0,0-0.1,0-0.1,0C145.5,16.3,145.5,16.4,145.6,16.4z"/>
		<path class="st15" d="M143.2,26.2L143.2,26.2c0,0,0.1,0,0.1,0c0,0,0,0,0,0c0,0,0,0,0,0C143.2,26.2,143.2,26.2,143.2,26.2z"/>
		<path class="st15" d="M136.5,11.9C136.5,11.9,136.5,11.9,136.5,11.9C136.5,11.8,136.5,11.8,136.5,11.9
			C136.5,11.8,136.5,11.9,136.5,11.9z"/>
		<path class="st0" d="M155,8.4C155,8.4,155,8.4,155,8.4"/>
		<path class="st14" d="M139,14.4C139,14.4,139,14.4,139,14.4c0,0,0.1,0,0.1-0.1C139,14.3,139,14.3,139,14.4z"/>
		<path class="st14" d="M138.8,16.3C138.8,16.3,138.9,16.3,138.8,16.3c0.1-0.1,0-0.1,0-0.2C138.8,16.1,138.8,16.2,138.8,16.3z"/>
		<path class="st14" d="M143.5,21.9c0,0,0.1,0,0.1,0c0,0,0.1-0.1,0.1-0.1c0,0,0,0,0,0c0,0,0,0,0,0c-0.1-0.2-0.1-0.2-0.8-0.5
			c0.2-0.2,0.6-0.1,1,0.3c0,0,0,0,0,0c0,0,0,0,0,0c-0.1-0.2-0.1-0.4-0.3-0.6c0,0-0.2-0.1-0.2-0.1c-0.3,0-0.4,0.2-0.5,0.4
			c0,0,0,0,0,0c0,0,0,0,0,0c0,0,0,0.1,0.1,0.1c0,0-0.1,0.1-0.2,0.1c0,0,0,0,0,0c0,0,0,0,0,0C143,21.6,143.3,21.8,143.5,21.9z"/>
		<path class="st14" d="M139.5,18c0-0.3-0.1-0.7-0.3-0.8c0,0,0,0-0.1,0.1c0,0.1-0.1,0.2-0.1,0.3c0,0,0,0,0,0
			c-0.1,0.1-0.1,0.2-0.3,0.2c-0.1,0-0.1,0.1-0.1,0.2c0,0,0,0,0,0c0,0,0,0,0,0c0,0,0,0,0,0c0.1,0,0.1-0.1,0.2-0.1c0,0,0-0.1,0-0.1
			c0,0,0.1,0,0.1,0.1c0.1,0.2,0.2,0.4,0.3,0.6C139.4,18.4,139.4,18.2,139.5,18z"/>
		<path class="st14" d="M136.9,16.9c0.1,0,0.1,0,0.2-0.1c0.1-0.2-0.2-0.2-0.3-0.4c-0.1,0.2-0.2,0.3-0.3,0.5
			C136.8,16.9,136.9,16.8,136.9,16.9z"/>
		<path class="st14" d="M137.3,16c0.1,0,0.1-0.1,0.2-0.1c0,0,0,0,0,0c0,0,0,0,0,0c-0.1-0.1-0.2-0.1-0.2-0.2c-0.1,0-0.1-0.1-0.1-0.1
			c-0.1,0.1-0.2,0.1-0.2,0.2c0,0-0.1,0.1-0.1,0.1c0,0,0,0,0,0c0,0,0,0,0,0C137,15.7,137.3,15.5,137.3,16z"/>
		<path class="st14" d="M138,20.1c0,0.1-0.1,0.1-0.1,0.2c0,0,0.1,0,0.1,0c0.1,0,0.1,0.1,0.2,0.1c0-0.1,0-0.3,0-0.5c0,0,0,0,0,0
			c0,0,0,0,0,0C138.1,20,138.1,20,138,20.1z"/>
		<path class="st14" d="M142.7,19.2C142.7,19.2,142.7,19.2,142.7,19.2c0,0.1-0.1,0.2-0.1,0.3c0,0,0,0.1,0.1,0.1
			C142.9,19.5,142.9,19.3,142.7,19.2z"/>
		<path class="st14" d="M140.8,14.5C140.8,14.4,140.8,14.4,140.8,14.5c0-0.2,0-0.2-0.3-0.3C140.6,14.3,140.5,14.5,140.8,14.5z"/>
		<path class="st14" d="M139.6,14.8c0.1,0,0.3,0,0.4,0c0,0,0,0,0,0c0,0,0,0,0.1,0c-0.1,0-0.2-0.1-0.2-0.1
			C139.7,14.6,139.7,14.6,139.6,14.8C139.6,14.7,139.6,14.7,139.6,14.8C139.6,14.7,139.6,14.7,139.6,14.8
			C139.6,14.7,139.6,14.8,139.6,14.8z"/>
		<path class="st14" d="M136.8,12.5C136.8,12.5,136.8,12.5,136.8,12.5c0.1,0.1,0.1,0.1,0.1,0.1c0-0.1,0-0.2,0-0.3
			C136.7,12.3,136.7,12.4,136.8,12.5z"/>
		<path class="st14" d="M136.9,12.6C136.9,12.6,136.9,12.6,136.9,12.6C136.9,12.6,136.9,12.6,136.9,12.6z"/>
		<path class="st14" d="M138.4,16c0,0,0,0.1,0,0.1C138.4,16.1,138.4,16.1,138.4,16C138.4,16,138.4,16,138.4,16z"/>
		<path class="st0" d="M140.8,13.7C140.8,13.7,140.8,13.7,140.8,13.7"/>
		<path class="st14" d="M137.2,21.9C137.2,21.9,137.2,21.8,137.2,21.9C137.2,21.8,137.2,21.9,137.2,21.9
			C137.2,21.9,137.2,21.9,137.2,21.9z"/>
		<path class="st14" d="M143.9,21.7L143.9,21.7C143.9,21.7,143.9,21.7,143.9,21.7L143.9,21.7C143.9,21.7,143.9,21.7,143.9,21.7
			C144,21.7,143.9,21.7,143.9,21.7z"/>
		<path class="st14" d="M140,17.1C140,17.1,140,17.1,140,17.1C140,17.1,140,17.1,140,17.1C140,17.1,140,17.1,140,17.1z"/>
		<path class="st0" d="M140.8,13.7L140.8,13.7C140.8,13.7,140.8,13.7,140.8,13.7"/>
		<line class="st0" x1="140.8" y1="13.7" x2="140.8" y2="13.7"/>
		<path class="st14" d="M149.6,22.8C149.6,22.8,149.6,22.8,149.6,22.8C149.6,22.8,149.6,22.7,149.6,22.8L149.6,22.8z"/>
		<path class="st14" d="M150.6,23.3C150.6,23.3,150.6,23.3,150.6,23.3C150.6,23.3,150.6,23.3,150.6,23.3c-0.2-0.1-0.4-0.2-0.6-0.3
			c-0.1,0-0.2-0.1-0.1-0.2c0.1-0.1,0.2-0.1,0.2-0.2c0,0,0,0,0,0c0,0,0,0.1-0.1,0.1c0.1,0,0.2,0,0.2,0c0,0,0.1,0,0.1-0.1
			c0,0,0,0.1,0,0.2s0,0.1,0,0.1c0.1,0,0.1,0,0.2-0.1c0,0,0.1,0,0.1,0c0,0,0,0,0,0c0,0,0,0,0,0c0-0.1,0-0.2-0.1-0.3
			c0-0.2-0.1-0.4-0.3-0.5c0,0,0,0,0-0.1c0,0,0.1,0,0.1,0c0,0,0,0,0,0c0,0,0,0,0,0c0-0.1,0-0.1,0-0.2c-0.1,0-0.2,0.1-0.3,0.1
			c0,0,0,0,0,0c0,0,0,0,0,0c0,0,0.1,0,0.1,0.1c0,0-0.1,0-0.1,0c-0.3-0.1-0.3,0.1-0.4,0.2c0,0,0,0,0,0c0,0,0,0,0,0
			c0,0,0.2,0.1,0.1,0.2c0,0,0,0.1-0.1,0.1c0,0.1-0.1,0.1-0.1,0.2c0,0,0,0,0,0c0,0,0,0-0.1,0c0,0,0,0,0,0.1c0,0,0,0,0,0
			C149.8,23.1,150.3,23.4,150.6,23.3z"/>
		<path class="st14" d="M153.5,21.6c-0.3-0.1-0.2-0.3-0.3-0.5c-0.1,0.1-0.1,0.2-0.2,0.3C153.2,21.5,153.2,21.7,153.5,21.6z"/>
		<line class="st0" x1="149.3" y1="13" x2="149.3" y2="13"/>
		<path class="st14" d="M149.3,13c0.1,0,0.3,0,0.5,0C149.6,13,149.5,13,149.3,13z"/>
		<path class="st0" d="M149.5,12.9C149.5,12.9,149.5,12.9,149.5,12.9"/>
		<path class="st14" d="M149.6,12.9C149.6,12.9,149.6,12.9,149.6,12.9C149.6,12.9,149.6,12.9,149.6,12.9z"/>
		<polygon class="st16" points="143.6,33.4 141.8,30 141.8,29.9 141.8,29.9 141.8,29.9 141.8,29.9 139.2,34.8 139.2,34.9 
			139.3,34.9 142.5,34.6 139.8,34.6 141.8,31.1 143.7,34.5 144.1,34.5 144.2,34.5 144.1,34.5 144.1,34.4 		"/>
		<polygon class="st17" points="143.7,34.5 141.8,31.1 139.8,34.6 142.5,34.6 143.8,34.6 		"/>
		<g>
			<path class="st15" d="M132,22c-0.1,0-0.1,0.1-0.2,0.1c0,0,0,0,0,0c0.2,0,0.5,0,0.7,0c0.5,0.1,0.9,0.3,1.3,0.5
				c0.1,0,0.3,0.1,0.4,0.2c0,0,0.1,0.1,0,0.1c0,0-0.1,0.1-0.1,0.1c-0.3,0-0.6-0.1-1-0.1c-0.4-0.1-0.9-0.2-1.4-0.3
				c-0.1,0-0.1-0.1-0.2-0.2c0-0.1,0-0.2,0-0.3c0,0,0-0.1,0.1-0.1C131.8,21.9,131.9,21.9,132,22C132,22,132,22,132,22z"/>
			<path class="st15" d="M134.1,22.6c0.1-0.1,0.2-0.1,0.4-0.2c0,0.1-0.1,0.3-0.1,0.4C134.3,22.7,134.2,22.7,134.1,22.6z"/>
			<path class="st15" d="M133.1,21.8C133.1,21.9,133.1,21.9,133.1,21.8L133.1,21.8C133.1,21.9,133.1,21.9,133.1,21.8
				C133.1,21.9,133.1,21.9,133.1,21.8L133.1,21.8z"/>
			<path class="st15" d="M133.8,22.4C133.8,22.4,133.7,22.4,133.8,22.4C133.7,22.4,133.7,22.4,133.8,22.4
				C133.8,22.4,133.8,22.4,133.8,22.4z"/>
			<path class="st14" d="M136.5,15.3c-0.3-0.2-0.4,0-0.6,0c-0.2,0-0.3,0-0.4,0c0.1-0.2,0.5-0.4,0.8-0.3
				C136.3,15,136.5,15.1,136.5,15.3z"/>
			<path class="st14" d="M136.4,26c-0.2,0-0.4,0-0.7,0c0,0,0-0.1,0-0.1C136,25.8,136.1,25.7,136.4,26z"/>
			<path class="st14" d="M135.3,13.7c-0.1,0-0.2,0-0.2,0c0,0,0-0.1,0-0.1C135.1,13.6,135.2,13.6,135.3,13.7z"/>
			<path class="st14" d="M134.1,14c-0.1-0.1-0.1-0.1-0.1-0.1C134.2,13.9,134.2,13.9,134.1,14z"/>
			<path class="st14" d="M136.3,19.1C136.3,19.1,136.4,19.2,136.3,19.1C136.4,19.2,136.4,19.2,136.3,19.1
				C136.4,19.2,136.3,19.1,136.3,19.1L136.3,19.1z"/>
			<path class="st14" d="M136.3,19.1L136.3,19.1L136.3,19.1z"/>
		</g>
	</g>
	<g>
		<path d="M6.2,5.2C6,5,5.9,4.9,5.7,4.9c-0.2,0-0.3,0-0.3,0.1C5.3,5.1,5.3,5.2,5.3,5.3c0,0.1,0,0.3,0,0.4c0,0.1,0,0.2,0,0.3
			c0,1.5,0.1,2.9,0.3,4.4c0.2,1.4,0.3,2.9,0.5,4.3c0.2,1.4,0.3,2.9,0.4,4.3c0.1,1.4,0.1,2.9,0,4.4c-0.1,0.6-0.4,1-0.8,1.3
			c-0.4,0.3-0.8,0.5-1.3,0.5c-0.5,0-1-0.2-1.5-0.5c-0.4-0.3-0.8-0.7-1.1-1.2c-0.3-0.5-0.6-1-0.9-1.6c-0.2-0.6-0.5-1.1-0.7-1.6
			c0,0-0.1,0-0.2,0.1C0,20.6,0,20.6,0,20.7c0,0.7,0.1,1.4,0.4,2c0.2,0.7,0.6,1.3,1,1.8c0.4,0.5,0.9,0.9,1.4,1.3s1.1,0.5,1.7,0.5
			c0.7,0,1.2-0.1,1.6-0.4c0.4-0.3,0.8-0.6,1-1c0.2-0.4,0.4-1,0.5-1.6c0.1-0.6,0.1-1.3,0.1-2c0-2.6-0.2-5.3-0.5-8
			C6.9,10.5,6.5,7.8,6.2,5.2z"/>
		<path d="M14,12.8c-0.1-0.3-0.2-0.6-0.4-1c-0.2-0.4-0.4-0.8-0.6-1.1s-0.5-0.7-0.7-0.9c-0.3-0.2-0.6-0.4-0.9-0.4
			c-0.2,0-0.3,0-0.5,0.1c-0.2,0.1-0.3,0.2-0.5,0.3c-0.2,0.1-0.3,0.3-0.4,0.4c-0.1,0.2-0.1,0.4-0.1,0.6c-0.2,1-0.4,1.9-0.6,2.8
			C9.1,14.4,9,15.2,8.9,16c-0.1,0.8-0.1,1.6-0.1,2.4c0,0.8,0.1,1.6,0.2,2.4c0,0.3,0,0.6,0,1C9,22.2,9,22.6,9.1,23
			c0.1,0.4,0.2,0.7,0.4,1c0.2,0.3,0.4,0.4,0.8,0.4c0.7-0.1,1.2-0.4,1.7-0.8c0.5-0.4,0.9-1,1.2-1.7c0.3-0.7,0.5-1.4,0.7-2.2
			c0.2-0.8,0.3-1.6,0.3-2.4c0-0.8,0-1.6,0-2.4C14.2,14.1,14.1,13.4,14,12.8z M13.1,15.3c0,0.3,0,0.7,0,1.1c0,0.5-0.1,1-0.1,1.5
			c-0.1,0.5-0.2,1.1-0.3,1.7c-0.1,0.6-0.3,1.1-0.5,1.5c-0.2,0.5-0.4,0.8-0.7,1.1c-0.3,0.3-0.6,0.4-0.9,0.4h-0.1
			c-0.1-0.2-0.1-0.4-0.1-0.6c0-0.2-0.1-0.3-0.1-0.5c0-0.2,0-0.3,0-0.5c0-0.2,0-0.3,0-0.5c0-0.8,0-1.6,0-2.5c0-0.8,0-1.6,0-2.3
			c0-0.7,0.1-1.4,0.1-2c0.1-0.6,0.2-1.1,0.3-1.5c0.1-0.4,0.3-0.7,0.6-0.9c0.2-0.2,0.5-0.2,0.9-0.1c0.2,0,0.4,0.1,0.5,0.2
			c0.1,0.2,0.2,0.4,0.3,0.6c0.1,0.3,0.1,0.5,0.2,0.9c0,0.3,0.1,0.6,0.1,0.9c0,0.3,0,0.6,0,0.8V15.3z"/>
		<path d="M29.2,21c-0.2-0.2-0.4-0.2-0.6-0.2h-0.2l-8.4,2v-0.3c0-0.6,0.1-1.3,0.3-1.9c0.2-0.6,0.4-1.2,0.7-1.8
			c0.3-0.6,0.6-1.2,0.9-1.7s0.6-1.2,0.9-1.7c0.3-0.6,0.5-1.2,0.7-1.8c0.2-0.6,0.3-1.2,0.3-1.9c0-0.6-0.3-0.9-0.8-0.9
			c-0.5,0.1-1.1,0.3-1.8,0.7s-1.4,0.6-2.1,1c-0.7,0.3-1.4,0.6-2.1,0.8c-0.7,0.2-1.3,0.4-1.8,0.4c-0.2,0.1-0.2,0.3-0.1,0.5
			c0.1,0.2,0.1,0.3,0.3,0.5c0.1,0.2,0.3,0.3,0.4,0.4c0.2,0.1,0.3,0.1,0.3,0.1c0.4-0.1,0.9-0.3,1.4-0.4c0.5-0.2,1-0.4,1.5-0.6
			c0.5-0.2,1-0.5,1.5-0.7c0.5-0.2,1-0.5,1.4-0.7c0,0,0,0,0,0.1c0,0,0,0.1,0,0.1c0,0,0,0.1,0,0.1c0,0,0,0,0,0.1
			c-0.1,0.4-0.3,0.8-0.5,1.4c-0.2,0.6-0.5,1.3-0.8,2c-0.3,0.7-0.6,1.5-1,2.3c-0.3,0.8-0.6,1.6-0.9,2.4c-0.2,0.8-0.4,1.5-0.6,2.1
			c-0.1,0.7-0.2,1.2-0.1,1.6c1.7-0.4,3.2-0.7,4.4-1c1.2-0.3,2.2-0.5,2.9-0.6c0.8-0.2,1.4-0.3,1.8-0.4c0.4-0.1,0.8-0.1,1-0.2
			c0.2,0,0.4-0.1,0.4-0.1c0.1,0,0.1,0,0.2,0c0.3-0.1,0.5-0.2,0.6-0.4c0.1-0.2,0.1-0.4,0-0.6C29.5,21.3,29.4,21.1,29.2,21z"/>
		<path d="M36.8,10.2c-0.1,0-0.3-0.1-0.4-0.1c0,0-0.1,0-0.1,0c-0.1,0-0.1,0-0.1,0l-0.5,10.5c-0.5-0.5-0.9-1.1-1.3-1.8
			c-0.4-0.7-0.8-1.4-1.2-2.2c-0.4-0.8-0.8-1.5-1.1-2.3c-0.4-0.8-0.7-1.5-1-2.1c0-0.1-0.1-0.1-0.3-0.2c-0.2-0.1-0.3-0.1-0.3-0.1
			c-0.3,0-0.5,0.1-0.5,0.3c-0.1,0.2-0.1,0.4-0.1,0.6c0,0.1,0,0.2,0,0.3c0,0.1,0,0.2,0,0.2l5.9,11.1l-0.7,10.4h1.2
			c0-0.3,0.1-0.8,0.1-1.6s0.1-1.5,0.2-2.4c0.1-0.9,0.1-1.8,0.2-2.8c0.1-1,0.1-2,0.2-2.9c0.1-0.9,0.1-1.7,0.1-2.4
			c0-0.7,0.1-1.3,0.1-1.6c0-0.6,0-1.3,0.1-2.2c0-0.9,0-1.9,0.1-2.9c0-1,0-2,0-2.9c0-0.9,0-1.7,0-2.4C37.1,10.4,37,10.3,36.8,10.2z"
			/>
		<path d="M64.1,5.9c0.3-0.2,0.5-0.5,0.5-0.8c-0.1,0-0.2,0-0.4,0c-0.2,0-0.3,0-0.3,0c-0.2,0-0.4,0.1-0.7,0.1c-0.3,0-0.7,0.1-1.2,0.1
			c-0.4,0-0.9,0.1-1.4,0.2c-0.5,0.1-0.9,0.1-1.4,0.2c-0.4,0.1-0.8,0.1-1.2,0.1c-0.3,0-0.6,0.1-0.7,0.1h-0.2c-0.1,0-0.2-0.1-0.2-0.2
			c-0.1-0.1-0.1-0.2-0.2-0.4c-0.1-0.1-0.2-0.3-0.3-0.4c-0.1-0.1-0.3-0.2-0.4-0.2c-0.1,0-0.2,0.1-0.3,0.2c-0.1,0.1-0.2,0.3-0.2,0.4
			c-0.1,0.2-0.1,0.3-0.1,0.5c0,0.2-0.1,0.3-0.1,0.3l-6.1,1c-0.2,0-0.3,0.1-0.4,0.3c-0.1,0.2-0.2,0.4-0.2,0.6c0,0.3,0.1,0.4,0.2,0.5
			c0.2,0,0.3,0.1,0.5,0.1c0.5,0,1-0.1,1.5-0.2c0.5-0.1,1-0.2,1.5-0.4c0.5-0.1,1-0.3,1.5-0.4c0.5-0.1,1-0.2,1.5-0.2h0.4
			c0.1,0.8,0.2,1.6,0.3,2.6c0.1,0.9,0.2,1.9,0.3,3c0.1,1,0.2,2.1,0.2,3.1c0.1,1.1,0.2,2.1,0.3,3.1c0.1,1,0.2,1.9,0.3,2.8
			c0.1,0.9,0.2,1.6,0.4,2.3c0.2,0,0.4,0,0.5,0c0.2,0,0.3,0,0.3-0.1c0.1-0.1,0.1-0.2,0.1-0.3c0-0.1,0-0.3-0.1-0.6
			c0-1.3-0.1-2.6-0.2-3.9c-0.2-1.4-0.3-2.8-0.5-4.2c-0.2-1.4-0.3-2.8-0.4-4.2c-0.1-1.4-0.1-2.7-0.1-4c0.2-0.1,0.6-0.1,1.1-0.1
			c0.5,0,1-0.1,1.5-0.1c0.6-0.1,1.1-0.1,1.7-0.2c0.6-0.1,1.1-0.2,1.6-0.3C63.3,6.3,63.7,6.1,64.1,5.9z"/>
		<path d="M70.1,10.6c-1-0.2-1.9-0.1-2.6,0.2c-0.7,0.3-1.2,0.9-1.6,1.7c-0.4,0.8-0.7,1.8-0.8,3.1S65,18.3,65,20
			c-0.1-0.2-0.2-0.6-0.3-1c-0.1-0.4-0.1-1-0.2-1.5c-0.1-0.6-0.1-1.2-0.2-1.8c-0.1-0.6-0.1-1.2-0.2-1.8c-0.1-0.6-0.1-1.1-0.2-1.6
			c0-0.5-0.1-0.8-0.1-1.1c-0.1-0.2-0.1-0.3-0.3-0.3c-0.1,0-0.2,0-0.3,0c-0.2,0-0.3,0-0.4,0.1c-0.1,0.1-0.2,0.2-0.2,0.4v0.2l1.6,12.3
			c0.1,0.2,0.2,0.3,0.4,0.4c0.2,0.1,0.3,0.1,0.5,0.1c0.2,0,0.3,0,0.4-0.1c0.1-0.1,0.2-0.2,0.2-0.4c0.2-1.3,0.3-2.5,0.3-3.7
			c0-1.2,0.1-2.3,0.2-3.3c0.1-1,0.2-1.9,0.5-2.7c0.2-0.8,0.6-1.3,1.2-1.7c0.1-0.1,0.4-0.2,0.7-0.3c0.3,0,0.6-0.1,0.9-0.1
			c0.3,0,0.6-0.1,0.9-0.2c0.3-0.1,0.4-0.2,0.4-0.5C70.8,10.9,70.6,10.6,70.1,10.6z"/>
		<path d="M73.5,12.9c0-1.2,0-2.4,0-3.4c0-0.3-0.1-0.4-0.2-0.5c-0.1-0.1-0.3-0.1-0.5-0.1c0,0-0.1,0-0.2,0c-0.1,0-0.2,0-0.2,0
			c-0.1,1.1-0.2,2.3-0.2,3.6c0,1.3,0,2.6,0,3.9c0,1.3,0.1,2.6,0.1,3.9c0,1.3,0.1,2.5,0.1,3.7c0,0.3,0,0.5,0.1,0.6
			c0.1,0.1,0.3,0.1,0.5,0.1c0.2,0,0.3,0,0.4-0.1c0.1-0.1,0.2-0.3,0.1-0.6c0-1,0-2.2,0-3.4c0-1.3,0-2.5,0-3.8
			C73.5,15.4,73.5,14.2,73.5,12.9z"/>
		<path d="M72.4,5.8c0.1,0,0.3,0,0.4-0.1c0.1-0.1,0.3-0.2,0.3-0.4c0-0.3,0-0.6-0.1-0.8c-0.1-0.2-0.3-0.3-0.6-0.3
			c-0.2,0-0.3,0-0.4,0.1c-0.1,0.1-0.2,0.2-0.2,0.4c0,0.3,0,0.6,0.1,0.8C72.1,5.6,72.2,5.8,72.4,5.8z"/>
		<path d="M82.1,17.9c-0.1-0.8-0.2-1.6-0.3-2.4c-0.1-0.8-0.1-1.9-0.1-3c0.2-1.1,0.1-1.8-0.2-2.3s-0.8-0.6-1.5-0.5
			c-0.4,0-0.9,0.2-1.3,0.7c-0.4,0.5-0.9,1.1-1.3,1.8c-0.4,0.7-0.8,1.5-1.2,2.4c-0.4,0.9-0.7,1.7-0.9,2.6c-0.3,0.8-0.5,1.6-0.6,2.3
			c-0.2,0.7-0.2,1.3-0.2,1.7c0,0.4,0.1,0.9,0.2,1.3c0.1,0.5,0.2,0.9,0.4,1.2c0.2,0.3,0.4,0.5,0.8,0.5c0.3,0,0.7-0.2,1.1-0.7
			c0.4-0.5,1-1.2,1.6-2.3c0.6-1.1,1.3-2.5,2.1-4.4c0.2,0.4,0.3,0.9,0.4,1.4c0.1,0.6,0.2,1.2,0.2,1.9c0.1,0.7,0.1,1.3,0.2,2
			c0.1,0.7,0.1,1.2,0.2,1.7c0,0.1,0,0.1,0.1,0.2c0.1,0.1,0.1,0.1,0.2,0.1c0.3,0,0.5-0.1,0.6-0.2c0-0.2,0.1-0.3,0.1-0.6
			c0-1.2,0-2.2-0.1-3S82.2,18.7,82.1,17.9z M80.4,12.7c0,0.3,0,0.6-0.1,0.9c-0.1,0.3-0.1,0.6-0.2,0.9c-0.1,0.3-0.2,0.7-0.3,1
			c-0.2,0.4-0.4,0.8-0.6,1.4s-0.5,1.2-0.8,1.8c-0.3,0.6-0.6,1.2-0.9,1.7c-0.3,0.5-0.6,0.9-0.8,1.2c-0.2,0.3-0.4,0.4-0.6,0.3
			c-0.2-0.1-0.3-0.4-0.3-1.1c0.1-0.4,0.2-1,0.4-1.7c0.2-0.7,0.5-1.4,0.8-2.2c0.3-0.8,0.6-1.5,0.9-2.3c0.3-0.8,0.7-1.4,1-1.9
			c0.3-0.5,0.6-0.9,0.9-1.2c0.3-0.2,0.5-0.2,0.7,0.1C80.4,12.1,80.4,12.4,80.4,12.7z"/>
		<path d="M93.5,18.6c0-1.1-0.1-2.2-0.1-3.3c-0.1-1.2-0.2-2.2-0.4-3.2c-0.2-1-0.5-1.8-0.8-2.5c-0.3-0.7-0.8-1.1-1.3-1.2
			c-1,0.3-1.7,0.9-2.3,1.6c-0.5,0.7-0.9,1.5-1.2,2.5c-0.3,0.9-0.5,2-0.7,3.1c-0.2,1.1-0.4,2.3-0.8,3.5c-0.2-1.9-0.3-3.4-0.4-4.7
			c-0.1-1.3-0.2-2.3-0.3-3s-0.2-1.4-0.2-1.7c-0.1-0.4-0.1-0.6-0.2-0.8c-0.1-0.1-0.1-0.2-0.2-0.2h-0.2c-0.4,0-0.6,0.2-0.6,0.6
			c0.2,2.6,0.3,5.1,0.4,7.6s0.3,4.8,0.4,7.3c0.1,0.2,0.2,0.3,0.4,0.3c0.2,0,0.3,0,0.5,0c0.2-0.1,0.3-0.1,0.5-0.3
			c0.1-0.1,0.2-0.2,0.3-0.4c0-0.4,0.1-0.9,0.2-1.6c0.1-0.7,0.3-1.5,0.4-2.3c0.2-0.8,0.4-1.7,0.6-2.6c0.2-0.9,0.5-1.8,0.7-2.6
			c0.3-0.8,0.5-1.6,0.8-2.2c0.3-0.7,0.6-1.2,0.9-1.5c0.3-0.3,0.6-0.4,0.9-0.3c0.3,0.1,0.6,0.5,0.9,1.1c0,0.2,0,0.6,0.1,1.2
			c0,0.6,0.1,1.3,0.1,2.1c0,0.8,0.1,1.7,0.1,2.6c0.1,0.9,0.1,1.8,0.1,2.6c0,0.8,0.1,1.5,0.1,2.1c0,0.6,0,1,0,1.2
			c0.1,0.2,0.2,0.3,0.3,0.3c0.1,0,0.2,0,0.3,0c0.1,0,0.2-0.1,0.3-0.2c0.1-0.1,0.2-0.2,0.2-0.4c0-0.4,0-1,0-1.8S93.5,19.6,93.5,18.6z
			"/>
		<path d="M103.7,20.7c0-0.9-0.1-1.8-0.2-2.7c-0.1-0.9-0.1-1.9-0.2-2.8c-0.1-0.9-0.1-1.8-0.2-2.5c-0.1-0.7-0.1-1.3-0.1-1.8
			c0-0.5-0.1-0.7-0.1-0.7c-0.6-0.6-1.2-0.9-1.9-0.9c-0.6,0-1.3,0.3-1.9,0.8c-0.6,0.5-1.2,1.1-1.7,2c-0.5,0.8-1,1.7-1.4,2.7
			s-0.7,1.9-1,2.9c-0.3,1-0.4,1.9-0.4,2.7c0.1,0.5,0.2,1,0.4,1.4c0.2,0.5,0.4,0.8,0.7,1c0.3,0.2,0.7,0.2,1.1,0.1
			c0.4-0.2,0.9-0.6,1.3-1.3c0.5-0.7,1-1.8,1.6-3.1c0.6-1.4,1.2-3.2,1.9-5.5c0,1.4,0,2.9,0.1,4.5c0.1,1.6,0.2,3.2,0.3,4.8
			c0.1,1.6,0.1,3.1,0,4.6c-0.1,1.5-0.3,2.8-0.7,4c-0.4,1.2-1,2.1-1.7,2.8c-0.8,0.7-1.8,1.1-3.2,1.2c-0.2,0.2-0.3,0.3-0.3,0.4
			s0,0.2,0,0.2c0.1,0.1,0.1,0.1,0.2,0.1s0.2,0,0.2,0c0.7,0.4,1.5,0.6,2.1,0.4c0.7-0.2,1.3-0.6,1.8-1.2c0.5-0.6,1-1.4,1.4-2.3
			c0.4-0.9,0.8-2,1-3c0.3-1.1,0.5-2.2,0.6-3.3c0.1-1.1,0.2-2.2,0.1-3.2C103.8,22.3,103.8,21.6,103.7,20.7z M100.3,14.1
			c-0.3,0.9-0.7,1.7-1,2.5c-0.3,0.8-0.7,1.6-1,2.3c-0.3,0.7-0.7,1.2-0.9,1.6c-0.3,0.4-0.6,0.6-0.8,0.6c-0.3,0-0.5-0.3-0.6-0.8
			c0-0.4,0.1-1,0.2-1.6c0.1-0.6,0.3-1.2,0.5-1.9c0.2-0.7,0.4-1.3,0.7-2c0.3-0.7,0.6-1.3,0.9-1.8c0.3-0.5,0.7-1,1.1-1.4
			c0.4-0.4,0.8-0.6,1.2-0.7c0.3-0.1,0.4,0,0.5,0.1c0.1,0.2,0.1,0.4,0.1,0.6C101,12.4,100.7,13.2,100.3,14.1z"/>
		<path d="M114.7,17.4c-0.2-0.1-0.3-0.1-0.5-0.1c-0.1,0-0.3,0.1-0.5,0.4c-0.2,0.3-0.4,0.6-0.7,1.1c-0.3,0.4-0.5,0.9-0.8,1.4
			c-0.3,0.5-0.7,1-1,1.4c-0.4,0.4-0.8,0.8-1.2,1.1c-0.4,0.3-0.9,0.4-1.4,0.4c-0.5,0-0.8-0.1-1-0.4c-0.2-0.2-0.3-0.5-0.4-0.9
			c-0.1-0.4-0.1-0.8,0-1.2c0-0.4,0-0.8,0-1.1c0-0.1,0-0.2,0-0.4c0-0.2,0-0.4,0-0.6c0-0.2,0.1-0.4,0.1-0.7c0-0.2,0.1-0.4,0.2-0.6
			c0.1-0.1,0.3-0.3,0.7-0.5c0.3-0.2,0.7-0.5,1.2-0.8c0.4-0.3,0.9-0.6,1.4-0.9c0.5-0.3,0.9-0.7,1.3-1s0.7-0.6,0.9-0.9
			c0.2-0.3,0.3-0.5,0.2-0.6c0-0.4-0.1-0.8-0.3-1.1c-0.2-0.3-0.4-0.6-0.7-0.9c-0.3-0.2-0.6-0.4-0.9-0.6c-0.3-0.1-0.6-0.2-0.9-0.2
			c-0.6,0-1.2,0.1-1.6,0.4c-0.4,0.3-0.8,0.7-1.1,1.1s-0.5,1-0.8,1.6c-0.2,0.6-0.4,1.2-0.6,1.7c-0.2,0.6-0.4,1.1-0.7,1.6
			c-0.2,0.5-0.5,0.9-0.9,1.2c-0.1,0.1-0.2,0.2-0.2,0.2c0,0.1-0.1,0.1-0.1,0.3c0,0.2,0.1,0.4,0.2,0.5c0.1,0.1,0.3,0.1,0.4,0.2
			c0.2,0,0.3,0,0.5,0c0.2,0,0.3-0.1,0.3-0.1c0,0.6,0,1.2,0,1.9c0,0.7,0.1,1.3,0.2,1.9c0.1,0.6,0.4,1.1,0.7,1.5
			c0.4,0.4,0.9,0.6,1.6,0.6c0.4,0,0.8-0.1,1.2-0.4c0.5-0.2,0.9-0.6,1.4-0.9s0.9-0.8,1.4-1.3c0.5-0.5,0.9-1,1.2-1.5
			c0.4-0.5,0.6-1,0.9-1.4c0.2-0.4,0.3-0.8,0.3-1.2C114.9,17.6,114.8,17.4,114.7,17.4z M107.9,14.2c0.2-0.4,0.4-0.9,0.6-1.3
			c0.3-0.4,0.5-0.8,0.8-1.1c0.3-0.3,0.6-0.4,0.8-0.4c0.1,0,0.3,0,0.4,0.1c0.2,0,0.3,0.1,0.4,0.2c0.1,0.1,0.3,0.2,0.4,0.3
			c0.1,0.1,0.2,0.2,0.2,0.4c0,0.3-0.2,0.6-0.5,1c-0.3,0.3-0.7,0.7-1.1,1c-0.4,0.3-0.9,0.6-1.3,0.8c-0.4,0.2-0.8,0.3-1,0.3
			C107.6,15,107.7,14.7,107.9,14.2z"/>
		<path d="M117.8,12c-0.1-3.6-0.3-7.1-0.6-10.6c0-0.1-0.1-0.2-0.2-0.3c-0.1,0-0.2-0.1-0.3-0.1c-0.1,0-0.3,0-0.4,0.1
			c-0.1,0.1-0.2,0.1-0.4,0.3c0.1,0.6,0.2,1.4,0.3,2.5c0.1,1.1,0.2,2.3,0.3,3.6c0.1,1.3,0.1,2.7,0.2,4.2c0,1.5,0.1,2.9,0.1,4.3
			c0,1.4,0,2.7,0,3.9c0,1.2-0.1,2.3-0.2,3.1c0,0.1,0,0.2,0.1,0.3c0.1,0.1,0.2,0.2,0.3,0.3c0.1,0.1,0.3,0.2,0.5,0.2
			c0.2,0,0.4,0,0.6-0.2c0,0,0-0.2,0-0.4c0-0.3,0-0.5,0-0.7C118,19.1,117.9,15.6,117.8,12z"/>
	</g>
</g>
</svg>
